<?xml version="1.0" encoding="utf-8"?>
<!-- Generator: Adobe Illustrator 16.0.0, SVG Export Plug-In . SVG Version: 6.00 Build 0)  -->
<!DOCTYPE svg PUBLIC "-//W3C//DTD SVG 1.1//EN" "http://www.w3.org/Graphics/SVG/1.1/DTD/svg11.dtd">
<svg version="1.1" id="Шар_1" xmlns="http://www.w3.org/2000/svg" xmlns:xlink="http://www.w3.org/1999/xlink" x="0px" y="0px"
	 width="1200px" height="1000px" viewBox="0 0 1200 1000" enable-background="new 0 0 1200 1000" xml:space="preserve">
<path fill="#BBDEFB" d="M1050.868,1766.507H295.971l-6.018,10.422c-0.357,0.619-1.018,1-1.732,1s-1.375-0.381-1.732-1l-6.019-10.422
	H96.385c-6.594,0-11.938,5.341-11.938,11.935l-0.239,136.433c0,6.594,5.345,11.937,11.937,11.937h954.484
	c6.593,0,11.938-5.343,11.938-11.937l0.239-136.433C1062.805,1771.848,1057.46,1766.507,1050.868,1766.507z"/>
<path fill="#BBDEFB" d="M1065.835,1216.786c0-6.762-5.359-12.247-11.969-12.247H603.524l-6.717,11.631c-0.357,0.619-1.018,1-1.732,1
	s-1.375-0.381-1.732-1l-6.715-11.631H96.972c-6.607,0-11.968,5.485-11.968,12.247l0.006,428.636c0,6.764,5.358,12.249,11.968,12.249
	h715.117l6.391-11.068c0.357-0.619,1.018-1,1.732-1s1.375,0.381,1.732,1l6.392,11.068h225.53c6.609,0,11.969-5.485,11.969-12.249
	L1065.835,1216.786z"/>
<path fill="#A5D6A7" d="M980.192,195.662H564.285l-7.179,12.432c-0.357,0.619-1.018,1-1.732,1s-1.375-0.381-1.732-1l-7.179-12.432
	H98.132c-7.656,0-13.861,6.393-13.861,14.28v182.639c0,7.887,6.205,14.28,13.861,14.28h110.539l7.947-13.765
	c0.357-0.619,1.018-1,1.732-1s1.375,0.381,1.732,1l7.948,13.765h411.53v-23.542h-7.072c-0.715,0-1.375-0.381-1.732-1
	c-0.357-0.619-0.357-1.381,0-2l3.682-6.376l8.641-14.963c0.357-0.619,1.018-1,1.732-1s1.375,0.381,1.732,1l8.641,14.963l3.682,6.376
	c0.357,0.619,0.357,1.381,0,2c-0.357,0.619-1.018,1-1.732,1h-7.074v23.542h330.133c7.654,0,13.861-6.393,13.861-14.28V209.942
	C994.054,202.055,987.847,195.662,980.192,195.662z"/>
<path fill="#A5D6A7" d="M981.056,796.786H431.534v22.057h7.072h0.005c1.104,0,1.998,0.896,1.998,2c0,0.395-0.115,0.763-0.313,1.072
	l-4.304,7.453l-7.977,13.813c-0.357,0.619-1.018,1-1.732,1s-1.375-0.381-1.732-1l-7.977-13.813l-4.346-7.525
	c-0.357-0.618-0.357-1.381,0-2s1.018-1,1.732-1h7.074v-22.057H228.192l-7.988,13.836c-0.357,0.619-1.018,1-1.732,1
	s-1.375-0.381-1.732-1l-7.989-13.836H97.269c-7.178,0-12.998,5.819-12.998,12.997V946.25c0,7.178,5.82,12.997,12.998,12.997h883.787
	c7.178,0,12.998-5.819,12.998-12.997V809.783C994.054,802.605,988.233,796.786,981.056,796.786z"/>
<rect x="436.38" y="351.461" display="none" fill="#FFFFFF" width="716" height="652"/>
<g>
	<path fill="#990572" d="M1115.356,1832.225c0-6.479-5.25-11.728-11.727-11.728H872.71c-6.477,0-11.728,5.249-11.728,11.728v28.822
		c0,6.475,5.251,11.726,11.728,11.726h230.92c6.477,0,11.727-5.251,11.727-11.726V1832.225z"/>
	<g>
		<text transform="matrix(1 0 0 1 888.7402 1854.5981)" fill="#FFFFFF" font-family="'Montserrat-Bold'" font-size="24.8224">JavaScript Core</text>
	</g>
</g>
<g>
	<path fill="#64B5F6" d="M754.962,1818.133c0-6.475-5.251-11.726-11.727-11.726H361.257c-6.478,0-11.729,5.251-11.729,11.726v56.528
		c0,6.479,5.251,11.729,11.729,11.729h381.979c6.476,0,11.727-5.25,11.727-11.729V1818.133z"/>
	<g>
		<text transform="matrix(1 0 0 1 407.8418 1853.978)" fill="#FFFFFF" font-family="'Montserrat-Regular'" font-size="20.6854">JavaScript application code</text>
	</g>
</g>
<polygon fill="#2196F3" points="597.835,1197.056 597.835,1129.864 592.317,1129.864 592.317,1197.056 584.618,1197.056 
	595.075,1215.169 605.535,1197.056 "/>
<polygon fill="none" points="597.835,1197.056 597.835,1129.864 592.317,1129.864 592.317,1197.056 584.618,1197.056 
	588.938,1204.539 601.214,1204.539 605.535,1197.056 "/>
<path fill="#2196F3" d="M815.721,1165.454c0,6.095-4.941,11.034-11.032,11.034H385.464c-6.092,0-11.033-4.939-11.033-11.034v-33.096
	c0-6.092,4.941-11.031,11.033-11.031h419.225c6.091,0,11.032,4.939,11.032,11.031V1165.454z"/>
<path fill="#64B5F6" d="M691.892,1592.193c0,6.479-5.251,11.728-11.727,11.728H150.63c-6.477,0-11.728-5.249-11.728-11.728v-31.706
	c0-6.475,5.251-11.729,11.728-11.729h529.535c6.476,0,11.727,5.254,11.727,11.729V1592.193z"/>
<g>
	<text transform="matrix(1 0 0 1 167.3389 1582.2339)" fill="#FFFFFF" font-family="'Montserrat-Regular'" font-size="20.6854">Apple JavaScript Core to Native Bridge</text>
</g>
<path fill="#A5D6A7" d="M979.833,504.752H430.45v19.493h7.072h0.005c1.104,0,1.998,0.896,1.998,2c0,0.395-0.115,0.763-0.313,1.072
	l-12.278,21.267c-0.357,0.619-1.018,1-1.732,1s-1.375-0.381-1.732-1l-12.324-21.339c-0.356-0.619-0.357-1.381,0-2
	c0.357-0.619,1.018-1,1.732-1h7.074v-19.493H97.761c-7.65,0-13.854,5.838-13.854,13.048v168.855c0,7.206,6.203,13.051,13.854,13.051
	h542.885v-21.79h-7.072c-0.715,0-1.375-0.381-1.732-1s-0.357-1.381,0-2l4.479-7.758l7.843-13.582c0.357-0.619,1.018-1,1.732-1
	s1.375,0.381,1.732,1l7.843,13.582l4.479,7.758c0.357,0.619,0.357,1.381,0,2s-1.018,1-1.732,1h-7.074v21.79h328.689
	c7.65,0,13.857-5.845,13.857-13.051V517.8C993.69,510.59,987.483,504.752,979.833,504.752z"/>
<path fill="#64B5F6" d="M1029.569,1592.238c0,6.478-5.25,11.727-11.729,11.727H733.774c-6.477,0-11.727-5.249-11.727-11.727v-31.708
	c0-6.474,5.25-11.727,11.727-11.727h284.066c6.479,0,11.729,5.253,11.729,11.727V1592.238z"/>
<g>
	<text transform="matrix(1 0 0 1 765.9482 1582.2339)" fill="#FFFFFF" font-family="'Montserrat-Regular'" font-size="20.6854">JavaScript Core API</text>
</g>
<text transform="matrix(1 0 0 1 577.0586 1161.9136)" fill="#FFFFFF" font-family="'NotoSans-Bold'" font-size="27.5805">iOS</text>
<rect x="817.448" y="1744.582" fill="#BBDEFB" width="5.517" height="21.934"/>
<path fill="#FFFFFF" d="M822.965,1744.582v21.934h-5.517v-21.934H822.965 M815.448,1744.582v21.934h9.517v-21.934H815.448z"/>
<g opacity="0.8">
	<text transform="matrix(1 0 0 1 219.4141 1724.6938)" fill="#FFFFFF" font-family="'NotoSans-Bold'" font-size="19.3063">Call JS methods</text>
</g>
<polygon fill="#BBDEFB" points="817.46,1665.714 817.46,1693.373 822.976,1693.373 822.976,1665.714 830.678,1665.714 
	826.032,1657.67 814.404,1657.67 809.76,1665.714 "/>
<polygon fill="#BBDEFB" points="820.218,1647.602 814.404,1657.67 826.032,1657.67 "/>
<path fill="#1E88E5" d="M934.295,1483.554c0,6.093-4.942,11.031-11.034,11.031H644.697c-6.093,0-11.032-4.938-11.032-11.031
	v-213.751c0-6.091,4.939-11.031,11.032-11.031h278.563c6.092,0,11.034,4.94,11.034,11.031V1483.554z"/>
<text transform="matrix(1 0 0 1 704.5557 1713.1099)" opacity="0.8"><tspan x="0" y="0" fill="#FFFFFF" font-family="'NotoSans-Bold'" font-size="19.3063">Call Plain C Functions</tspan><tspan x="-23.101" y="23.168" fill="#FFFFFF" font-family="'NotoSans-Bold'" font-size="19.3063">Access Objective C objects</tspan></text>
<g>
	<g>
		<path fill="#64B5F6" d="M622.046,1454.178c-0.173,0-0.346-0.045-0.5-0.134c-0.31-0.179-0.5-0.509-0.5-0.866v-6.702h-125.49
			c-0.553,0-1-0.447-1-1v-5.515c0-0.553,0.447-1,1-1h125.49v-6.7c0-0.357,0.19-0.688,0.5-0.866c0.154-0.089,0.327-0.134,0.5-0.134
			s0.346,0.045,0.5,0.134l18.114,10.458c0.31,0.179,0.5,0.509,0.5,0.866s-0.19,0.688-0.5,0.866l-18.114,10.459
			C622.392,1454.133,622.219,1454.178,622.046,1454.178z"/>
		<path fill="#BBDEFB" d="M622.046,1432.261l18.114,10.458l-18.114,10.459v-7.702h-126.49v-5.515h126.49V1432.261 M622.046,1430.261
			c-0.346,0-0.69,0.089-1,0.268c-0.619,0.357-1,1.018-1,1.732v5.7h-124.49c-1.104,0-2,0.896-2,2v5.515c0,1.104,0.896,2,2,2h124.49
			v5.702c0,0.715,0.381,1.375,1,1.732c0.31,0.179,0.654,0.268,1,0.268s0.69-0.089,1-0.268l18.114-10.459
			c0.619-0.357,1-1.018,1-1.732s-0.381-1.375-1-1.732l-18.114-10.458C622.736,1430.35,622.392,1430.261,622.046,1430.261
			L622.046,1430.261z"/>
	</g>
	<g>
		<path fill="#64B5F6" d="M622.046,1454.178c-0.173,0-0.346-0.045-0.5-0.134c-0.31-0.179-0.5-0.509-0.5-0.866v-6.702h-125.49
			c-0.553,0-1-0.447-1-1v-5.515c0-0.553,0.447-1,1-1h125.49v-6.7c0-0.357,0.19-0.688,0.5-0.866c0.154-0.089,0.327-0.134,0.5-0.134
			s0.346,0.045,0.5,0.134l18.114,10.458c0.31,0.179,0.5,0.509,0.5,0.866s-0.19,0.688-0.5,0.866l-18.114,10.459
			C622.392,1454.133,622.219,1454.178,622.046,1454.178z"/>
		<path fill="#BBDEFB" d="M622.046,1432.261l18.114,10.458l-18.114,10.459v-7.702h-126.49v-5.515h126.49V1432.261 M622.046,1430.261
			c-0.346,0-0.69,0.089-1,0.268c-0.619,0.357-1,1.018-1,1.732v5.7h-124.49c-1.104,0-2,0.896-2,2v5.515c0,1.104,0.896,2,2,2h124.49
			v5.702c0,0.715,0.381,1.375,1,1.732c0.31,0.179,0.654,0.268,1,0.268s0.69-0.089,1-0.268l18.114-10.459
			c0.619-0.357,1-1.018,1-1.732s-0.381-1.375-1-1.732l-18.114-10.458C622.736,1430.35,622.392,1430.261,622.046,1430.261
			L622.046,1430.261z"/>
	</g>
</g>
<g>
	<g>
		<path fill="#64B5F6" d="M622.735,1324.549c-0.173,0-0.346-0.045-0.5-0.134c-0.31-0.179-0.5-0.509-0.5-0.866v-6.701h-125.49
			c-0.553,0-1-0.447-1-1v-5.517c0-0.553,0.447-1,1-1h125.49v-6.7c0-0.357,0.19-0.688,0.5-0.866c0.154-0.089,0.327-0.134,0.5-0.134
			s0.346,0.045,0.5,0.134l18.114,10.458c0.31,0.179,0.5,0.509,0.5,0.866s-0.19,0.688-0.5,0.866l-18.114,10.46
			C623.081,1324.504,622.908,1324.549,622.735,1324.549z"/>
		<path fill="#BBDEFB" d="M622.735,1302.631l18.114,10.458l-18.114,10.46v-7.701h-126.49v-5.517h126.49V1302.631 M622.735,1300.631
			c-0.346,0-0.69,0.089-1,0.268c-0.619,0.357-1,1.018-1,1.732v5.7h-124.49c-1.104,0-2,0.896-2,2v5.517c0,1.104,0.896,2,2,2h124.49
			v5.701c0,0.715,0.381,1.375,1,1.732c0.31,0.179,0.654,0.268,1,0.268s0.69-0.089,1-0.268l18.114-10.46c0.619-0.357,1-1.018,1-1.732
			s-0.381-1.375-1-1.732l-18.114-10.458C623.426,1300.72,623.081,1300.631,622.735,1300.631L622.735,1300.631z"/>
	</g>
	<g>
		<path fill="#64B5F6" d="M622.735,1324.549c-0.173,0-0.346-0.045-0.5-0.134c-0.31-0.179-0.5-0.509-0.5-0.866v-6.701h-125.49
			c-0.553,0-1-0.447-1-1v-5.517c0-0.553,0.447-1,1-1h125.49v-6.7c0-0.357,0.19-0.688,0.5-0.866c0.154-0.089,0.327-0.134,0.5-0.134
			s0.346,0.045,0.5,0.134l18.114,10.458c0.31,0.179,0.5,0.509,0.5,0.866s-0.19,0.688-0.5,0.866l-18.114,10.46
			C623.081,1324.504,622.908,1324.549,622.735,1324.549z"/>
		<path fill="#BBDEFB" d="M622.735,1302.631l18.114,10.458l-18.114,10.46v-7.701h-126.49v-5.517h126.49V1302.631 M622.735,1300.631
			c-0.346,0-0.69,0.089-1,0.268c-0.619,0.357-1,1.018-1,1.732v5.7h-124.49c-1.104,0-2,0.896-2,2v5.517c0,1.104,0.896,2,2,2h124.49
			v5.701c0,0.715,0.381,1.375,1,1.732c0.31,0.179,0.654,0.268,1,0.268s0.69-0.089,1-0.268l18.114-10.46c0.619-0.357,1-1.018,1-1.732
			s-0.381-1.375-1-1.732l-18.114-10.458C623.426,1300.72,623.081,1300.631,622.735,1300.631L622.735,1300.631z"/>
	</g>
</g>
<path fill="#43A047" d="M688.958,227.728H390.03c-7.178,0-12.998,5.819-12.998,12.997v120.221c0,7.178,5.82,12.997,12.998,12.997
	h244.408l8.641-14.963c0.357-0.619,1.018-1,1.732-1s1.375,0.381,1.732,1l8.641,14.963h33.773c7.178,0,12.996-5.818,12.996-12.997
	V240.725C701.954,233.547,696.136,227.728,688.958,227.728z"/>
<g>
	<path fill="#64B5F6" d="M580.016,1347.271c0,5.939-4.833,10.756-10.79,10.756H149.518c-5.957,0-10.79-4.816-10.79-10.756v-77.78
		c0-5.941,4.833-10.755,10.79-10.755h419.708c5.957,0,10.79,4.813,10.79,10.755V1347.271z"/>
	<g>
		<text transform="matrix(1 0 0 1 174.6504 1303.1343)"><tspan x="0" y="0" fill="#FFFFFF" font-family="'Montserrat-Regular'" font-size="20.6854">Metadata on Objective C Classes </tspan><tspan x="0" y="24.822" fill="#FFFFFF" font-family="'Montserrat-Regular'" font-size="20.6854">and plan C functions and objects</tspan></text>
	</g>
</g>
<path fill="#43A047" d="M683.202,537.189H433.513l-6.578,11.395c-0.357,0.619-1.018,1-1.732,1s-1.375-0.381-1.732-1l-6.581-11.395
	h-32.614c-7.178,0-12.998,5.819-12.998,12.997v103.975c0,7.178,5.82,12.997,12.998,12.997H636.32l7.843-13.582
	c0.357-0.619,1.018-1,1.732-1s1.375,0.381,1.732,1l7.843,13.582h27.731c7.178,0,12.996-5.819,12.996-12.997V550.186
	C696.198,543.008,690.38,537.189,683.202,537.189z"/>
<g>
	<path fill="#64B5F6" d="M580.002,1484.194c0,5.939-4.835,10.755-10.791,10.755H149.505c-5.959,0-10.791-4.815-10.791-10.755
		v-77.779c0-5.942,4.832-10.756,10.791-10.756h419.706c5.956,0,10.791,4.813,10.791,10.756V1484.194z"/>
	<text transform="matrix(1 0 0 1 301.3271 1440.2866)"><tspan x="0" y="0" fill="#FFFFFF" font-family="'Montserrat-Regular'" font-size="20.6854">Data Types</tspan><tspan x="3.651" y="24.822" fill="#FFFFFF" font-family="'Montserrat-Regular'" font-size="20.6854">Marshaller</tspan></text>
</g>
<path fill="#43A047" d="M770.704,829.368H435.993l-7.977,13.813c-0.357,0.619-1.018,1-1.732,1s-1.375-0.381-1.732-1l-7.977-13.813
	h-107.26c-7.178,0-12.998,5.819-12.998,12.997v71.483c0,7.177,5.82,12.996,12.998,12.996h461.389
	c7.178,0,12.996-5.819,12.996-12.996v-71.483C783.7,835.187,777.882,829.368,770.704,829.368z"/>
<rect x="569.203" y="1286.673" fill="none" width="90.416" height="59.085"/>
<g>
	<path fill="#64B5F6" d="M875.809,1558.992c-0.357,0-0.688-0.19-0.866-0.5l-10.46-18.112c-0.179-0.31-0.179-0.69,0-1
		s0.509-0.5,0.866-0.5h6.703l-0.002-36.002h-6.701c-0.357,0-0.688-0.19-0.866-0.5s-0.179-0.69,0-1l10.459-18.112
		c0.179-0.31,0.509-0.5,0.866-0.5s0.688,0.19,0.866,0.5l10.459,18.112c0.179,0.31,0.179,0.69,0,1s-0.509,0.5-0.866,0.5h-6.701
		v36.002h6.701c0.357,0,0.688,0.19,0.866,0.5s0.179,0.69,0,1l-10.458,18.112C876.496,1558.801,876.166,1558.992,875.809,1558.992z"
		/>
	<g>
		<path fill="#BBDEFB" d="M875.808,1483.765l10.459,18.112h-7.701v38.002h7.701l-10.458,18.112l-10.46-18.112h7.703l-0.002-38.002
			h-7.701L875.808,1483.765 M875.808,1481.765c-0.715,0-1.375,0.381-1.732,1l-10.459,18.112c-0.357,0.618-0.357,1.381,0,2
			s1.018,1,1.732,1h5.701l0.002,34.002h-5.703c-0.715,0-1.375,0.381-1.732,1s-0.357,1.382,0,2l10.461,18.112
			c0.356,0.619,1.018,1,1.731,1l0,0c0.715,0,1.375-0.381,1.731-1l10.459-18.112c0.357-0.619,0.357-1.381,0-2s-1.018-1-1.732-1
			h-5.701v-34.002h5.701c0.715,0,1.375-0.381,1.732-1s0.357-1.382,0-2l-10.459-18.112
			C877.183,1482.146,876.522,1481.765,875.808,1481.765L875.808,1481.765z"/>
	</g>
</g>
<g>
	<path fill="#64B5F6" d="M664.071,1558.992c-0.357,0-0.688-0.19-0.866-0.5l-10.46-18.112c-0.179-0.31-0.179-0.69,0-1
		s0.509-0.5,0.866-0.5h6.702l-0.001-36.002h-6.701c-0.357,0-0.688-0.19-0.866-0.5s-0.179-0.69,0-1l10.458-18.112
		c0.179-0.31,0.509-0.5,0.866-0.5s0.688,0.19,0.866,0.5l10.461,18.112c0.179,0.31,0.179,0.69,0,1s-0.509,0.5-0.866,0.5h-6.703
		v36.002h6.703c0.357,0,0.688,0.19,0.866,0.5s0.179,0.69,0,1l-10.459,18.112C664.759,1558.801,664.429,1558.992,664.071,1558.992z"
		/>
	<g>
		<path fill="#BBDEFB" d="M664.069,1483.765l10.461,18.112h-7.703v38.002h7.703l-10.459,18.112l-10.46-18.112h7.702l-0.001-38.002
			h-7.701L664.069,1483.765 M664.069,1481.765L664.069,1481.765c-0.715,0-1.375,0.381-1.732,1l-10.458,18.112
			c-0.356,0.619-0.356,1.381,0,2c0.357,0.619,1.018,1,1.732,1h5.701l0.001,34.002h-5.702c-0.715,0-1.375,0.381-1.732,1
			c-0.356,0.619-0.356,1.382,0.001,2l10.459,18.112c0.357,0.619,1.018,1,1.732,1l0,0c0.715,0,1.375-0.381,1.732-1l10.459-18.112
			c0.357-0.618,0.357-1.381,0-2s-1.018-1-1.732-1h-5.703v-34.002h5.703c0.715,0,1.375-0.381,1.732-1s0.356-1.382,0-2l-10.461-18.112
			C665.444,1482.146,664.784,1481.765,664.069,1481.765L664.069,1481.765z"/>
	</g>
</g>
<g>
	
		<text transform="matrix(0.9581 0 0 1 703.8359 1386.3452)" fill="#FFFFFF" font-family="'Montserrat-Regular'" font-size="23.4434">Call Dispatcher</text>
</g>
<path fill="#43A047" d="M337.937,653.929c0,7.177-5.818,12.996-12.996,12.996H129.987c-7.178,0-12.998-5.819-12.998-12.996V549.954
	c0-7.178,5.82-12.997,12.998-12.997H324.94c7.178,0,12.996,5.819,12.996,12.997V653.929z"/>
<path fill="#43A047" d="M907.481,580.901c0,7.178-5.818,12.997-12.996,12.997H741.772c-7.178,0-12.998-5.819-12.998-12.997v-30.868
	c0-7.177,5.82-12.997,12.998-12.997h152.713c7.178,0,12.996,5.819,12.996,12.997V580.901z"/>
<path fill="#43A047" d="M907.989,653.965c0,7.178-5.818,12.997-12.996,12.997H742.28c-7.178,0-12.998-5.819-12.998-12.997v-30.867
	c0-7.178,5.82-12.997,12.998-12.997h152.713c7.178,0,12.996,5.819,12.996,12.997V653.965z"/>
<g>
	<text transform="matrix(1 0 0 1 753.5205 574.5889)" fill="#FFFFFF" font-family="'Montserrat-Regular'" font-size="24.3692">Metadata</text>
</g>
<g>
	<text transform="matrix(1 0 0 1 753.5205 648.5962)" fill="#FFFFFF" font-family="'Montserrat-Regular'" font-size="24.3692">Caches*</text>
</g>
<g>
	<text transform="matrix(1 0 0 1 434.9033 600.9326)"><tspan x="0" y="0" fill="#FFFFFF" font-family="'Montserrat-Regular'" font-size="24.3692">Java Application</tspan><tspan x="0" y="29.243" fill="#FFFFFF" font-family="'Montserrat-Regular'" font-size="24.3692">code Dispatcher</tspan></text>
</g>
<g>
	<text transform="matrix(1 0 0 1 162.5303 596.6011)"><tspan x="0" y="0" fill="#FFFFFF" font-family="'Montserrat-Regular'" font-size="24.3692">Argument</tspan><tspan x="0" y="29.243" fill="#FFFFFF" font-family="'Montserrat-Regular'" font-size="24.3692">Converter</tspan></text>
</g>
<g>
	<text transform="matrix(1 0 0 1 364.6631 887.0347)" fill="#FFFFFF" font-family="'Montserrat-Regular'" font-size="24.3692">JavaScript Application code </text>
</g>
<g>
	<path fill="#990572" d="M1116.093,901.357c0,7.178-5.82,12.997-12.998,12.997H953.632c-7.178,0-12.998-5.819-12.998-12.997v-38.99
		c0-7.178,5.82-12.997,12.998-12.997h149.463c7.178,0,12.998,5.819,12.998,12.997V901.357z"/>
	<g>
		<text transform="matrix(1 0 0 1 1008.9619 892.2515)" fill="#FFFFFF" font-family="'Montserrat-Bold'" font-size="29.243">V8</text>
	</g>
</g>
<g>
	<polygon fill="#43A047" points="221.72,788.283 221.72,665.26 215.222,665.26 215.222,788.283 206.149,788.283 218.472,809.622 
		230.792,788.283 	"/>
</g>
<path fill="#43A047" d="M312.019,361.425c0,7.178-5.82,12.997-12.998,12.997H130.062c-7.178,0-12.996-5.819-12.996-12.997v-38.991
	c0-7.178,5.818-12.997,12.996-12.997h168.959c7.178,0,12.998,5.818,12.998,12.997V361.425z"/>
<g>
	<path fill="#990572" d="M1116.093,642.4c0,7.177-5.82,12.997-12.998,12.997H953.632c-7.178,0-12.998-5.819-12.998-12.997v-77.981
		c0-7.178,5.82-12.997,12.998-12.997h149.463c7.178,0,12.998,5.819,12.998,12.997V642.4z"/>
	<g>
		<text transform="matrix(1 0 0 1 975.5674 594.6284)"><tspan x="0" y="0" fill="#FFFFFF" font-family="'Montserrat-Bold'" font-size="29.243">Native </tspan><tspan x="8.51" y="35.092" fill="#FFFFFF" font-family="'Montserrat-Bold'" font-size="29.243">Script</tspan></text>
	</g>
</g>
<polygon fill="#43A047" points="558.624,185.755 558.624,78.979 552.126,78.979 552.126,185.755 543.052,185.755 555.374,207.094 
	567.696,185.755 "/>
<polygon fill="none" points="558.624,185.755 558.624,78.979 552.126,78.979 552.126,185.755 543.052,185.755 548.772,195.662 
	561.976,195.662 567.696,185.755 "/>
<g>
	<text transform="matrix(1 0 0 1 167.4873 350.8584)" fill="#FFFFFF" font-family="'Montserrat-Regular'" font-size="24.3692">Helpers</text>
</g>
<g>
	<path fill="#43A047" d="M844.503,84.597c0,7.179-5.818,12.997-12.996,12.997H305.132c-7.178,0-12.996-5.818-12.996-12.997v-38.99
		c0-7.178,5.818-12.997,12.996-12.997h526.375c7.178,0,12.996,5.819,12.996,12.997V84.597z"/>
	<g>
		<text transform="matrix(1 0 0 1 497.7607 74.0317)" fill="#FFFFFF" font-family="'Montserrat-Bold'" font-size="24.3692">Android OS</text>
	</g>
</g>
<g>
	<path fill="#990572" d="M1116.093,319.917c0,7.177-5.82,12.997-12.998,12.997H953.632c-7.178,0-12.998-5.819-12.998-12.997v-38.991
		c0-7.178,5.82-12.997,12.998-12.997h149.463c7.178,0,12.998,5.819,12.998,12.997V319.917z"/>
	<g>
		<text transform="matrix(1 0 0 1 982.6279 310.8115)" fill="#FFFFFF" font-family="'Montserrat-Bold'" font-size="29.243">Dalvik</text>
	</g>
</g>
<rect x="694.53" y="530.705" fill="none" width="61.268" height="69.607"/>
<g opacity="0.8">
	<text transform="matrix(1 0 0 1 96.7803 986.5229)" fill="#FFFFFF" font-family="'Montserrat-Regular'" font-size="11.3723">*(e.g. method resolution cashe)</text>
</g>
<line fill="#DBDBDB" stroke="#1B5E20" stroke-miterlimit="10" x1="98.405" y1="972.443" x2="211.585" y2="972.443"/>
<g>
	<path fill="#43A047" d="M213.896,321.715c-0.357,0-0.688-0.19-0.866-0.5l-12.322-21.339c-0.179-0.31-0.179-0.69,0-1
		s0.509-0.5,0.866-0.5h8.072v-68.411c0-0.552,0.447-1,1-1h6.5c0.553,0,1,0.448,1,1v68.411h8.07c0.357,0,0.688,0.19,0.866,0.5
		s0.179,0.69,0,1l-12.32,21.339C214.583,321.524,214.253,321.715,213.896,321.715z"/>
	<path fill="#A5D6A7" d="M217.146,229.965v69.411h9.07l-12.32,21.339l-12.322-21.339h9.072v-69.411H217.146 M226.216,299.376h0.005
		 M217.146,227.965h-6.5c-1.104,0-2,0.896-2,2v67.411h-7.072c-0.715,0-1.375,0.381-1.732,1s-0.356,1.381,0,2l12.322,21.339
		c0.357,0.619,1.018,1,1.732,1l0,0c0.715,0,1.375-0.381,1.732-1l12.278-21.266c0.197-0.31,0.312-0.678,0.312-1.073
		c0-1.104-0.893-2-1.997-2h-0.005h-7.07v-67.411C219.146,228.861,218.25,227.965,217.146,227.965L217.146,227.965z"/>
</g>
<path fill="#43A047" d="M311.735,280.302c0,7.178-5.818,12.997-12.996,12.997H129.778c-7.176,0-12.996-5.819-12.996-12.997v-38.991
	c0-7.178,5.82-12.997,12.996-12.997h168.961c7.178,0,12.996,5.818,12.996,12.997V280.302z"/>
<g>
	<text transform="matrix(1 0 0 1 160.915 269.7354)" fill="#FFFFFF" font-family="'Montserrat-Regular'" font-size="24.3692">Bindings</text>
</g>
<rect x="115.876" y="287.79" fill="none" width="69.605" height="61.267"/>
<g>
	<text transform="matrix(1 0 0 1 508.167 295.1431)"><tspan x="0" y="0" fill="#FFFFFF" font-family="'Montserrat-Regular'" font-size="24.3692">Java </tspan><tspan x="-73.205" y="29.243" fill="#FFFFFF" font-family="'Montserrat-Regular'" font-size="24.3692">Application code</tspan></text>
</g>
<g>
	<path fill="#43A047" d="M370.167,355.88c-0.173,0-0.346-0.044-0.5-0.134c-0.31-0.179-0.5-0.509-0.5-0.866v-8.074l-49.822,0.001
		v8.072c0,0.357-0.19,0.688-0.5,0.866c-0.154,0.089-0.327,0.134-0.5,0.134s-0.346-0.044-0.5-0.134l-21.338-12.321
		c-0.31-0.179-0.5-0.509-0.5-0.866s0.19-0.688,0.5-0.866l21.338-12.322c0.154-0.089,0.327-0.134,0.5-0.134s0.346,0.044,0.5,0.134
		c0.31,0.179,0.5,0.509,0.5,0.866v8.073l49.822-0.001v-8.072c0-0.357,0.19-0.688,0.5-0.866c0.154-0.089,0.327-0.134,0.5-0.134
		s0.346,0.044,0.5,0.134l21.34,12.321c0.31,0.179,0.5,0.509,0.5,0.866s-0.19,0.688-0.5,0.866l-21.34,12.323
		C370.513,355.836,370.34,355.88,370.167,355.88z"/>
	<path fill="#A5D6A7" d="M318.345,330.236v9.073h7.844v-0.001h43.979v-9.072l21.34,12.321l-21.34,12.323v-9.074h-7.844v0.001
		h-43.979v9.072l-21.338-12.321L318.345,330.236 M318.345,328.236c-0.346,0-0.69,0.089-1,0.268l-21.338,12.322
		c-0.619,0.357-1,1.018-1,1.732s0.381,1.375,1,1.732l21.338,12.321c0.31,0.179,0.654,0.268,1,0.268s0.69-0.089,1-0.268
		c0.619-0.357,1-1.018,1-1.732v-7.072h41.979l5.844,0v7.073c0,0.714,0.381,1.375,1,1.732c0.31,0.179,0.654,0.268,1,0.268
		s0.69-0.089,1-0.268l21.34-12.323c0.619-0.357,1-1.018,1-1.732s-0.381-1.375-1-1.732l-21.34-12.321
		c-0.31-0.179-0.654-0.268-1-0.268s-0.69,0.089-1,0.268c-0.619,0.357-1,1.018-1,1.732v7.072h-41.979l-5.844,0.001v-7.073
		c0-0.714-0.381-1.375-1-1.732C319.035,328.325,318.69,328.236,318.345,328.236L318.345,328.236z"/>
</g>
<g>
	<path fill="#43A047" d="M370.167,278.711c-0.173,0-0.346-0.044-0.5-0.134c-0.31-0.179-0.5-0.509-0.5-0.866v-8.073l-49.822,0.001
		v8.072c0,0.357-0.19,0.688-0.5,0.866c-0.154,0.089-0.327,0.134-0.5,0.134s-0.346-0.044-0.5-0.134l-21.338-12.321
		c-0.31-0.179-0.5-0.509-0.5-0.866s0.19-0.688,0.5-0.866l21.338-12.322c0.154-0.089,0.327-0.134,0.5-0.134s0.346,0.044,0.5,0.134
		c0.31,0.179,0.5,0.509,0.5,0.866v8.073l49.822-0.001v-8.072c0-0.357,0.19-0.688,0.5-0.866c0.154-0.089,0.327-0.134,0.5-0.134
		s0.346,0.044,0.5,0.134l21.34,12.321c0.31,0.179,0.5,0.509,0.5,0.866s-0.19,0.688-0.5,0.866l-21.34,12.322
		C370.513,278.667,370.34,278.711,370.167,278.711z"/>
	<path fill="#A5D6A7" d="M318.345,253.067v9.073h7.844v-0.001h43.979v-9.072l21.34,12.321l-21.34,12.322v-9.073h-7.844v0.001
		h-43.979v9.072l-21.338-12.321L318.345,253.067 M318.345,251.067c-0.346,0-0.69,0.089-1,0.268l-21.338,12.322
		c-0.619,0.357-1,1.018-1,1.732s0.381,1.375,1,1.732l21.338,12.321c0.31,0.179,0.654,0.268,1,0.268s0.69-0.089,1-0.268
		c0.619-0.357,1-1.018,1-1.732v-7.072h41.979l5.844,0v7.073c0,0.714,0.381,1.375,1,1.732c0.31,0.179,0.654,0.268,1,0.268
		s0.69-0.089,1-0.268l21.34-12.322c0.619-0.357,1-1.018,1-1.732s-0.381-1.375-1-1.732l-21.34-12.321
		c-0.31-0.179-0.654-0.268-1-0.268s-0.69,0.089-1,0.268c-0.619,0.357-1,1.018-1,1.732v7.072h-41.979l-5.844,0.001v-7.073
		c0-0.714-0.381-1.375-1-1.732C319.035,251.156,318.69,251.067,318.345,251.067L318.345,251.067z"/>
</g>
<g>
	<defs>
		<rect id="SVGID_1_" x="696.282" y="537.849" width="49.551" height="66.609"/>
	</defs>
	<clipPath id="SVGID_2_">
		<use xlink:href="#SVGID_1_"  overflow="visible"/>
	</clipPath>
	<g clip-path="url(#SVGID_2_)">
		<path fill="#43A047" d="M717.489,578.939c-0.173,0-0.346-0.044-0.5-0.134c-0.31-0.179-0.5-0.509-0.5-0.866v-8.072H568.472
			c-0.553,0-1-0.448-1-1v-6.499c0-0.552,0.447-1,1-1h148.018v-8.072c0-0.357,0.19-0.688,0.5-0.866
			c0.154-0.089,0.327-0.134,0.5-0.134s0.346,0.044,0.5,0.134l21.338,12.321c0.31,0.179,0.5,0.509,0.5,0.866s-0.19,0.688-0.5,0.866
			l-21.338,12.321C717.835,578.894,717.662,578.939,717.489,578.939z"/>
		<path fill="#A5D6A7" d="M717.489,553.297l21.338,12.321l-21.338,12.321v-9.072H568.472v-6.499h149.018V553.297 M717.489,551.297
			c-0.346,0-0.69,0.089-1,0.268c-0.619,0.357-1,1.018-1,1.732v7.072H568.472c-1.104,0-2,0.896-2,2v6.499c0,1.104,0.896,2,2,2
			h147.018v7.072c0,0.714,0.381,1.375,1,1.732c0.31,0.179,0.654,0.268,1,0.268s0.69-0.089,1-0.268l21.338-12.321
			c0.619-0.357,1-1.018,1-1.732s-0.381-1.375-1-1.732l-21.338-12.321C718.18,551.386,717.835,551.297,717.489,551.297
			L717.489,551.297z"/>
	</g>
</g>
<g>
	<defs>
		<rect id="SVGID_3_" x="696.282" y="611.769" width="49.551" height="66.609"/>
	</defs>
	<clipPath id="SVGID_4_">
		<use xlink:href="#SVGID_3_"  overflow="visible"/>
	</clipPath>
	<g clip-path="url(#SVGID_4_)">
		<path fill="#43A047" d="M717.489,652.859c-0.173,0-0.346-0.044-0.5-0.134c-0.31-0.179-0.5-0.509-0.5-0.866v-8.072H568.472
			c-0.553,0-1-0.448-1-1v-6.498c0-0.552,0.447-1,1-1h148.018v-8.072c0-0.357,0.19-0.688,0.5-0.866
			c0.154-0.089,0.327-0.134,0.5-0.134s0.346,0.044,0.5,0.134l21.338,12.321c0.31,0.179,0.5,0.509,0.5,0.866s-0.19,0.688-0.5,0.866
			l-21.338,12.321C717.835,652.814,717.662,652.859,717.489,652.859z"/>
		<path fill="#A5D6A7" d="M717.489,627.217l21.338,12.321l-21.338,12.321v-9.072H568.472v-6.498h149.018V627.217 M717.489,625.217
			c-0.346,0-0.69,0.089-1,0.268c-0.619,0.357-1,1.018-1,1.732v7.072H568.472c-1.104,0-2,0.896-2,2v6.498c0,1.104,0.896,2,2,2
			h147.018v7.072c0,0.714,0.381,1.375,1,1.732c0.31,0.179,0.654,0.268,1,0.268s0.69-0.089,1-0.268l21.338-12.321
			c0.619-0.357,1-1.018,1-1.732s-0.381-1.375-1-1.732l-21.338-12.321C718.18,625.306,717.835,625.217,717.489,625.217
			L717.489,625.217z"/>
	</g>
</g>
<polygon fill="#43A047" points="221.72,788.283 221.72,699.376 215.222,699.376 215.222,788.283 206.149,788.283 218.472,809.622 
	230.792,788.283 "/>
<polygon fill="none" points="221.72,788.283 221.72,699.376 215.222,699.376 215.222,788.283 206.149,788.283 211.06,796.786 
	225.883,796.786 230.792,788.283 "/>
<polygon fill="none" points="185.616,699.632 246.876,699.767 246.671,817.891 185.749,817.891 "/>
<g>
	<polygon fill="#43A047" points="215.101,415.436 215.101,538.461 221.601,538.461 221.601,415.436 230.673,415.436 
		218.351,394.097 206.03,415.436 	"/>
</g>
<polygon fill="#43A047" points="215.101,415.436 215.101,504.344 221.601,504.344 221.601,415.436 230.673,415.436 218.351,394.097 
	206.03,415.436 "/>
<polygon fill="none" points="215.101,415.436 215.101,504.344 221.601,504.344 221.601,415.436 230.673,415.436 225.722,406.861 
	210.98,406.861 206.03,415.436 "/>
<polygon fill="none" points="251.206,504.087 189.946,503.954 190.149,385.828 251.073,385.828 "/>
<polygon fill="#43A047" points="429.534,820.842 429.534,763.395 423.036,763.395 423.036,820.842 413.962,820.842 426.284,842.181 
	438.606,820.842 "/>
<polygon fill="none" points="429.534,820.842 429.534,731.936 423.036,731.936 423.036,820.842 413.962,820.842 418.885,829.368 
	433.684,829.368 438.606,820.842 "/>
<polygon fill="#43A047" points="426.284,842.181 433.684,829.368 418.885,829.368 "/>
<rect x="423.036" y="731.936" fill="none" width="6.498" height="64.85"/>
<polygon fill="#43A047" points="649.144,675.916 658.218,675.916 645.896,654.576 633.573,675.916 642.646,675.916 642.646,734.042 
	649.144,734.042 "/>
<polygon fill="none" points="642.646,675.916 642.646,734.042 649.144,734.042 649.144,675.916 658.218,675.916 653.161,667.158 
	638.63,667.158 633.573,675.916 "/>
<polygon fill="#43A047" points="645.896,654.576 638.63,667.158 653.161,667.158 "/>
<rect x="642.646" y="699.706" fill="none" width="6.498" height="34.336"/>
<g>
	<rect x="423.036" y="665.327" fill="#43A047" width="6.498" height="70.752"/>
</g>
<polygon fill="#43A047" points="641.562,381.319 641.562,439.225 648.06,439.225 648.06,381.319 657.134,381.319 644.812,359.98 
	632.489,381.319 "/>
<polygon fill="none" points="641.562,381.319 641.562,470.225 648.06,470.225 648.06,381.319 657.134,381.319 652.874,373.943 
	636.749,373.943 632.489,381.319 "/>
<polygon fill="#43A047" points="644.812,359.98 636.749,373.943 652.874,373.943 "/>
<rect x="641.562" y="406.861" fill="none" width="6.498" height="63.364"/>
<polygon fill="none" points="677.667,469.97 616.528,470.71 616.61,351.711 677.534,351.711 "/>
<polygon fill="none" points="648.06,430.895 648.06,543.332 641.562,543.332 641.562,430.895 611.126,430.895 611.126,551.521 
	676.517,551.521 676.517,430.895 "/>
<g>
	<rect x="641.562" y="469.895" fill="#43A047" width="6.498" height="73.437"/>
</g>
<polygon fill="#43A047" points="428.45,526.245 428.45,469.339 421.952,469.339 421.952,526.245 412.878,526.245 425.202,547.583 
	437.522,526.245 "/>
<rect x="421.952" y="469.339" fill="none" width="6.498" height="35.413"/>
<polygon fill="#43A047" points="431.204,537.189 419.198,537.189 425.202,547.583 "/>
<polygon fill="none" points="392.347,437.595 453.485,436.854 453.401,555.853 392.479,555.853 "/>
<text transform="matrix(1 0 0 1 85.8076 142.3921)" opacity="0.8"><tspan x="0" y="0" fill="#FFFFFF" font-family="'Montserrat-Regular'" font-size="19.4953">Blidings Create Java classes that extends</tspan><tspan x="0" y="23.395" fill="#FFFFFF" font-family="'Montserrat-Regular'" font-size="19.4953">the available classes and add our own code</tspan></text>
<g opacity="0.8">
	<text transform="matrix(1 0 0 1 757.4189 154.7383)" fill="#FFFFFF" font-family="'Montserrat-Regular'" font-size="19.4953">The OS starts the Dalvik</text>
</g>
<text transform="matrix(1 0 0 1 570.7744 756.9028)" opacity="0.8" fill="#FFFFFF" font-family="'Montserrat-Regular'" font-size="19.4953">Access Java objects</text>
<path fill="none" d="M393.495,362.541v120.627h65.391V362.541H393.495z M437.737,469.026h-24.369v-31.543h24.369V469.026z"/>
<g>
	<rect x="421.952" y="370.73" fill="#43A047" width="6.498" height="66.752"/>
</g>
<text transform="matrix(1 0 0 1 366.9229 756.9038)" opacity="0.8" fill="#FFFFFF" font-family="'Montserrat-Regular'" font-size="19.4953">Call JS methods</text>
<text transform="matrix(1 0 0 1 569.6904 462.3071)" opacity="0.8" fill="#FFFFFF" font-family="'Montserrat-Regular'" font-size="19.4953">Access Java objects</text>
<text transform="matrix(1 0 0 1 365.8408 462.3071)" opacity="0.8" fill="#FFFFFF" font-family="'Montserrat-Regular'" font-size="19.4953">Call JS methods</text>
<path fill="#990572" d="M1115.356,1408.355c0,6.475-5.25,11.727-11.727,11.727H977.483c-6.475,0-11.727-5.252-11.727-11.727v-65.21
	c0-6.475,5.252-11.726,11.727-11.726h126.146c6.477,0,11.727,5.251,11.727,11.726V1408.355z"/>
<text transform="matrix(1 0 0 1 994.9922 1368.2974)"><tspan x="0" y="0" fill="#FFFFFF" font-family="'Montserrat-Bold'" font-size="24.8224">Native</tspan><tspan x="3.947" y="29.787" fill="#FFFFFF" font-family="'Montserrat-Bold'" font-size="24.8224">Script</tspan></text>
<rect x="285.474" y="1657.657" fill="#BBDEFB" width="5.517" height="49.768"/>
<polygon fill="#BBDEFB" points="285.463,1757.817 277.761,1757.817 288.221,1775.929 298.679,1757.817 290.979,1757.817 
	290.979,1730.159 285.463,1730.159 "/>
<polygon fill="none" points="290.979,1757.817 290.979,1730.159 285.463,1730.159 285.463,1757.817 277.761,1757.817 
	282.779,1766.507 293.661,1766.507 298.679,1757.817 "/>
<polygon fill="#BBDEFB" points="288.221,1775.929 293.661,1766.507 282.779,1766.507 "/>
<g>
	<rect x="642.646" y="763.916" fill="#43A047" width="6.498" height="74.014"/>
</g>
</svg>
