<?xml version="1.0" encoding="utf-8"?>
<!-- Generator: Adobe Illustrator 16.0.0, SVG Export Plug-In . SVG Version: 6.00 Build 0)  -->
<!DOCTYPE svg PUBLIC "-//W3C//DTD SVG 1.1//EN" "http://www.w3.org/Graphics/SVG/1.1/DTD/svg11.dtd">
<svg version="1.1" id="Шар_1" xmlns="http://www.w3.org/2000/svg" xmlns:xlink="http://www.w3.org/1999/xlink" x="0px" y="0px"
	 width="1200px" height="1000px" viewBox="0 0 1200 1000" enable-background="new 0 0 1200 1000" xml:space="preserve">
<path fill="#BBDEFB" d="M1050.685,747.344H295.787l-6.018,10.422c-0.357,0.619-1.018,1-1.732,1s-1.375-0.381-1.732-1l-6.019-10.422
	H96.201c-6.594,0-11.938,5.341-11.938,11.935l-0.239,136.433c0,6.594,5.345,11.937,11.937,11.937h954.484
	c6.593,0,11.938-5.343,11.938-11.937l0.239-136.433C1062.621,752.685,1057.276,747.344,1050.685,747.344z"/>
<path fill="#BBDEFB" d="M1065.651,197.622c0-6.762-5.359-12.247-11.969-12.247H603.341l-6.717,11.631c-0.357,0.619-1.018,1-1.732,1
	s-1.375-0.381-1.732-1l-6.715-11.631H96.788c-6.607,0-11.968,5.485-11.968,12.247l0.006,428.636c0,6.764,5.358,12.249,11.968,12.249
	h715.117l6.391-11.068c0.357-0.619,1.018-1,1.732-1s1.375,0.381,1.732,1l6.392,11.068h225.53c6.609,0,11.969-5.485,11.969-12.249
	L1065.651,197.622z"/>
<path fill="#A5D6A7" d="M980.009-823.501H564.102l-7.179,12.432c-0.357,0.619-1.018,1-1.732,1s-1.375-0.381-1.732-1l-7.179-12.432
	H97.948c-7.656,0-13.861,6.393-13.861,14.28v182.639c0,7.887,6.205,14.28,13.861,14.28h110.539l7.947-13.765
	c0.357-0.619,1.018-1,1.732-1s1.375,0.381,1.732,1l7.948,13.765h411.53v-23.542h-7.072c-0.715,0-1.375-0.381-1.732-1
	c-0.357-0.619-0.357-1.381,0-2l3.682-6.376l8.641-14.963c0.357-0.619,1.018-1,1.732-1s1.375,0.381,1.732,1l8.641,14.963l3.682,6.376
	c0.357,0.619,0.357,1.381,0,2c-0.357,0.619-1.018,1-1.732,1h-7.074v23.542h330.133c7.654,0,13.861-6.393,13.861-14.28v-182.639
	C993.87-817.109,987.663-823.501,980.009-823.501z"/>
<path fill="#A5D6A7" d="M980.872-222.378H431.351v22.057h7.072h0.005c1.104,0,1.998,0.896,1.998,2c0,0.395-0.115,0.763-0.313,1.072
	l-4.304,7.453l-7.977,13.813c-0.357,0.619-1.018,1-1.732,1s-1.375-0.381-1.732-1l-7.977-13.813l-4.346-7.525
	c-0.357-0.618-0.357-1.381,0-2s1.018-1,1.732-1h7.074v-22.057H228.009l-7.988,13.836c-0.357,0.619-1.018,1-1.732,1
	s-1.375-0.381-1.732-1l-7.989-13.836H97.085c-7.178,0-12.998,5.819-12.998,12.997v136.467c0,7.178,5.82,12.997,12.998,12.997
	h883.787c7.178,0,12.998-5.819,12.998-12.997v-136.467C993.87-216.559,988.05-222.378,980.872-222.378z"/>
<rect x="436.196" y="-667.703" display="none" fill="#FFFFFF" width="716" height="652"/>
<g>
	<path fill="#990572" d="M1115.173,813.062c0-6.479-5.25-11.728-11.727-11.728h-230.92c-6.477,0-11.728,5.249-11.728,11.728v28.822
		c0,6.475,5.251,11.726,11.728,11.726h230.92c6.477,0,11.727-5.251,11.727-11.726V813.062z"/>
	<g>
		<text transform="matrix(1 0 0 1 888.5566 835.4346)" fill="#FFFFFF" font-family="'Montserrat-Bold'" font-size="24.8224">JavaScript Core</text>
	</g>
</g>
<g>
	<path fill="#64B5F6" d="M754.778,798.97c0-6.475-5.251-11.726-11.727-11.726H361.073c-6.478,0-11.729,5.251-11.729,11.726v56.528
		c0,6.479,5.251,11.729,11.729,11.729h381.979c6.476,0,11.727-5.25,11.727-11.729V798.97z"/>
	<g>
		<text transform="matrix(1 0 0 1 407.6582 834.8145)" fill="#FFFFFF" font-family="'Montserrat-Regular'" font-size="20.6854">JavaScript application code</text>
	</g>
</g>
<polygon fill="#2196F3" points="597.651,177.893 597.651,110.7 592.134,110.7 592.134,177.893 584.435,177.893 594.892,196.006 
	605.352,177.893 "/>
<polygon fill="none" points="597.651,177.893 597.651,110.7 592.134,110.7 592.134,177.893 584.435,177.893 588.754,185.375 
	601.03,185.375 605.352,177.893 "/>
<path fill="#2196F3" d="M815.537,146.29c0,6.095-4.941,11.034-11.032,11.034H385.28c-6.092,0-11.033-4.939-11.033-11.034v-33.096
	c0-6.092,4.941-11.031,11.033-11.031h419.225c6.091,0,11.032,4.939,11.032,11.031V146.29z"/>
<path fill="#64B5F6" d="M691.708,573.029c0,6.479-5.251,11.728-11.727,11.728H150.446c-6.477,0-11.728-5.249-11.728-11.728v-31.706
	c0-6.475,5.251-11.729,11.728-11.729h529.535c6.476,0,11.727,5.254,11.727,11.729V573.029z"/>
<g>
	<text transform="matrix(1 0 0 1 167.1553 563.0703)" fill="#FFFFFF" font-family="'Montserrat-Regular'" font-size="20.6854">Apple JavaScript Core to Native Bridge</text>
</g>
<path fill="#A5D6A7" d="M979.649-514.412H430.267v19.493h7.072h0.005c1.104,0,1.998,0.896,1.998,2c0,0.395-0.115,0.763-0.313,1.072
	l-12.278,21.267c-0.357,0.619-1.018,1-1.732,1s-1.375-0.381-1.732-1l-12.324-21.339c-0.356-0.619-0.357-1.381,0-2
	c0.357-0.619,1.018-1,1.732-1h7.074v-19.493H97.577c-7.65,0-13.854,5.838-13.854,13.048v168.855c0,7.206,6.203,13.051,13.854,13.051
	h542.885v-21.79h-7.072c-0.715,0-1.375-0.381-1.732-1s-0.357-1.381,0-2l4.479-7.758l7.843-13.582c0.357-0.619,1.018-1,1.732-1
	s1.375,0.381,1.732,1l7.843,13.582l4.479,7.758c0.357,0.619,0.357,1.381,0,2s-1.018,1-1.732,1h-7.074v21.79h328.689
	c7.65,0,13.857-5.845,13.857-13.051v-168.855C993.507-508.573,987.3-514.412,979.649-514.412z"/>
<path fill="#64B5F6" d="M1029.386,573.074c0,6.478-5.25,11.727-11.729,11.727H733.591c-6.477,0-11.727-5.249-11.727-11.727v-31.708
	c0-6.474,5.25-11.727,11.727-11.727h284.066c6.479,0,11.729,5.253,11.729,11.727V573.074z"/>
<g>
	<text transform="matrix(1 0 0 1 765.7646 563.0703)" fill="#FFFFFF" font-family="'Montserrat-Regular'" font-size="20.6854">JavaScript Core API</text>
</g>
<text transform="matrix(1 0 0 1 576.875 142.75)" fill="#FFFFFF" font-family="'NotoSans-Bold'" font-size="27.5805">iOS</text>
<rect x="817.265" y="725.418" fill="#BBDEFB" width="5.517" height="21.934"/>
<path fill="#FFFFFF" d="M822.781,725.418v21.934h-5.517v-21.934H822.781 M815.265,725.418v21.934h9.517v-21.934H815.265z"/>
<g opacity="0.8">
	<text transform="matrix(1 0 0 1 219.2305 705.5303)" fill="#FFFFFF" font-family="'NotoSans-Bold'" font-size="19.3063">Call JS methods</text>
</g>
<polygon fill="#BBDEFB" points="817.276,646.551 817.276,674.209 822.792,674.209 822.792,646.551 830.494,646.551 825.849,638.507 
	814.221,638.507 809.576,646.551 "/>
<polygon fill="#BBDEFB" points="820.034,628.438 814.221,638.507 825.849,638.507 "/>
<path fill="#1E88E5" d="M934.111,464.391c0,6.093-4.942,11.031-11.034,11.031H644.514c-6.093,0-11.032-4.938-11.032-11.031V250.64
	c0-6.091,4.939-11.031,11.032-11.031h278.563c6.092,0,11.034,4.94,11.034,11.031V464.391z"/>
<text transform="matrix(1 0 0 1 704.3721 693.9463)" opacity="0.8"><tspan x="0" y="0" fill="#FFFFFF" font-family="'NotoSans-Bold'" font-size="19.3063">Call Plain C Functions</tspan><tspan x="-23.101" y="23.168" fill="#FFFFFF" font-family="'NotoSans-Bold'" font-size="19.3063">Access Objective C objects</tspan></text>
<g>
	<g>
		<path fill="#64B5F6" d="M621.862,435.015c-0.173,0-0.346-0.045-0.5-0.134c-0.31-0.179-0.5-0.509-0.5-0.866v-6.702h-125.49
			c-0.553,0-1-0.447-1-1v-5.515c0-0.553,0.447-1,1-1h125.49v-6.7c0-0.357,0.19-0.688,0.5-0.866c0.154-0.089,0.327-0.134,0.5-0.134
			s0.346,0.045,0.5,0.134l18.114,10.458c0.31,0.179,0.5,0.509,0.5,0.866s-0.19,0.688-0.5,0.866l-18.114,10.459
			C622.208,434.97,622.035,435.015,621.862,435.015z"/>
		<path fill="#BBDEFB" d="M621.862,413.098l18.114,10.458l-18.114,10.459v-7.702h-126.49v-5.515h126.49V413.098 M621.862,411.098
			c-0.346,0-0.69,0.089-1,0.268c-0.619,0.357-1,1.018-1,1.732v5.7h-124.49c-1.104,0-2,0.896-2,2v5.515c0,1.104,0.896,2,2,2h124.49
			v5.702c0,0.715,0.381,1.375,1,1.732c0.31,0.179,0.654,0.268,1,0.268s0.69-0.089,1-0.268l18.114-10.459
			c0.619-0.357,1-1.018,1-1.732s-0.381-1.375-1-1.732l-18.114-10.458C622.553,411.187,622.208,411.098,621.862,411.098
			L621.862,411.098z"/>
	</g>
	<g>
		<path fill="#64B5F6" d="M621.862,435.015c-0.173,0-0.346-0.045-0.5-0.134c-0.31-0.179-0.5-0.509-0.5-0.866v-6.702h-125.49
			c-0.553,0-1-0.447-1-1v-5.515c0-0.553,0.447-1,1-1h125.49v-6.7c0-0.357,0.19-0.688,0.5-0.866c0.154-0.089,0.327-0.134,0.5-0.134
			s0.346,0.045,0.5,0.134l18.114,10.458c0.31,0.179,0.5,0.509,0.5,0.866s-0.19,0.688-0.5,0.866l-18.114,10.459
			C622.208,434.97,622.035,435.015,621.862,435.015z"/>
		<path fill="#BBDEFB" d="M621.862,413.098l18.114,10.458l-18.114,10.459v-7.702h-126.49v-5.515h126.49V413.098 M621.862,411.098
			c-0.346,0-0.69,0.089-1,0.268c-0.619,0.357-1,1.018-1,1.732v5.7h-124.49c-1.104,0-2,0.896-2,2v5.515c0,1.104,0.896,2,2,2h124.49
			v5.702c0,0.715,0.381,1.375,1,1.732c0.31,0.179,0.654,0.268,1,0.268s0.69-0.089,1-0.268l18.114-10.459
			c0.619-0.357,1-1.018,1-1.732s-0.381-1.375-1-1.732l-18.114-10.458C622.553,411.187,622.208,411.098,621.862,411.098
			L621.862,411.098z"/>
	</g>
</g>
<g>
	<g>
		<path fill="#64B5F6" d="M622.552,305.386c-0.173,0-0.346-0.045-0.5-0.134c-0.31-0.179-0.5-0.509-0.5-0.866v-6.701h-125.49
			c-0.553,0-1-0.447-1-1v-5.517c0-0.553,0.447-1,1-1h125.49v-6.7c0-0.357,0.19-0.688,0.5-0.866c0.154-0.089,0.327-0.134,0.5-0.134
			s0.346,0.045,0.5,0.134l18.114,10.458c0.31,0.179,0.5,0.509,0.5,0.866s-0.19,0.688-0.5,0.866l-18.114,10.46
			C622.897,305.341,622.725,305.386,622.552,305.386z"/>
		<path fill="#BBDEFB" d="M622.552,283.468l18.114,10.458l-18.114,10.46v-7.701h-126.49v-5.517h126.49V283.468 M622.552,281.468
			c-0.346,0-0.69,0.089-1,0.268c-0.619,0.357-1,1.018-1,1.732v5.7h-124.49c-1.104,0-2,0.896-2,2v5.517c0,1.104,0.896,2,2,2h124.49
			v5.701c0,0.715,0.381,1.375,1,1.732c0.31,0.179,0.654,0.268,1,0.268s0.69-0.089,1-0.268l18.114-10.46c0.619-0.357,1-1.018,1-1.732
			s-0.381-1.375-1-1.732l-18.114-10.458C623.242,281.557,622.897,281.468,622.552,281.468L622.552,281.468z"/>
	</g>
	<g>
		<path fill="#64B5F6" d="M622.552,305.386c-0.173,0-0.346-0.045-0.5-0.134c-0.31-0.179-0.5-0.509-0.5-0.866v-6.701h-125.49
			c-0.553,0-1-0.447-1-1v-5.517c0-0.553,0.447-1,1-1h125.49v-6.7c0-0.357,0.19-0.688,0.5-0.866c0.154-0.089,0.327-0.134,0.5-0.134
			s0.346,0.045,0.5,0.134l18.114,10.458c0.31,0.179,0.5,0.509,0.5,0.866s-0.19,0.688-0.5,0.866l-18.114,10.46
			C622.897,305.341,622.725,305.386,622.552,305.386z"/>
		<path fill="#BBDEFB" d="M622.552,283.468l18.114,10.458l-18.114,10.46v-7.701h-126.49v-5.517h126.49V283.468 M622.552,281.468
			c-0.346,0-0.69,0.089-1,0.268c-0.619,0.357-1,1.018-1,1.732v5.7h-124.49c-1.104,0-2,0.896-2,2v5.517c0,1.104,0.896,2,2,2h124.49
			v5.701c0,0.715,0.381,1.375,1,1.732c0.31,0.179,0.654,0.268,1,0.268s0.69-0.089,1-0.268l18.114-10.46c0.619-0.357,1-1.018,1-1.732
			s-0.381-1.375-1-1.732l-18.114-10.458C623.242,281.557,622.897,281.468,622.552,281.468L622.552,281.468z"/>
	</g>
</g>
<path fill="#43A047" d="M688.774-791.436H389.847c-7.178,0-12.998,5.819-12.998,12.997v120.221c0,7.178,5.82,12.997,12.998,12.997
	h244.408l8.641-14.963c0.357-0.619,1.018-1,1.732-1s1.375,0.381,1.732,1l8.641,14.963h33.773c7.178,0,12.996-5.818,12.996-12.997
	v-120.221C701.771-785.617,695.952-791.436,688.774-791.436z"/>
<g>
	<path fill="#64B5F6" d="M579.832,328.107c0,5.939-4.833,10.756-10.79,10.756H149.334c-5.957,0-10.79-4.816-10.79-10.756v-77.78
		c0-5.941,4.833-10.755,10.79-10.755h419.708c5.957,0,10.79,4.813,10.79,10.755V328.107z"/>
	<g>
		<text transform="matrix(1 0 0 1 174.4668 283.9707)"><tspan x="0" y="0" fill="#FFFFFF" font-family="'Montserrat-Regular'" font-size="20.6854">Metadata on Objective C Classes </tspan><tspan x="0" y="24.822" fill="#FFFFFF" font-family="'Montserrat-Regular'" font-size="20.6854">and plan C functions and objects</tspan></text>
	</g>
</g>
<path fill="#43A047" d="M683.019-481.975H433.329l-6.578,11.395c-0.357,0.619-1.018,1-1.732,1s-1.375-0.381-1.732-1l-6.581-11.395
	h-32.614c-7.178,0-12.998,5.819-12.998,12.997v103.975c0,7.178,5.82,12.997,12.998,12.997h252.046l7.843-13.582
	c0.357-0.619,1.018-1,1.732-1s1.375,0.381,1.732,1l7.843,13.582h27.731c7.178,0,12.996-5.819,12.996-12.997v-103.975
	C696.015-476.155,690.196-481.975,683.019-481.975z"/>
<g>
	<path fill="#64B5F6" d="M579.818,465.03c0,5.939-4.835,10.755-10.791,10.755H149.321c-5.959,0-10.791-4.815-10.791-10.755v-77.779
		c0-5.942,4.832-10.756,10.791-10.756h419.706c5.956,0,10.791,4.813,10.791,10.756V465.03z"/>
	<text transform="matrix(1 0 0 1 301.1436 421.123)"><tspan x="0" y="0" fill="#FFFFFF" font-family="'Montserrat-Regular'" font-size="20.6854">Data Types</tspan><tspan x="3.651" y="24.822" fill="#FFFFFF" font-family="'Montserrat-Regular'" font-size="20.6854">Marshaller</tspan></text>
</g>
<path fill="#43A047" d="M770.521-189.796H435.81l-7.977,13.813c-0.357,0.619-1.018,1-1.732,1s-1.375-0.381-1.732-1l-7.977-13.813
	h-107.26c-7.178,0-12.998,5.819-12.998,12.997v71.483c0,7.177,5.82,12.996,12.998,12.996h461.389
	c7.178,0,12.996-5.819,12.996-12.996v-71.483C783.517-183.977,777.698-189.796,770.521-189.796z"/>
<rect x="569.019" y="267.51" fill="none" width="90.416" height="59.085"/>
<g>
	<path fill="#64B5F6" d="M875.625,539.828c-0.357,0-0.688-0.19-0.866-0.5l-10.46-18.112c-0.179-0.31-0.179-0.69,0-1
		s0.509-0.5,0.866-0.5h6.703l-0.002-36.002h-6.701c-0.357,0-0.688-0.19-0.866-0.5s-0.179-0.69,0-1l10.459-18.112
		c0.179-0.31,0.509-0.5,0.866-0.5s0.688,0.19,0.866,0.5l10.459,18.112c0.179,0.31,0.179,0.69,0,1s-0.509,0.5-0.866,0.5h-6.701
		v36.002h6.701c0.357,0,0.688,0.19,0.866,0.5s0.179,0.69,0,1l-10.458,18.112C876.313,539.638,875.982,539.828,875.625,539.828z"/>
	<g>
		<path fill="#BBDEFB" d="M875.624,464.602l10.459,18.112h-7.701v38.002h7.701l-10.458,18.112l-10.46-18.112h7.703l-0.002-38.002
			h-7.701L875.624,464.602 M875.624,462.602c-0.715,0-1.375,0.381-1.732,1l-10.459,18.112c-0.357,0.618-0.357,1.381,0,2
			s1.018,1,1.732,1h5.701l0.002,34.002h-5.703c-0.715,0-1.375,0.381-1.732,1s-0.357,1.382,0,2l10.461,18.112
			c0.356,0.619,1.018,1,1.731,1l0,0c0.715,0,1.375-0.381,1.731-1l10.459-18.112c0.357-0.619,0.357-1.381,0-2s-1.018-1-1.732-1
			h-5.701v-34.002h5.701c0.715,0,1.375-0.381,1.732-1s0.357-1.382,0-2l-10.459-18.112
			C876.999,462.982,876.339,462.602,875.624,462.602L875.624,462.602z"/>
	</g>
</g>
<g>
	<path fill="#64B5F6" d="M663.888,539.828c-0.357,0-0.688-0.19-0.866-0.5l-10.46-18.112c-0.179-0.31-0.179-0.69,0-1
		s0.509-0.5,0.866-0.5h6.702l-0.001-36.002h-6.701c-0.357,0-0.688-0.19-0.866-0.5s-0.179-0.69,0-1l10.458-18.112
		c0.179-0.31,0.509-0.5,0.866-0.5s0.688,0.19,0.866,0.5l10.461,18.112c0.179,0.31,0.179,0.69,0,1s-0.509,0.5-0.866,0.5h-6.703
		v36.002h6.703c0.357,0,0.688,0.19,0.866,0.5s0.179,0.69,0,1l-10.459,18.112C664.575,539.638,664.245,539.828,663.888,539.828z"/>
	<g>
		<path fill="#BBDEFB" d="M663.886,464.602l10.461,18.112h-7.703v38.002h7.703l-10.459,18.112l-10.46-18.112h7.702l-0.001-38.002
			h-7.701L663.886,464.602 M663.886,462.602L663.886,462.602c-0.715,0-1.375,0.381-1.732,1l-10.458,18.112
			c-0.356,0.619-0.356,1.381,0,2c0.357,0.619,1.018,1,1.732,1h5.701l0.001,34.002h-5.702c-0.715,0-1.375,0.381-1.732,1
			c-0.356,0.619-0.356,1.382,0.001,2l10.459,18.112c0.357,0.619,1.018,1,1.732,1l0,0c0.715,0,1.375-0.381,1.732-1l10.459-18.112
			c0.357-0.618,0.357-1.381,0-2s-1.018-1-1.732-1h-5.703v-34.002h5.703c0.715,0,1.375-0.381,1.732-1s0.356-1.382,0-2l-10.461-18.112
			C665.261,462.982,664.601,462.602,663.886,462.602L663.886,462.602z"/>
	</g>
</g>
<g>
	<text transform="matrix(0.9581 0 0 1 703.6523 367.1816)" fill="#FFFFFF" font-family="'Montserrat-Regular'" font-size="23.4434">Call Dispatcher</text>
</g>
<path fill="#43A047" d="M337.753-365.234c0,7.177-5.818,12.996-12.996,12.996H129.804c-7.178,0-12.998-5.819-12.998-12.996v-103.975
	c0-7.178,5.82-12.997,12.998-12.997h194.953c7.178,0,12.996,5.819,12.996,12.997V-365.234z"/>
<path fill="#43A047" d="M907.298-438.263c0,7.178-5.818,12.997-12.996,12.997H741.589c-7.178,0-12.998-5.819-12.998-12.997v-30.868
	c0-7.177,5.82-12.997,12.998-12.997h152.713c7.178,0,12.996,5.819,12.996,12.997V-438.263z"/>
<path fill="#43A047" d="M907.806-365.198c0,7.178-5.818,12.997-12.996,12.997H742.097c-7.178,0-12.998-5.819-12.998-12.997v-30.867
	c0-7.178,5.82-12.997,12.998-12.997H894.81c7.178,0,12.996,5.819,12.996,12.997V-365.198z"/>
<g>
	<text transform="matrix(1 0 0 1 753.3369 -444.5747)" fill="#FFFFFF" font-family="'Montserrat-Regular'" font-size="24.3692">Metadata</text>
</g>
<g>
	<text transform="matrix(1 0 0 1 753.3369 -370.5674)" fill="#FFFFFF" font-family="'Montserrat-Regular'" font-size="24.3692">Caches*</text>
</g>
<g>
	<text transform="matrix(1 0 0 1 434.7197 -418.231)"><tspan x="0" y="0" fill="#FFFFFF" font-family="'Montserrat-Regular'" font-size="24.3692">Java Application</tspan><tspan x="0" y="29.243" fill="#FFFFFF" font-family="'Montserrat-Regular'" font-size="24.3692">code Dispatcher</tspan></text>
</g>
<g>
	<text transform="matrix(1 0 0 1 162.3467 -422.5625)"><tspan x="0" y="0" fill="#FFFFFF" font-family="'Montserrat-Regular'" font-size="24.3692">Argument</tspan><tspan x="0" y="29.243" fill="#FFFFFF" font-family="'Montserrat-Regular'" font-size="24.3692">Converter</tspan></text>
</g>
<g>
	<text transform="matrix(1 0 0 1 364.4795 -132.1289)" fill="#FFFFFF" font-family="'Montserrat-Regular'" font-size="24.3692">JavaScript Application code </text>
</g>
<g>
	<path fill="#990572" d="M1115.909-117.807c0,7.178-5.82,12.997-12.998,12.997H953.448c-7.178,0-12.998-5.819-12.998-12.997v-38.99
		c0-7.178,5.82-12.997,12.998-12.997h149.463c7.178,0,12.998,5.819,12.998,12.997V-117.807z"/>
	<g>
		<text transform="matrix(1 0 0 1 1008.7783 -126.9121)" fill="#FFFFFF" font-family="'Montserrat-Bold'" font-size="29.243">V8</text>
	</g>
</g>
<g>
	<polygon fill="#43A047" points="221.536,-230.881 221.536,-353.903 215.038,-353.903 215.038,-230.881 205.966,-230.881 
		218.288,-209.542 230.608,-230.881 	"/>
</g>
<path fill="#43A047" d="M311.835-657.738c0,7.178-5.82,12.997-12.998,12.997H129.878c-7.178,0-12.996-5.819-12.996-12.997v-38.991
	c0-7.178,5.818-12.997,12.996-12.997h168.959c7.178,0,12.998,5.818,12.998,12.997V-657.738z"/>
<g>
	<path fill="#990572" d="M1115.909-376.764c0,7.177-5.82,12.997-12.998,12.997H953.448c-7.178,0-12.998-5.819-12.998-12.997v-77.981
		c0-7.178,5.82-12.997,12.998-12.997h149.463c7.178,0,12.998,5.819,12.998,12.997V-376.764z"/>
	<g>
		<text transform="matrix(1 0 0 1 975.3838 -424.5352)"><tspan x="0" y="0" fill="#FFFFFF" font-family="'Montserrat-Bold'" font-size="29.243">Native </tspan><tspan x="8.51" y="35.092" fill="#FFFFFF" font-family="'Montserrat-Bold'" font-size="29.243">Script</tspan></text>
	</g>
</g>
<polygon fill="#43A047" points="558.44,-833.408 558.44,-940.185 551.942,-940.185 551.942,-833.408 542.868,-833.408 
	555.19,-812.069 567.513,-833.408 "/>
<polygon fill="none" points="558.44,-833.408 558.44,-940.185 551.942,-940.185 551.942,-833.408 542.868,-833.408 
	548.589,-823.501 561.792,-823.501 567.513,-833.408 "/>
<g>
	<text transform="matrix(1 0 0 1 167.3037 -668.3052)" fill="#FFFFFF" font-family="'Montserrat-Regular'" font-size="24.3692">Helpers</text>
</g>
<g>
	<path fill="#43A047" d="M844.319-934.566c0,7.179-5.818,12.997-12.996,12.997H304.948c-7.178,0-12.996-5.818-12.996-12.997v-38.99
		c0-7.178,5.818-12.997,12.996-12.997h526.375c7.178,0,12.996,5.819,12.996,12.997V-934.566z"/>
	<g>
		<text transform="matrix(1 0 0 1 497.5771 -945.1318)" fill="#FFFFFF" font-family="'Montserrat-Bold'" font-size="24.3692">Android OS</text>
	</g>
</g>
<g>
	<path fill="#990572" d="M1115.909-699.247c0,7.177-5.82,12.997-12.998,12.997H953.448c-7.178,0-12.998-5.819-12.998-12.997v-38.991
		c0-7.178,5.82-12.997,12.998-12.997h149.463c7.178,0,12.998,5.819,12.998,12.997V-699.247z"/>
	<g>
		<text transform="matrix(1 0 0 1 982.4443 -708.3521)" fill="#FFFFFF" font-family="'Montserrat-Bold'" font-size="29.243">Dalvik</text>
	</g>
</g>
<rect x="694.347" y="-488.459" fill="none" width="61.268" height="69.607"/>
<g opacity="0.8">
	<text transform="matrix(1 0 0 1 96.5967 -32.6406)" fill="#FFFFFF" font-family="'Montserrat-Regular'" font-size="11.3723">*(e.g. method resolution cashe)</text>
</g>
<line fill="#DBDBDB" stroke="#1B5E20" stroke-miterlimit="10" x1="98.222" y1="-46.721" x2="211.401" y2="-46.721"/>
<g>
	<path fill="#43A047" d="M213.712-697.449c-0.357,0-0.688-0.19-0.866-0.5l-12.322-21.339c-0.179-0.31-0.179-0.69,0-1
		s0.509-0.5,0.866-0.5h8.072v-68.411c0-0.552,0.447-1,1-1h6.5c0.553,0,1,0.448,1,1v68.411h8.07c0.357,0,0.688,0.19,0.866,0.5
		s0.179,0.69,0,1l-12.32,21.339C214.399-697.639,214.069-697.449,213.712-697.449z"/>
	<path fill="#A5D6A7" d="M216.962-789.198v69.411h9.07l-12.32,21.339l-12.322-21.339h9.072v-69.411H216.962 M226.032-719.788h0.005
		 M216.962-791.198h-6.5c-1.104,0-2,0.896-2,2v67.411h-7.072c-0.715,0-1.375,0.381-1.732,1s-0.356,1.381,0,2l12.322,21.339
		c0.357,0.619,1.018,1,1.732,1l0,0c0.715,0,1.375-0.381,1.732-1l12.278-21.266c0.197-0.31,0.312-0.678,0.312-1.073
		c0-1.104-0.893-2-1.997-2h-0.005h-7.07v-67.411C218.962-790.303,218.066-791.198,216.962-791.198L216.962-791.198z"/>
</g>
<path fill="#43A047" d="M311.552-738.862c0,7.178-5.818,12.997-12.996,12.997H129.595c-7.176,0-12.996-5.819-12.996-12.997v-38.991
	c0-7.178,5.82-12.997,12.996-12.997h168.961c7.178,0,12.996,5.818,12.996,12.997V-738.862z"/>
<g>
	<text transform="matrix(1 0 0 1 160.7314 -749.4282)" fill="#FFFFFF" font-family="'Montserrat-Regular'" font-size="24.3692">Bindings</text>
</g>
<rect x="115.692" y="-731.374" fill="none" width="69.605" height="61.267"/>
<g>
	<text transform="matrix(1 0 0 1 507.9834 -724.0205)"><tspan x="0" y="0" fill="#FFFFFF" font-family="'Montserrat-Regular'" font-size="24.3692">Java </tspan><tspan x="-73.205" y="29.243" fill="#FFFFFF" font-family="'Montserrat-Regular'" font-size="24.3692">Application code</tspan></text>
</g>
<g>
	<path fill="#43A047" d="M369.983-663.283c-0.173,0-0.346-0.044-0.5-0.134c-0.31-0.179-0.5-0.509-0.5-0.866v-8.074l-49.822,0.001
		v8.072c0,0.357-0.19,0.688-0.5,0.866c-0.154,0.089-0.327,0.134-0.5,0.134s-0.346-0.044-0.5-0.134l-21.338-12.321
		c-0.31-0.179-0.5-0.509-0.5-0.866s0.19-0.688,0.5-0.866l21.338-12.322c0.154-0.089,0.327-0.134,0.5-0.134s0.346,0.044,0.5,0.134
		c0.31,0.179,0.5,0.509,0.5,0.866v8.073l49.822-0.001v-8.072c0-0.357,0.19-0.688,0.5-0.866c0.154-0.089,0.327-0.134,0.5-0.134
		s0.346,0.044,0.5,0.134l21.34,12.321c0.31,0.179,0.5,0.509,0.5,0.866s-0.19,0.688-0.5,0.866l-21.34,12.323
		C370.329-663.328,370.156-663.283,369.983-663.283z"/>
	<path fill="#A5D6A7" d="M318.161-688.928v9.073h7.844v-0.001h43.979v-9.072l21.34,12.321l-21.34,12.323v-9.074h-7.844v0.001
		h-43.979v9.072l-21.338-12.321L318.161-688.928 M318.161-690.928c-0.346,0-0.69,0.089-1,0.268l-21.338,12.322
		c-0.619,0.357-1,1.018-1,1.732s0.381,1.375,1,1.732l21.338,12.321c0.31,0.179,0.654,0.268,1,0.268s0.69-0.089,1-0.268
		c0.619-0.357,1-1.018,1-1.732v-7.072h41.979l5.844,0v7.073c0,0.714,0.381,1.375,1,1.732c0.31,0.179,0.654,0.268,1,0.268
		s0.69-0.089,1-0.268l21.34-12.323c0.619-0.357,1-1.018,1-1.732s-0.381-1.375-1-1.732l-21.34-12.321
		c-0.31-0.179-0.654-0.268-1-0.268s-0.69,0.089-1,0.268c-0.619,0.357-1,1.018-1,1.732v7.072h-41.979l-5.844,0.001v-7.073
		c0-0.714-0.381-1.375-1-1.732C318.852-690.838,318.507-690.928,318.161-690.928L318.161-690.928z"/>
</g>
<g>
	<path fill="#43A047" d="M369.983-740.453c-0.173,0-0.346-0.044-0.5-0.134c-0.31-0.179-0.5-0.509-0.5-0.866v-8.073l-49.822,0.001
		v8.072c0,0.357-0.19,0.688-0.5,0.866c-0.154,0.089-0.327,0.134-0.5,0.134s-0.346-0.044-0.5-0.134l-21.338-12.321
		c-0.31-0.179-0.5-0.509-0.5-0.866s0.19-0.688,0.5-0.866l21.338-12.322c0.154-0.089,0.327-0.134,0.5-0.134s0.346,0.044,0.5,0.134
		c0.31,0.179,0.5,0.509,0.5,0.866v8.073l49.822-0.001v-8.072c0-0.357,0.19-0.688,0.5-0.866c0.154-0.089,0.327-0.134,0.5-0.134
		s0.346,0.044,0.5,0.134l21.34,12.321c0.31,0.179,0.5,0.509,0.5,0.866s-0.19,0.688-0.5,0.866l-21.34,12.322
		C370.329-740.497,370.156-740.453,369.983-740.453z"/>
	<path fill="#A5D6A7" d="M318.161-766.097v9.073h7.844v-0.001h43.979v-9.072l21.34,12.321l-21.34,12.322v-9.073h-7.844v0.001
		h-43.979v9.072l-21.338-12.321L318.161-766.097 M318.161-768.097c-0.346,0-0.69,0.089-1,0.268l-21.338,12.322
		c-0.619,0.357-1,1.018-1,1.732s0.381,1.375,1,1.732l21.338,12.321c0.31,0.179,0.654,0.268,1,0.268s0.69-0.089,1-0.268
		c0.619-0.357,1-1.018,1-1.732v-7.072h41.979l5.844,0v7.073c0,0.714,0.381,1.375,1,1.732c0.31,0.179,0.654,0.268,1,0.268
		s0.69-0.089,1-0.268l21.34-12.322c0.619-0.357,1-1.018,1-1.732s-0.381-1.375-1-1.732l-21.34-12.321
		c-0.31-0.179-0.654-0.268-1-0.268s-0.69,0.089-1,0.268c-0.619,0.357-1,1.018-1,1.732v7.072h-41.979l-5.844,0.001v-7.073
		c0-0.714-0.381-1.375-1-1.732C318.852-768.007,318.507-768.097,318.161-768.097L318.161-768.097z"/>
</g>
<g>
	<defs>
		<rect id="SVGID_1_" x="696.099" y="-481.315" width="49.551" height="66.609"/>
	</defs>
	<clipPath id="SVGID_2_">
		<use xlink:href="#SVGID_1_"  overflow="visible"/>
	</clipPath>
	<g clip-path="url(#SVGID_2_)">
		<path fill="#43A047" d="M717.306-440.225c-0.173,0-0.346-0.044-0.5-0.134c-0.31-0.179-0.5-0.509-0.5-0.866v-8.072H568.288
			c-0.553,0-1-0.448-1-1v-6.499c0-0.552,0.447-1,1-1h148.018v-8.072c0-0.357,0.19-0.688,0.5-0.866
			c0.154-0.089,0.327-0.134,0.5-0.134s0.346,0.044,0.5,0.134l21.338,12.321c0.31,0.179,0.5,0.509,0.5,0.866s-0.19,0.688-0.5,0.866
			l-21.338,12.321C717.651-440.27,717.479-440.225,717.306-440.225z"/>
		<path fill="#A5D6A7" d="M717.306-465.867l21.338,12.321l-21.338,12.321v-9.072H568.288v-6.499h149.018V-465.867 M717.306-467.867
			c-0.346,0-0.69,0.089-1,0.268c-0.619,0.357-1,1.018-1,1.732v7.072H568.288c-1.104,0-2,0.896-2,2v6.499c0,1.104,0.896,2,2,2
			h147.018v7.072c0,0.714,0.381,1.375,1,1.732c0.31,0.179,0.654,0.268,1,0.268s0.69-0.089,1-0.268l21.338-12.321
			c0.619-0.357,1-1.018,1-1.732s-0.381-1.375-1-1.732l-21.338-12.321C717.996-467.777,717.651-467.867,717.306-467.867
			L717.306-467.867z"/>
	</g>
</g>
<g>
	<defs>
		<rect id="SVGID_3_" x="696.099" y="-407.395" width="49.551" height="66.609"/>
	</defs>
	<clipPath id="SVGID_4_">
		<use xlink:href="#SVGID_3_"  overflow="visible"/>
	</clipPath>
	<g clip-path="url(#SVGID_4_)">
		<path fill="#43A047" d="M717.306-366.305c-0.173,0-0.346-0.044-0.5-0.134c-0.31-0.179-0.5-0.509-0.5-0.866v-8.072H568.288
			c-0.553,0-1-0.448-1-1v-6.498c0-0.552,0.447-1,1-1h148.018v-8.072c0-0.357,0.19-0.688,0.5-0.866
			c0.154-0.089,0.327-0.134,0.5-0.134s0.346,0.044,0.5,0.134l21.338,12.321c0.31,0.179,0.5,0.509,0.5,0.866s-0.19,0.688-0.5,0.866
			l-21.338,12.321C717.651-366.35,717.479-366.305,717.306-366.305z"/>
		<path fill="#A5D6A7" d="M717.306-391.947l21.338,12.321l-21.338,12.321v-9.072H568.288v-6.498h149.018V-391.947 M717.306-393.947
			c-0.346,0-0.69,0.089-1,0.268c-0.619,0.357-1,1.018-1,1.732v7.072H568.288c-1.104,0-2,0.896-2,2v6.498c0,1.104,0.896,2,2,2
			h147.018v7.072c0,0.714,0.381,1.375,1,1.732c0.31,0.179,0.654,0.268,1,0.268s0.69-0.089,1-0.268l21.338-12.321
			c0.619-0.357,1-1.018,1-1.732s-0.381-1.375-1-1.732l-21.338-12.321C717.996-393.857,717.651-393.947,717.306-393.947
			L717.306-393.947z"/>
	</g>
</g>
<polygon fill="#43A047" points="221.536,-230.881 221.536,-319.787 215.038,-319.787 215.038,-230.881 205.966,-230.881 
	218.288,-209.542 230.608,-230.881 "/>
<polygon fill="none" points="221.536,-230.881 221.536,-319.787 215.038,-319.787 215.038,-230.881 205.966,-230.881 
	210.876,-222.378 225.699,-222.378 230.608,-230.881 "/>
<polygon fill="none" points="185.433,-319.531 246.692,-319.396 246.487,-201.272 185.565,-201.272 "/>
<g>
	<polygon fill="#43A047" points="214.917,-603.728 214.917,-480.703 221.417,-480.703 221.417,-603.728 230.489,-603.728 
		218.167,-625.067 205.847,-603.728 	"/>
</g>
<polygon fill="#43A047" points="214.917,-603.728 214.917,-514.819 221.417,-514.819 221.417,-603.728 230.489,-603.728 
	218.167,-625.067 205.847,-603.728 "/>
<polygon fill="none" points="214.917,-603.728 214.917,-514.819 221.417,-514.819 221.417,-603.728 230.489,-603.728 
	225.538,-612.302 210.797,-612.302 205.847,-603.728 "/>
<polygon fill="none" points="251.022,-515.076 189.763,-515.209 189.966,-633.336 250.89,-633.336 "/>
<polygon fill="#43A047" points="429.351,-198.321 429.351,-255.769 422.853,-255.769 422.853,-198.321 413.778,-198.321 
	426.101,-176.982 438.423,-198.321 "/>
<polygon fill="none" points="429.351,-198.321 429.351,-287.228 422.853,-287.228 422.853,-198.321 413.778,-198.321 
	418.701,-189.796 433.5,-189.796 438.423,-198.321 "/>
<polygon fill="#43A047" points="426.101,-176.982 433.5,-189.796 418.701,-189.796 "/>
<rect x="422.853" y="-287.228" fill="none" width="6.498" height="64.85"/>
<polygon fill="#43A047" points="648.96,-343.248 658.034,-343.248 645.712,-364.587 633.39,-343.248 642.462,-343.248 
	642.462,-285.122 648.96,-285.122 "/>
<polygon fill="none" points="642.462,-343.248 642.462,-285.122 648.96,-285.122 648.96,-343.248 658.034,-343.248 
	652.978,-352.006 638.446,-352.006 633.39,-343.248 "/>
<polygon fill="#43A047" points="645.712,-364.587 638.446,-352.006 652.978,-352.006 "/>
<rect x="642.462" y="-319.458" fill="none" width="6.498" height="34.336"/>
<g>
	<rect x="422.853" y="-353.837" fill="#43A047" width="6.498" height="70.752"/>
</g>
<polygon fill="#43A047" points="641.378,-637.845 641.378,-579.938 647.876,-579.938 647.876,-637.845 656.95,-637.845 
	644.628,-659.184 632.306,-637.845 "/>
<polygon fill="none" points="641.378,-637.845 641.378,-548.938 647.876,-548.938 647.876,-637.845 656.95,-637.845 
	652.69,-645.221 636.565,-645.221 632.306,-637.845 "/>
<polygon fill="#43A047" points="644.628,-659.184 636.565,-645.221 652.69,-645.221 "/>
<rect x="641.378" y="-612.302" fill="none" width="6.498" height="63.364"/>
<polygon fill="none" points="677.483,-549.194 616.345,-548.453 616.427,-667.453 677.351,-667.453 "/>
<polygon fill="none" points="647.876,-588.269 647.876,-475.832 641.378,-475.832 641.378,-588.269 610.942,-588.269 
	610.942,-467.642 676.333,-467.642 676.333,-588.269 "/>
<g>
	<rect x="641.378" y="-549.269" fill="#43A047" width="6.498" height="73.437"/>
</g>
<polygon fill="#43A047" points="428.267,-492.919 428.267,-549.824 421.769,-549.824 421.769,-492.919 412.694,-492.919 
	425.019,-471.58 437.339,-492.919 "/>
<rect x="421.769" y="-549.824" fill="none" width="6.498" height="35.413"/>
<polygon fill="#43A047" points="431.021,-481.975 419.015,-481.975 425.019,-471.58 "/>
<polygon fill="none" points="392.163,-581.569 453.302,-582.31 453.218,-463.311 392.296,-463.311 "/>
<text transform="matrix(1 0 0 1 85.624 -876.7715)" opacity="0.8"><tspan x="0" y="0" fill="#FFFFFF" font-family="'Montserrat-Regular'" font-size="19.4953">Blidings Create Java classes that extends</tspan><tspan x="0" y="23.395" fill="#FFFFFF" font-family="'Montserrat-Regular'" font-size="19.4953">the available classes and add our own code</tspan></text>
<g opacity="0.8">
	<text transform="matrix(1 0 0 1 757.2354 -864.4253)" fill="#FFFFFF" font-family="'Montserrat-Regular'" font-size="19.4953">The OS starts the Dalvik</text>
</g>
<text transform="matrix(1 0 0 1 570.5908 -262.2607)" opacity="0.8" fill="#FFFFFF" font-family="'Montserrat-Regular'" font-size="19.4953">Access Java objects</text>
<path fill="none" d="M393.312-656.623v120.627h65.391v-120.627H393.312z M437.554-550.138h-24.369v-31.543h24.369V-550.138z"/>
<g>
	<rect x="421.769" y="-648.433" fill="#43A047" width="6.498" height="66.752"/>
</g>
<text transform="matrix(1 0 0 1 366.7393 -262.2598)" opacity="0.8" fill="#FFFFFF" font-family="'Montserrat-Regular'" font-size="19.4953">Call JS methods</text>
<text transform="matrix(1 0 0 1 569.5068 -556.8564)" opacity="0.8" fill="#FFFFFF" font-family="'Montserrat-Regular'" font-size="19.4953">Access Java objects</text>
<text transform="matrix(1 0 0 1 365.6572 -556.8564)" opacity="0.8" fill="#FFFFFF" font-family="'Montserrat-Regular'" font-size="19.4953">Call JS methods</text>
<path fill="#990572" d="M1115.173,389.191c0,6.475-5.25,11.727-11.727,11.727H977.3c-6.475,0-11.727-5.252-11.727-11.727v-65.21
	c0-6.475,5.252-11.726,11.727-11.726h126.146c6.477,0,11.727,5.251,11.727,11.726V389.191z"/>
<text transform="matrix(1 0 0 1 994.8086 349.1338)"><tspan x="0" y="0" fill="#FFFFFF" font-family="'Montserrat-Bold'" font-size="24.8224">Native</tspan><tspan x="3.947" y="29.787" fill="#FFFFFF" font-family="'Montserrat-Bold'" font-size="24.8224">Script</tspan></text>
<rect x="285.29" y="638.493" fill="#BBDEFB" width="5.517" height="49.768"/>
<polygon fill="#BBDEFB" points="285.279,738.653 277.577,738.653 288.037,756.766 298.495,738.653 290.795,738.653 290.795,710.995 
	285.279,710.995 "/>
<polygon fill="none" points="290.795,738.653 290.795,710.995 285.279,710.995 285.279,738.653 277.577,738.653 282.596,747.344 
	293.478,747.344 298.495,738.653 "/>
<polygon fill="#BBDEFB" points="288.037,756.766 293.478,747.344 282.596,747.344 "/>
<g>
	<rect x="642.462" y="-255.248" fill="#43A047" width="6.498" height="74.014"/>
</g>
</svg>
