<?xml version="1.0" encoding="utf-8"?>
<!-- Generator: Adobe Illustrator 20.1.0, SVG Export Plug-In . SVG Version: 6.00 Build 0)  -->
<svg version="1.1" id="Шар_1" xmlns="http://www.w3.org/2000/svg" xmlns:xlink="http://www.w3.org/1999/xlink" x="0px" y="0px"
	 viewBox="0 0 1767.2 1105.6" style="enable-background:new 0 0 1767.2 1105.6;" xml:space="preserve">
<style type="text/css">
	.st0{display:none;fill:#FFFFFF;}
	.st1{fill:#BBDEFB;}
	.st2{fill:#990572;}
	.st3{fill:#FFFFFF;}
	.st4{fill:#64B5F6;}
	.st5{fill:none;}
	.st6{fill:#2196F3;}
	.st7{opacity:0.8;}
	.st8{fill:#1E88E5;}
</style>
<rect x="652.1" y="457" class="st0" width="716" height="652"/>
<g>
	<path class="st1" d="M1384,229.8H827.8l-8.3,14.4c-0.5,0.9-1.4,1.4-2.4,1.4c-1,0-1.9-0.5-2.4-1.4l-8.3-14.4H250.3
		c-7.1,0-12.9,5.8-12.9,12.9V670c0,7.1,5.8,12.9,12.9,12.9h824.3l6-10.4c0.4-0.6,1-1,1.7-1c0.7,0,1.4,0.4,1.7,1l6,10.4h294
		c7.1,0,12.9-5.8,12.9-12.9V242.6C1396.9,235.5,1391.1,229.8,1384,229.8z"/>
	<path class="st1" d="M1381.9,848.7H558l-6,10.4c-0.4,0.6-1,1-1.7,1c-0.7,0-1.4-0.4-1.7-1l-6-10.4H249.6c-6.6,0-11.9,5.3-11.9,11.9
		l-0.2,136.4c0,6.6,5.3,11.9,11.9,11.9h1132.3c6.6,0,11.9-5.3,11.9-11.9l0.2-136.4C1393.9,854.1,1388.5,848.7,1381.9,848.7z"/>
	<path class="st2" d="M1529.8,908.7c0-9.1-7.4-16.4-16.4-16.4h-323.5c-9.1,0-16.4,7.4-16.4,16.4v40.4c0,9.1,7.4,16.4,16.4,16.4
		h323.5c9.1,0,16.4-7.4,16.4-16.4V908.7z"/>
	<g>
		<g>
			<path class="st3" d="M1215.3,920.5v-4.8h13.1v16.4c0,3-0.8,5.2-2.3,6.7c-1.5,1.5-3.5,2.2-6,2.2c-3,0-5.7-1.2-7.9-3.5l2.9-4
				c1.5,1.6,3.1,2.4,4.8,2.4c0.8,0,1.5-0.3,2-0.9c0.6-0.6,0.8-1.5,0.8-2.8v-11.8H1215.3z"/>
			<path class="st3" d="M1250.3,940.8h-5.1v-2.3c-1.4,1.8-3.1,2.6-5.2,2.6c-2.1,0-3.8-0.6-5.2-1.8c-1.4-1.2-2.1-2.8-2.1-4.8
				c0-2,0.7-3.5,2.2-4.4c1.4-1,3.4-1.5,5.9-1.5h4v-0.1c0-2.1-1.1-3.1-3.3-3.1c-0.9,0-1.9,0.2-3,0.6c-1,0.4-1.9,0.8-2.6,1.4l-2.4-3.5
				c2.5-1.8,5.4-2.8,8.7-2.8c2.4,0,4.3,0.6,5.8,1.8c1.5,1.2,2.2,3,2.2,5.6V940.8z M1244.8,933.4v-0.9h-3.4c-2.2,0-3.2,0.7-3.2,2
				c0,0.7,0.3,1.2,0.8,1.6c0.5,0.4,1.3,0.6,2.2,0.6s1.8-0.3,2.5-0.9C1244.5,935.2,1244.8,934.4,1244.8,933.4z"/>
			<path class="st3" d="M1260.4,940.8l-7.7-19.4h5.6l4.8,12.2l4.8-12.2h5.6l-7.7,19.4H1260.4z"/>
			<path class="st3" d="M1292.7,940.8h-5.1v-2.3c-1.4,1.8-3.1,2.6-5.2,2.6c-2.1,0-3.8-0.6-5.2-1.8c-1.4-1.2-2.1-2.8-2.1-4.8
				c0-2,0.7-3.5,2.2-4.4c1.4-1,3.4-1.5,5.9-1.5h4v-0.1c0-2.1-1.1-3.1-3.3-3.1c-0.9,0-1.9,0.2-3,0.6c-1,0.4-1.9,0.8-2.6,1.4l-2.4-3.5
				c2.5-1.8,5.4-2.8,8.7-2.8c2.4,0,4.3,0.6,5.8,1.8c1.5,1.2,2.2,3,2.2,5.6V940.8z M1287.3,933.4v-0.9h-3.4c-2.2,0-3.2,0.7-3.2,2
				c0,0.7,0.3,1.2,0.8,1.6c0.5,0.4,1.3,0.6,2.2,0.6s1.8-0.3,2.5-0.9C1286.9,935.2,1287.3,934.4,1287.3,933.4z"/>
			<path class="st3" d="M1304.1,920.7c-0.5,0.4-0.8,1-0.8,1.8c0,0.7,0.3,1.3,1,1.7c0.7,0.4,2.2,0.9,4.6,1.5c2.4,0.6,4.2,1.5,5.6,2.6
				c1.3,1.2,2,2.9,2,5.1s-0.8,4.1-2.5,5.5c-1.7,1.4-3.9,2.1-6.7,2.1c-4,0-7.6-1.5-10.8-4.4l3.3-4.1c2.7,2.4,5.2,3.6,7.5,3.6
				c1,0,1.8-0.2,2.4-0.7s0.9-1,0.9-1.8c0-0.8-0.3-1.4-0.9-1.8c-0.6-0.4-1.9-0.9-3.7-1.3c-2.9-0.7-5.1-1.6-6.4-2.7
				c-1.4-1.1-2-2.9-2-5.3c0-2.4,0.9-4.2,2.6-5.5c1.7-1.3,3.9-1.9,6.4-1.9c1.7,0,3.4,0.3,5,0.9c1.7,0.6,3.1,1.4,4.4,2.4l-2.8,4.1
				c-2.2-1.7-4.4-2.5-6.8-2.5C1305.4,920,1304.6,920.2,1304.1,920.7z"/>
			<path class="st3" d="M1329.9,936.3c1.8,0,3.4-0.9,4.9-2.7l3.2,3.6c-2.5,2.6-5.2,3.9-8.1,3.9c-2.9,0-5.4-0.9-7.4-2.8
				c-2-1.8-3-4.2-3-7.2c0-3,1-5.4,3-7.2c2-1.9,4.4-2.8,7.2-2.8c1.4,0,2.8,0.3,4.2,0.9s2.7,1.4,3.8,2.6l-2.8,3.7
				c-0.6-0.7-1.4-1.3-2.3-1.7c-0.9-0.4-1.8-0.6-2.7-0.6c-1.4,0-2.6,0.5-3.7,1.4s-1.5,2.2-1.5,3.9c0,1.6,0.5,2.9,1.5,3.8
				S1328.6,936.3,1329.9,936.3z"/>
			<path class="st3" d="M1351.8,926.2c-1.6,0-2.8,0.6-3.6,1.7c-0.8,1.1-1.2,2.6-1.2,4.5v8.4h-5.4v-19.4h5.4v2.6
				c0.7-0.8,1.6-1.5,2.6-2c1-0.6,2.1-0.8,3.2-0.9l0,5.1H1351.8z"/>
			<path class="st3" d="M1356.8,919c-0.6-0.6-0.9-1.4-0.9-2.3s0.3-1.6,0.9-2.3s1.4-0.9,2.3-0.9s1.6,0.3,2.3,0.9s0.9,1.4,0.9,2.3
				s-0.3,1.6-0.9,2.3s-1.4,0.9-2.3,0.9S1357.5,919.6,1356.8,919z M1361.8,940.8h-5.4v-19.4h5.4V940.8z"/>
			<path class="st3" d="M1378.2,921.1c2.3,0,4.3,0.9,6,2.8c1.8,1.9,2.6,4.3,2.6,7.1c0,2.9-0.9,5.2-2.6,7.2c-1.8,1.9-3.8,2.9-6.2,2.9
				c-2.4,0-4.3-0.9-5.7-2.8v9.5h-5.4v-26.4h5.4v2.2C1374,922,1375.9,921.1,1378.2,921.1z M1372.2,931.2c0,1.6,0.4,2.9,1.3,3.9
				c0.9,1,1.9,1.5,3.2,1.5s2.3-0.5,3.3-1.5c0.9-1,1.4-2.3,1.4-3.8c0-1.6-0.5-2.9-1.4-3.9c-0.9-1.1-2-1.6-3.3-1.6
				c-1.3,0-2.3,0.5-3.2,1.6C1372.7,928.3,1372.2,929.6,1372.2,931.2z"/>
			<path class="st3" d="M1397.3,925.3v8.7c0,0.7,0.2,1.3,0.6,1.7c0.4,0.4,0.8,0.6,1.4,0.6c1,0,1.9-0.5,2.6-1.4l2,3.8
				c-1.7,1.5-3.5,2.3-5.3,2.3c-1.9,0-3.4-0.6-4.7-1.8c-1.3-1.2-1.9-2.9-1.9-5v-8.9h-2.3v-3.9h2.3v-5.8h5.4v5.8h4.7v3.9H1397.3z"/>
			<path class="st3" d="M1428.3,935.9c2.8,0,5-1.1,6.8-3.3l3.6,3.7c-2.9,3.2-6.2,4.8-10.1,4.8s-7.1-1.2-9.6-3.7s-3.8-5.5-3.8-9.3
				c0-3.7,1.3-6.8,3.8-9.3s5.7-3.7,9.4-3.7c4.1,0,7.6,1.6,10.4,4.7l-3.5,4c-1.8-2.2-4-3.3-6.6-3.3c-2.1,0-3.9,0.7-5.4,2.1
				s-2.3,3.2-2.3,5.6c0,2.3,0.7,4.2,2.1,5.6S1426.3,935.9,1428.3,935.9z"/>
			<path class="st3" d="M1461.9,931.1c0,2.8-1,5.2-2.9,7.1c-1.9,1.9-4.4,2.9-7.3,2.9c-2.9,0-5.4-1-7.3-2.9c-1.9-1.9-2.9-4.3-2.9-7.1
				c0-2.8,1-5.2,2.9-7.1c1.9-1.9,4.4-2.9,7.3-2.9c2.9,0,5.4,1,7.3,2.9C1461,926,1461.9,928.3,1461.9,931.1z M1446.9,931.1
				c0,1.6,0.5,2.9,1.3,3.9c0.9,1,2.1,1.5,3.5,1.5c1.4,0,2.6-0.5,3.5-1.5c0.9-1,1.4-2.3,1.4-3.9s-0.5-2.9-1.4-3.9
				c-0.9-1-2.1-1.5-3.5-1.5c-1.4,0-2.6,0.5-3.5,1.5C1447.3,928.3,1446.9,929.6,1446.9,931.1z"/>
			<path class="st3" d="M1476.1,926.2c-1.6,0-2.8,0.6-3.6,1.7c-0.8,1.1-1.2,2.6-1.2,4.5v8.4h-5.4v-19.4h5.4v2.6
				c0.7-0.8,1.6-1.5,2.6-2c1-0.6,2.1-0.8,3.2-0.9l0,5.1H1476.1z"/>
			<path class="st3" d="M1497.5,938c-2.2,2.1-4.7,3.1-7.7,3.1c-2.9,0-5.4-0.9-7.3-2.7c-1.9-1.8-2.9-4.2-2.9-7.3s1-5.5,2.9-7.3
				s4.3-2.7,6.9-2.7s4.9,0.8,6.8,2.4c1.9,1.6,2.8,3.8,2.8,6.6v2.9H1485c0.2,1.1,0.7,1.9,1.7,2.6c0.9,0.7,2,1,3.2,1
				c1.9,0,3.5-0.6,4.7-1.9L1497.5,938z M1492.3,926.5c-0.7-0.6-1.7-0.9-2.7-0.9s-2,0.3-2.9,1c-0.9,0.6-1.4,1.5-1.5,2.6h8.5
				C1493.5,928,1493.1,927.2,1492.3,926.5z"/>
		</g>
	</g>
	<path class="st4" d="M1048.7,905.5c0-6.5-5.3-11.7-11.7-11.7H576.5c-6.5,0-11.7,5.3-11.7,11.7v46.7c0,6.5,5.3,11.7,11.7,11.7h460.5
		c6.5,0,11.7-5.3,11.7-11.7V905.5z"/>
	<g>
		<g>
			<path class="st3" d="M612.5,923.6v-3h9.5v12.9c0,2.3-0.6,4-1.7,5.1s-2.6,1.7-4.5,1.7c-2.3,0-4.2-0.8-5.8-2.4l1.9-2.6
				c1.3,1.2,2.5,1.8,3.7,1.8c0.9,0,1.6-0.3,2.2-0.9c0.6-0.6,0.9-1.4,0.9-2.6v-10.1H612.5z"/>
			<path class="st3" d="M638.9,940.2h-2.9v-2c-1.2,1.5-2.9,2.2-5,2.2c-1.5,0-2.8-0.4-3.9-1.3s-1.5-2-1.5-3.5c0-1.5,0.5-2.6,1.6-3.3
				c1.1-0.7,2.5-1.1,4.4-1.1h4.1v-0.6c0-2-1.1-3-3.3-3c-1.4,0-2.8,0.5-4.3,1.5l-1.4-2c1.8-1.4,3.9-2.2,6.2-2.2
				c1.8,0,3.2,0.4,4.3,1.3s1.7,2.3,1.7,4.2V940.2z M635.8,934.7v-1.3h-3.5c-2.3,0-3.4,0.7-3.4,2.1c0,0.7,0.3,1.3,0.8,1.7
				s1.3,0.6,2.3,0.6c1,0,1.9-0.3,2.6-0.8C635.4,936.4,635.8,935.6,635.8,934.7z"/>
			<path class="st3" d="M647.3,940.2l-6-14.9h3.2l4.5,11.3l4.5-11.3h3.2l-6,14.9H647.3z"/>
			<path class="st3" d="M671.4,940.2h-2.9v-2c-1.2,1.5-2.9,2.2-5,2.2c-1.5,0-2.8-0.4-3.9-1.3s-1.5-2-1.5-3.5c0-1.5,0.5-2.6,1.6-3.3
				c1.1-0.7,2.5-1.1,4.4-1.1h4.1v-0.6c0-2-1.1-3-3.3-3c-1.4,0-2.8,0.5-4.3,1.5l-1.4-2c1.8-1.4,3.9-2.2,6.2-2.2
				c1.8,0,3.2,0.4,4.3,1.3s1.7,2.3,1.7,4.2V940.2z M668.3,934.7v-1.3h-3.5c-2.3,0-3.4,0.7-3.4,2.1c0,0.7,0.3,1.3,0.8,1.7
				s1.3,0.6,2.3,0.6c1,0,1.9-0.3,2.6-0.8C667.9,936.4,668.3,935.6,668.3,934.7z"/>
			<path class="st3" d="M682.1,923.2c-1,0-1.8,0.2-2.4,0.6c-0.6,0.4-0.9,1-0.9,1.8c0,0.8,0.3,1.4,0.9,1.8c0.6,0.4,1.9,0.9,3.9,1.4
				c2,0.5,3.5,1.2,4.5,2c1,0.9,1.5,2.2,1.5,3.9s-0.6,3.1-1.9,4.2c-1.3,1.1-3,1.6-5.1,1.6c-3.1,0-5.8-1.1-8.1-3.2l2.1-2.5
				c2,1.7,4,2.6,6.2,2.6c1.1,0,1.9-0.2,2.5-0.7c0.6-0.5,0.9-1.1,0.9-1.8s-0.3-1.3-0.9-1.8c-0.6-0.4-1.6-0.8-3-1.1
				c-1.4-0.3-2.5-0.7-3.3-1c-0.7-0.3-1.4-0.7-2-1.1c-1.2-0.9-1.7-2.2-1.7-4s0.7-3.2,2-4.2c1.3-1,2.9-1.5,4.9-1.5
				c1.3,0,2.5,0.2,3.7,0.6c1.2,0.4,2.3,1,3.2,1.7l-1.8,2.5c-0.6-0.5-1.4-1-2.4-1.3C684.1,923.4,683.1,923.2,682.1,923.2z"/>
			<path class="st3" d="M700,940.4c-2.1,0-3.9-0.7-5.3-2.1c-1.5-1.4-2.2-3.3-2.2-5.5s0.8-4.1,2.3-5.6c1.6-1.4,3.5-2.1,5.7-2.1
				s4.1,0.8,5.7,2.3l-1.8,2.3c-1.3-1.1-2.6-1.7-3.9-1.7s-2.4,0.4-3.4,1.3c-1,0.9-1.4,2-1.4,3.4s0.5,2.5,1.4,3.5c1,1,2.1,1.4,3.5,1.4
				s2.7-0.6,3.9-1.9l1.8,2C704.5,939.5,702.4,940.4,700,940.4z"/>
			<path class="st3" d="M717.3,928.2c-1.5,0-2.7,0.5-3.5,1.5c-0.8,1-1.2,2.4-1.2,4.1v6.4h-3.1v-14.9h3.1v3c0.5-0.9,1.2-1.7,2.1-2.3
				c0.9-0.6,1.8-0.9,2.8-0.9l0,3.2C717.4,928.2,717.4,928.2,717.3,928.2z"/>
			<path class="st3" d="M720.8,922.3c-0.4-0.4-0.6-0.9-0.6-1.4c0-0.5,0.2-1,0.6-1.4c0.4-0.4,0.9-0.6,1.4-0.6c0.5,0,1,0.2,1.4,0.6
				c0.4,0.4,0.6,0.9,0.6,1.4c0,0.5-0.2,1-0.6,1.4c-0.4,0.4-0.9,0.6-1.4,0.6C721.7,922.9,721.2,922.7,720.8,922.3z M723.8,940.2h-3.1
				v-14.9h3.1V940.2z"/>
			<path class="st3" d="M736.3,925.1c2,0,3.7,0.7,5.1,2.1c1.4,1.4,2.1,3.2,2.1,5.5s-0.7,4.2-2.1,5.6s-3.1,2.2-4.9,2.2
				s-3.6-0.8-5.1-2.5v7.7h-3.1v-20.3h3.1v2.6C732.7,926,734.3,925.1,736.3,925.1z M731.4,932.8c0,1.4,0.4,2.6,1.3,3.5
				s1.9,1.4,3.1,1.4c1.2,0,2.3-0.4,3.2-1.3c0.9-0.9,1.4-2.1,1.4-3.5c0-1.4-0.4-2.6-1.3-3.6c-0.9-0.9-2-1.4-3.2-1.4s-2.3,0.5-3.2,1.4
				S731.4,931.4,731.4,932.8z"/>
			<path class="st3" d="M751,927.8v7.6c0,0.7,0.2,1.3,0.6,1.7c0.4,0.4,0.9,0.6,1.6,0.6s1.3-0.3,1.9-1l1.3,2.2
				c-1.1,1-2.3,1.5-3.7,1.5c-1.3,0-2.5-0.5-3.4-1.4c-0.9-0.9-1.4-2.2-1.4-3.7v-7.5H746v-2.5h1.9v-4.7h3.1v4.7h3.9v2.5H751z"/>
			<path class="st3" d="M778.6,940.2h-2.9v-2c-1.2,1.5-2.9,2.2-5,2.2c-1.5,0-2.8-0.4-3.9-1.3s-1.5-2-1.5-3.5c0-1.5,0.5-2.6,1.6-3.3
				c1.1-0.7,2.5-1.1,4.4-1.1h4.1v-0.6c0-2-1.1-3-3.3-3c-1.4,0-2.8,0.5-4.3,1.5l-1.4-2c1.8-1.4,3.9-2.2,6.2-2.2
				c1.8,0,3.2,0.4,4.3,1.3s1.7,2.3,1.7,4.2V940.2z M775.4,934.7v-1.3h-3.5c-2.3,0-3.4,0.7-3.4,2.1c0,0.7,0.3,1.3,0.8,1.7
				s1.3,0.6,2.3,0.6c1,0,1.9-0.3,2.6-0.8C775.1,936.4,775.4,935.6,775.4,934.7z"/>
			<path class="st3" d="M790.9,925.1c2,0,3.7,0.7,5.1,2.1c1.4,1.4,2.1,3.2,2.1,5.5s-0.7,4.2-2.1,5.6s-3.1,2.2-4.9,2.2
				s-3.6-0.8-5.1-2.5v7.7h-3.1v-20.3h3.1v2.6C787.3,926,788.9,925.1,790.9,925.1z M786,932.8c0,1.4,0.4,2.6,1.3,3.5s1.9,1.4,3.1,1.4
				c1.2,0,2.3-0.4,3.2-1.3c0.9-0.9,1.4-2.1,1.4-3.5c0-1.4-0.4-2.6-1.3-3.6c-0.9-0.9-2-1.4-3.2-1.4s-2.3,0.5-3.2,1.4
				S786,931.4,786,932.8z"/>
			<path class="st3" d="M809.7,925.1c2,0,3.7,0.7,5.1,2.1c1.4,1.4,2.1,3.2,2.1,5.5s-0.7,4.2-2.1,5.6s-3.1,2.2-4.9,2.2
				s-3.6-0.8-5.1-2.5v7.7h-3.1v-20.3h3.1v2.6C806.1,926,807.7,925.1,809.7,925.1z M804.8,932.8c0,1.4,0.4,2.6,1.3,3.5
				s1.9,1.4,3.1,1.4c1.2,0,2.3-0.4,3.2-1.3c0.9-0.9,1.4-2.1,1.4-3.5c0-1.4-0.4-2.6-1.3-3.6c-0.9-0.9-2-1.4-3.2-1.4s-2.3,0.5-3.2,1.4
				S804.8,931.4,804.8,932.8z"/>
			<path class="st3" d="M823.7,940.2h-3.1v-20.8h3.1V940.2z"/>
			<path class="st3" d="M828.4,922.3c-0.4-0.4-0.6-0.9-0.6-1.4c0-0.5,0.2-1,0.6-1.4c0.4-0.4,0.9-0.6,1.4-0.6c0.5,0,1,0.2,1.4,0.6
				c0.4,0.4,0.6,0.9,0.6,1.4c0,0.5-0.2,1-0.6,1.4c-0.4,0.4-0.9,0.6-1.4,0.6C829.3,922.9,828.8,922.7,828.4,922.3z M831.4,940.2h-3.1
				v-14.9h3.1V940.2z"/>
			<path class="st3" d="M842.5,940.4c-2.1,0-3.9-0.7-5.3-2.1c-1.5-1.4-2.2-3.3-2.2-5.5s0.8-4.1,2.3-5.6c1.6-1.4,3.5-2.1,5.7-2.1
				s4.1,0.8,5.7,2.3l-1.8,2.3c-1.3-1.1-2.6-1.7-3.9-1.7s-2.4,0.4-3.4,1.3c-1,0.9-1.4,2-1.4,3.4s0.5,2.5,1.4,3.5c1,1,2.1,1.4,3.5,1.4
				s2.7-0.6,3.9-1.9l1.8,2C847,939.5,844.9,940.4,842.5,940.4z"/>
			<path class="st3" d="M864.1,940.2h-2.9v-2c-1.2,1.5-2.9,2.2-5,2.2c-1.5,0-2.8-0.4-3.9-1.3s-1.5-2-1.5-3.5c0-1.5,0.5-2.6,1.6-3.3
				c1.1-0.7,2.5-1.1,4.4-1.1h4.1v-0.6c0-2-1.1-3-3.3-3c-1.4,0-2.8,0.5-4.3,1.5l-1.4-2c1.8-1.4,3.9-2.2,6.2-2.2
				c1.8,0,3.2,0.4,4.3,1.3s1.7,2.3,1.7,4.2V940.2z M861,934.7v-1.3h-3.5c-2.3,0-3.4,0.7-3.4,2.1c0,0.7,0.3,1.3,0.8,1.7
				s1.3,0.6,2.3,0.6c1,0,1.9-0.3,2.6-0.8C860.6,936.4,861,935.6,861,934.7z"/>
			<path class="st3" d="M872.3,927.8v7.6c0,0.7,0.2,1.3,0.6,1.7c0.4,0.4,0.9,0.6,1.6,0.6s1.3-0.3,1.9-1l1.3,2.2
				c-1.1,1-2.3,1.5-3.7,1.5c-1.3,0-2.5-0.5-3.4-1.4c-0.9-0.9-1.4-2.2-1.4-3.7v-7.5h-1.9v-2.5h1.9v-4.7h3.1v4.7h3.9v2.5H872.3z"/>
			<path class="st3" d="M880.4,922.3c-0.4-0.4-0.6-0.9-0.6-1.4c0-0.5,0.2-1,0.6-1.4c0.4-0.4,0.9-0.6,1.4-0.6c0.5,0,1,0.2,1.4,0.6
				c0.4,0.4,0.6,0.9,0.6,1.4c0,0.5-0.2,1-0.6,1.4c-0.4,0.4-0.9,0.6-1.4,0.6C881.2,922.9,880.8,922.7,880.4,922.3z M883.3,940.2h-3.1
				v-14.9h3.1V940.2z"/>
			<path class="st3" d="M900.3,938.2c-1.5,1.5-3.4,2.2-5.6,2.2s-4.1-0.7-5.6-2.2c-1.5-1.5-2.2-3.3-2.2-5.4c0-2.1,0.7-4,2.2-5.4
				c1.5-1.5,3.4-2.2,5.6-2.2s4.1,0.7,5.6,2.2c1.5,1.5,2.2,3.3,2.2,5.4C902.6,934.9,901.8,936.7,900.3,938.2z M891.3,936.3
				c0.9,0.9,2,1.4,3.4,1.4s2.5-0.5,3.4-1.4s1.3-2.1,1.3-3.5c0-1.4-0.4-2.6-1.3-3.5s-2-1.4-3.4-1.4s-2.5,0.5-3.4,1.4
				s-1.3,2.1-1.3,3.5C890,934.2,890.5,935.4,891.3,936.3z"/>
			<path class="st3" d="M909.2,932.1v8.1h-3.1v-14.9h3.1v2.7c0.5-0.9,1.2-1.6,2.1-2.2c0.9-0.5,1.8-0.8,2.9-0.8c1.7,0,3,0.5,4.1,1.5
				c1,1,1.6,2.5,1.6,4.5v9.1h-3.1V932c0-2.7-1.1-4.1-3.4-4.1c-1.1,0-2,0.4-2.8,1.1C909.6,929.7,909.2,930.8,909.2,932.1z"/>
			<path class="st3" d="M938.5,940.4c-2.1,0-3.9-0.7-5.3-2.1c-1.5-1.4-2.2-3.3-2.2-5.5s0.8-4.1,2.3-5.6c1.6-1.4,3.5-2.1,5.7-2.1
				s4.1,0.8,5.7,2.3l-1.8,2.3c-1.3-1.1-2.6-1.7-3.9-1.7s-2.4,0.4-3.4,1.3c-1,0.9-1.4,2-1.4,3.4s0.5,2.5,1.4,3.5c1,1,2.1,1.4,3.5,1.4
				s2.7-0.6,3.9-1.9l1.8,2C942.9,939.5,940.8,940.4,938.5,940.4z"/>
			<path class="st3" d="M960.5,938.2c-1.5,1.5-3.4,2.2-5.6,2.2s-4.1-0.7-5.6-2.2c-1.5-1.5-2.2-3.3-2.2-5.4c0-2.1,0.7-4,2.2-5.4
				c1.5-1.5,3.4-2.2,5.6-2.2s4.1,0.7,5.6,2.2c1.5,1.5,2.2,3.3,2.2,5.4C962.7,934.9,961.9,936.7,960.5,938.2z M951.5,936.3
				c0.9,0.9,2,1.4,3.4,1.4s2.5-0.5,3.4-1.4s1.3-2.1,1.3-3.5c0-1.4-0.4-2.6-1.3-3.5s-2-1.4-3.4-1.4s-2.5,0.5-3.4,1.4
				s-1.3,2.1-1.3,3.5C950.2,934.2,950.6,935.4,951.5,936.3z"/>
			<path class="st3" d="M967.4,938.3c-1.4-1.4-2.1-3.3-2.1-5.6s0.7-4.2,2.2-5.5c1.4-1.4,3.2-2.1,5.1-2.1c2,0,3.6,0.8,4.8,2.5v-8.2
				h3.1v20.8h-3.1V938c-1.2,1.6-2.8,2.5-5.1,2.5C970.4,940.4,968.8,939.7,967.4,938.3z M968.4,932.8c0,1.4,0.5,2.6,1.4,3.5
				c0.9,0.9,2,1.3,3.2,1.3s2.3-0.5,3.1-1.4c0.9-0.9,1.3-2.1,1.3-3.5c0-1.4-0.4-2.6-1.3-3.6s-1.9-1.4-3.2-1.4c-1.3,0-2.3,0.5-3.2,1.4
				C968.9,930.2,968.4,931.4,968.4,932.8z"/>
			<path class="st3" d="M998.9,934.1h-11.7c0.1,1.1,0.6,2,1.5,2.6c0.9,0.7,2,1,3.1,1c1.9,0,3.3-0.6,4.3-1.8l1.8,2
				c-1.6,1.7-3.7,2.5-6.3,2.5c-2.1,0-3.9-0.7-5.3-2.1c-1.5-1.4-2.2-3.3-2.2-5.6s0.7-4.2,2.2-5.6c1.5-1.4,3.3-2.1,5.3-2.1
				s3.7,0.6,5.2,1.8c1.4,1.2,2.1,2.9,2.1,5.1V934.1z M987.3,931.7h8.5c0-1.3-0.4-2.2-1.2-2.9c-0.8-0.7-1.8-1-2.9-1s-2.2,0.3-3.1,1
				C987.7,929.5,987.3,930.5,987.3,931.7z"/>
		</g>
	</g>
	<polygon class="st5" points="819.9,222.3 819.9,155.1 814.4,155.1 814.4,222.3 806.7,222.3 811,229.8 823.3,229.8 827.6,222.3 	"/>
	<path class="st6" d="M1037.8,190.7c0,6.1-4.9,11-11,11H607.5c-6.1,0-11-4.9-11-11v-83.1c0-6.1,4.9-11,11-11h419.2
		c6.1,0,11,4.9,11,11V190.7z"/>
	<path class="st4" d="M953.9,632.4c0,6.5-5.3,11.7-11.7,11.7H313.5c-6.5,0-11.7-5.2-11.7-11.7v-46.7c0-6.5,5.3-11.7,11.7-11.7h628.7
		c6.5,0,11.7,5.3,11.7,11.7V632.4z"/>
	<g>
		<g>
			<path class="st3" d="M355.2,615l-2,4.5h-3.5l8.6-19.6h3.5l8.6,19.6H367l-2-4.5H355.2z M363.7,612l-3.6-8.1l-3.6,8.1H363.7z"/>
			<path class="st3" d="M380.7,604.3c2,0,3.7,0.7,5.1,2.1c1.4,1.4,2.1,3.2,2.1,5.5s-0.7,4.2-2.1,5.6s-3.1,2.2-4.9,2.2
				s-3.6-0.8-5.1-2.5v7.7h-3.1v-20.3h3.1v2.6C377.1,605.3,378.7,604.3,380.7,604.3z M375.8,612c0,1.4,0.4,2.6,1.3,3.5
				s1.9,1.4,3.1,1.4c1.2,0,2.3-0.4,3.2-1.3c0.9-0.9,1.4-2.1,1.4-3.5c0-1.4-0.4-2.6-1.3-3.6c-0.9-0.9-2-1.4-3.2-1.4s-2.3,0.5-3.2,1.4
				S375.8,610.6,375.8,612z"/>
			<path class="st3" d="M399.6,604.3c2,0,3.7,0.7,5.1,2.1c1.4,1.4,2.1,3.2,2.1,5.5s-0.7,4.2-2.1,5.6s-3.1,2.2-4.9,2.2
				s-3.6-0.8-5.1-2.5v7.7h-3.1v-20.3h3.1v2.6C396,605.3,397.6,604.3,399.6,604.3z M394.7,612c0,1.4,0.4,2.6,1.3,3.5s1.9,1.4,3.1,1.4
				c1.2,0,2.3-0.4,3.2-1.3c0.9-0.9,1.4-2.1,1.4-3.5c0-1.4-0.4-2.6-1.3-3.6c-0.9-0.9-2-1.4-3.2-1.4s-2.3,0.5-3.2,1.4
				S394.7,610.6,394.7,612z"/>
			<path class="st3" d="M413.5,619.5h-3.1v-20.8h3.1V619.5z"/>
			<path class="st3" d="M431.9,613.4h-11.7c0.1,1.1,0.6,2,1.5,2.6c0.9,0.7,2,1,3.1,1c1.9,0,3.3-0.6,4.3-1.8l1.8,2
				c-1.6,1.7-3.7,2.5-6.3,2.5c-2.1,0-3.9-0.7-5.3-2.1c-1.5-1.4-2.2-3.3-2.2-5.6s0.7-4.2,2.2-5.6c1.5-1.4,3.3-2.1,5.3-2.1
				s3.7,0.6,5.2,1.8c1.4,1.2,2.1,2.9,2.1,5.1V613.4z M420.3,610.9h8.5c0-1.3-0.4-2.2-1.2-2.9c-0.8-0.7-1.8-1-2.9-1s-2.2,0.3-3.1,1
				C420.7,608.8,420.3,609.7,420.3,610.9z"/>
			<path class="st3" d="M444.1,602.9v-3h9.5v12.9c0,2.3-0.6,4-1.7,5.1s-2.6,1.7-4.5,1.7c-2.3,0-4.2-0.8-5.8-2.4l1.9-2.6
				c1.3,1.2,2.5,1.8,3.7,1.8c0.9,0,1.6-0.3,2.2-0.9c0.6-0.6,0.9-1.4,0.9-2.6v-10.1H444.1z"/>
			<path class="st3" d="M470.5,619.5h-2.9v-2c-1.2,1.5-2.9,2.2-5,2.2c-1.5,0-2.8-0.4-3.9-1.3s-1.5-2-1.5-3.5c0-1.5,0.5-2.6,1.6-3.3
				c1.1-0.7,2.5-1.1,4.4-1.1h4.1v-0.6c0-2-1.1-3-3.3-3c-1.4,0-2.8,0.5-4.3,1.5l-1.4-2c1.8-1.4,3.9-2.2,6.2-2.2
				c1.8,0,3.2,0.4,4.3,1.3s1.7,2.3,1.7,4.2V619.5z M467.4,613.9v-1.3h-3.5c-2.3,0-3.4,0.7-3.4,2.1c0,0.7,0.3,1.3,0.8,1.7
				s1.3,0.6,2.3,0.6c1,0,1.9-0.3,2.6-0.8C467,615.6,467.4,614.9,467.4,613.9z"/>
			<path class="st3" d="M478.9,619.5l-6-14.9h3.2l4.5,11.3l4.5-11.3h3.2l-6,14.9H478.9z"/>
			<path class="st3" d="M503,619.5h-2.9v-2c-1.2,1.5-2.9,2.2-5,2.2c-1.5,0-2.8-0.4-3.9-1.3s-1.5-2-1.5-3.5c0-1.5,0.5-2.6,1.6-3.3
				c1.1-0.7,2.5-1.1,4.4-1.1h4.1v-0.6c0-2-1.1-3-3.3-3c-1.4,0-2.8,0.5-4.3,1.5l-1.4-2c1.8-1.4,3.9-2.2,6.2-2.2
				c1.8,0,3.2,0.4,4.3,1.3s1.7,2.3,1.7,4.2V619.5z M499.9,613.9v-1.3h-3.5c-2.3,0-3.4,0.7-3.4,2.1c0,0.7,0.3,1.3,0.8,1.7
				s1.3,0.6,2.3,0.6c1,0,1.9-0.3,2.6-0.8C499.5,615.6,499.9,614.9,499.9,613.9z"/>
			<path class="st3" d="M513.7,602.5c-1,0-1.8,0.2-2.4,0.6c-0.6,0.4-0.9,1-0.9,1.8c0,0.8,0.3,1.4,0.9,1.8c0.6,0.4,1.9,0.9,3.9,1.4
				c2,0.5,3.5,1.2,4.5,2c1,0.9,1.5,2.2,1.5,3.9s-0.6,3.1-1.9,4.2c-1.3,1.1-3,1.6-5.1,1.6c-3.1,0-5.8-1.1-8.1-3.2l2.1-2.5
				c2,1.7,4,2.6,6.2,2.6c1.1,0,1.9-0.2,2.5-0.7c0.6-0.5,0.9-1.1,0.9-1.8s-0.3-1.3-0.9-1.8c-0.6-0.4-1.6-0.8-3-1.1
				c-1.4-0.3-2.5-0.7-3.3-1c-0.7-0.3-1.4-0.7-2-1.1c-1.2-0.9-1.7-2.2-1.7-4s0.7-3.2,2-4.2c1.3-1,2.9-1.5,4.9-1.5
				c1.3,0,2.5,0.2,3.7,0.6c1.2,0.4,2.3,1,3.2,1.7l-1.8,2.5c-0.6-0.5-1.4-1-2.4-1.3C515.7,602.6,514.7,602.5,513.7,602.5z"/>
			<path class="st3" d="M531.6,619.7c-2.1,0-3.9-0.7-5.3-2.1c-1.5-1.4-2.2-3.3-2.2-5.5s0.8-4.1,2.3-5.6c1.6-1.4,3.5-2.1,5.7-2.1
				s4.1,0.8,5.7,2.3l-1.8,2.3c-1.3-1.1-2.6-1.7-3.9-1.7s-2.4,0.4-3.4,1.3c-1,0.9-1.4,2-1.4,3.4s0.5,2.5,1.4,3.5c1,1,2.1,1.4,3.5,1.4
				s2.7-0.6,3.9-1.9l1.8,2C536.1,618.8,534,619.7,531.6,619.7z"/>
			<path class="st3" d="M548.9,607.5c-1.5,0-2.7,0.5-3.5,1.5c-0.8,1-1.2,2.4-1.2,4.1v6.4h-3.1v-14.9h3.1v3c0.5-0.9,1.2-1.7,2.1-2.3
				c0.9-0.6,1.8-0.9,2.8-0.9l0,3.2C549.1,607.5,549,607.5,548.9,607.5z"/>
			<path class="st3" d="M552.4,601.6c-0.4-0.4-0.6-0.9-0.6-1.4c0-0.5,0.2-1,0.6-1.4c0.4-0.4,0.9-0.6,1.4-0.6c0.5,0,1,0.2,1.4,0.6
				c0.4,0.4,0.6,0.9,0.6,1.4c0,0.5-0.2,1-0.6,1.4c-0.4,0.4-0.9,0.6-1.4,0.6C553.3,602.2,552.8,602,552.4,601.6z M555.4,619.5h-3.1
				v-14.9h3.1V619.5z"/>
			<path class="st3" d="M567.9,604.3c2,0,3.7,0.7,5.1,2.1c1.4,1.4,2.1,3.2,2.1,5.5s-0.7,4.2-2.1,5.6s-3.1,2.2-4.9,2.2
				s-3.6-0.8-5.1-2.5v7.7h-3.1v-20.3h3.1v2.6C564.3,605.3,565.9,604.3,567.9,604.3z M563,612c0,1.4,0.4,2.6,1.3,3.5s1.9,1.4,3.1,1.4
				c1.2,0,2.3-0.4,3.2-1.3c0.9-0.9,1.4-2.1,1.4-3.5c0-1.4-0.4-2.6-1.3-3.6c-0.9-0.9-2-1.4-3.2-1.4s-2.3,0.5-3.2,1.4
				S563,610.6,563,612z"/>
			<path class="st3" d="M582.6,607.1v7.6c0,0.7,0.2,1.3,0.6,1.7c0.4,0.4,0.9,0.6,1.6,0.6s1.3-0.3,1.9-1l1.3,2.2
				c-1.1,1-2.3,1.5-3.7,1.5c-1.3,0-2.5-0.5-3.4-1.4c-0.9-0.9-1.4-2.2-1.4-3.7v-7.5h-1.9v-2.5h1.9v-4.7h3.1v4.7h3.9v2.5H582.6z"/>
			<path class="st3" d="M607.5,616.5c1.1,0,2.1-0.2,2.9-0.6c0.8-0.4,1.7-1,2.6-1.8l2.1,2.2c-2.1,2.3-4.6,3.4-7.5,3.4
				c-3,0-5.4-1-7.4-2.9s-2.9-4.3-2.9-7.2c0-2.9,1-5.3,3-7.3c2-1.9,4.5-2.9,7.5-2.9s5.6,1.1,7.6,3.4l-2.1,2.3
				c-0.9-0.9-1.8-1.5-2.6-1.9c-0.8-0.4-1.8-0.5-2.9-0.5c-2,0-3.6,0.6-5,1.9s-2,2.9-2,4.9c0,2,0.7,3.7,2,5
				C604.1,615.8,605.7,616.5,607.5,616.5z"/>
			<path class="st3" d="M631.2,617.5c-1.5,1.5-3.4,2.2-5.6,2.2s-4.1-0.7-5.6-2.2c-1.5-1.5-2.2-3.3-2.2-5.4c0-2.1,0.7-4,2.2-5.4
				c1.5-1.5,3.4-2.2,5.6-2.2s4.1,0.7,5.6,2.2c1.5,1.5,2.2,3.3,2.2,5.4C633.4,614.2,632.7,616,631.2,617.5z M622.2,615.5
				c0.9,0.9,2,1.4,3.4,1.4s2.5-0.5,3.4-1.4s1.3-2.1,1.3-3.5c0-1.4-0.4-2.6-1.3-3.5s-2-1.4-3.4-1.4s-2.5,0.5-3.4,1.4
				s-1.3,2.1-1.3,3.5C620.9,613.4,621.3,614.6,622.2,615.5z"/>
			<path class="st3" d="M644.8,607.5c-1.5,0-2.7,0.5-3.5,1.5c-0.8,1-1.2,2.4-1.2,4.1v6.4H637v-14.9h3.1v3c0.5-0.9,1.2-1.7,2.1-2.3
				c0.9-0.6,1.8-0.9,2.8-0.9l0,3.2C644.9,607.5,644.8,607.5,644.8,607.5z"/>
			<path class="st3" d="M661.9,613.4h-11.7c0.1,1.1,0.6,2,1.5,2.6c0.9,0.7,2,1,3.1,1c1.9,0,3.3-0.6,4.3-1.8l1.8,2
				c-1.6,1.7-3.7,2.5-6.3,2.5c-2.1,0-3.9-0.7-5.3-2.1c-1.5-1.4-2.2-3.3-2.2-5.6s0.7-4.2,2.2-5.6c1.5-1.4,3.3-2.1,5.3-2.1
				s3.7,0.6,5.2,1.8c1.4,1.2,2.1,2.9,2.1,5.1V613.4z M650.3,610.9h8.5c0-1.3-0.4-2.2-1.2-2.9c-0.8-0.7-1.8-1-2.9-1s-2.2,0.3-3.1,1
				C650.7,608.8,650.3,609.7,650.3,610.9z"/>
			<path class="st3" d="M676.9,607.1v7.6c0,0.7,0.2,1.3,0.6,1.7c0.4,0.4,0.9,0.6,1.6,0.6s1.3-0.3,1.9-1l1.3,2.2
				c-1.1,1-2.3,1.5-3.7,1.5c-1.3,0-2.5-0.5-3.4-1.4c-0.9-0.9-1.4-2.2-1.4-3.7v-7.5h-1.9v-2.5h1.9v-4.7h3.1v4.7h3.9v2.5H676.9z"/>
			<path class="st3" d="M697.2,617.5c-1.5,1.5-3.4,2.2-5.6,2.2s-4.1-0.7-5.6-2.2c-1.5-1.5-2.2-3.3-2.2-5.4c0-2.1,0.7-4,2.2-5.4
				c1.5-1.5,3.4-2.2,5.6-2.2s4.1,0.7,5.6,2.2c1.5,1.5,2.2,3.3,2.2,5.4C699.5,614.2,698.7,616,697.2,617.5z M688.3,615.5
				c0.9,0.9,2,1.4,3.4,1.4s2.5-0.5,3.4-1.4s1.3-2.1,1.3-3.5c0-1.4-0.4-2.6-1.3-3.5s-2-1.4-3.4-1.4s-2.5,0.5-3.4,1.4
				s-1.3,2.1-1.3,3.5C686.9,613.4,687.4,614.6,688.3,615.5z"/>
			<path class="st3" d="M725.8,599.9h3.3v19.6h-3.6l-11.1-14.3v14.3h-3.3v-19.6h3.3l11.4,14.6V599.9z"/>
			<path class="st3" d="M746.2,619.5h-2.9v-2c-1.2,1.5-2.9,2.2-5,2.2c-1.5,0-2.8-0.4-3.9-1.3s-1.5-2-1.5-3.5c0-1.5,0.5-2.6,1.6-3.3
				c1.1-0.7,2.5-1.1,4.4-1.1h4.1v-0.6c0-2-1.1-3-3.3-3c-1.4,0-2.8,0.5-4.3,1.5l-1.4-2c1.8-1.4,3.9-2.2,6.2-2.2
				c1.8,0,3.2,0.4,4.3,1.3s1.7,2.3,1.7,4.2V619.5z M743,613.9v-1.3h-3.5c-2.3,0-3.4,0.7-3.4,2.1c0,0.7,0.3,1.3,0.8,1.7
				s1.3,0.6,2.3,0.6c1,0,1.9-0.3,2.6-0.8C742.7,615.6,743,614.9,743,613.9z"/>
			<path class="st3" d="M754.4,607.1v7.6c0,0.7,0.2,1.3,0.6,1.7c0.4,0.4,0.9,0.6,1.6,0.6s1.3-0.3,1.9-1l1.3,2.2
				c-1.1,1-2.3,1.5-3.7,1.5c-1.3,0-2.5-0.5-3.4-1.4c-0.9-0.9-1.4-2.2-1.4-3.7v-7.5h-1.9v-2.5h1.9v-4.7h3.1v4.7h3.9v2.5H754.4z"/>
			<path class="st3" d="M762.4,601.6c-0.4-0.4-0.6-0.9-0.6-1.4c0-0.5,0.2-1,0.6-1.4c0.4-0.4,0.9-0.6,1.4-0.6c0.5,0,1,0.2,1.4,0.6
				c0.4,0.4,0.6,0.9,0.6,1.4c0,0.5-0.2,1-0.6,1.4c-0.4,0.4-0.9,0.6-1.4,0.6C763.3,602.2,762.8,602,762.4,601.6z M765.4,619.5h-3.1
				v-14.9h3.1V619.5z"/>
			<path class="st3" d="M773.9,619.5l-6-14.9h3.2l4.5,11.3l4.5-11.3h3.2l-6,14.9H773.9z"/>
			<path class="st3" d="M799.8,613.4h-11.7c0.1,1.1,0.6,2,1.5,2.6c0.9,0.7,2,1,3.1,1c1.9,0,3.3-0.6,4.3-1.8l1.8,2
				c-1.6,1.7-3.7,2.5-6.3,2.5c-2.1,0-3.9-0.7-5.3-2.1c-1.5-1.4-2.2-3.3-2.2-5.6s0.7-4.2,2.2-5.6c1.5-1.4,3.3-2.1,5.3-2.1
				s3.7,0.6,5.2,1.8c1.4,1.2,2.1,2.9,2.1,5.1V613.4z M788.1,610.9h8.5c0-1.3-0.4-2.2-1.2-2.9c-0.8-0.7-1.8-1-2.9-1s-2.2,0.3-3.1,1
				C788.6,608.8,788.1,609.7,788.1,610.9z"/>
			<path class="st3" d="M819.9,619.5h-8.6v-19.6h7.6c1.3,0,2.5,0.2,3.4,0.5c1,0.3,1.7,0.7,2.1,1.3c0.9,1,1.3,2.1,1.3,3.4
				c0,1.5-0.5,2.7-1.5,3.4c-0.4,0.3-0.6,0.4-0.7,0.5c-0.1,0.1-0.4,0.2-0.7,0.3c1.2,0.3,2.2,0.8,2.9,1.6c0.7,0.8,1.1,1.9,1.1,3.1
				c0,1.4-0.5,2.6-1.4,3.6C824.5,618.9,822.6,619.5,819.9,619.5z M814.7,608h4.2c2.4,0,3.6-0.8,3.6-2.4c0-0.9-0.3-1.6-0.9-2
				c-0.6-0.4-1.5-0.6-2.7-0.6h-4.2V608z M814.7,616.4h5.2c1.2,0,2.1-0.2,2.8-0.6c0.6-0.4,1-1.1,1-2.2c0-1.7-1.4-2.6-4.2-2.6h-4.8
				V616.4z"/>
			<path class="st3" d="M838.5,607.5c-1.5,0-2.7,0.5-3.5,1.5c-0.8,1-1.2,2.4-1.2,4.1v6.4h-3.1v-14.9h3.1v3c0.5-0.9,1.2-1.7,2.1-2.3
				c0.9-0.6,1.8-0.9,2.8-0.9l0,3.2C838.6,607.5,838.5,607.5,838.5,607.5z"/>
			<path class="st3" d="M842,601.6c-0.4-0.4-0.6-0.9-0.6-1.4c0-0.5,0.2-1,0.6-1.4c0.4-0.4,0.9-0.6,1.4-0.6c0.5,0,1,0.2,1.4,0.6
				c0.4,0.4,0.6,0.9,0.6,1.4c0,0.5-0.2,1-0.6,1.4c-0.4,0.4-0.9,0.6-1.4,0.6C842.8,602.2,842.4,602,842,601.6z M844.9,619.5h-3.1
				v-14.9h3.1V619.5z"/>
			<path class="st3" d="M850.6,617.6c-1.4-1.4-2.1-3.3-2.1-5.6s0.7-4.2,2.2-5.5c1.4-1.4,3.2-2.1,5.1-2.1c2,0,3.6,0.8,4.8,2.5v-8.2
				h3.1v20.8h-3.1v-2.2c-1.2,1.6-2.8,2.5-5.1,2.5C853.6,619.7,852,619,850.6,617.6z M851.6,612.1c0,1.4,0.5,2.6,1.4,3.5
				c0.9,0.9,2,1.3,3.2,1.3s2.3-0.5,3.1-1.4c0.9-0.9,1.3-2.1,1.3-3.5c0-1.4-0.4-2.6-1.3-3.6s-1.9-1.4-3.2-1.4c-1.3,0-2.3,0.5-3.2,1.4
				C852.1,609.5,851.6,610.7,851.6,612.1z"/>
			<path class="st3" d="M882.1,604.6v13c0,2.6-0.7,4.6-2.1,5.9c-1.4,1.3-3.3,2-5.5,2c-2.2,0-4.3-0.7-6.1-2.1l1.5-2.4
				c1.5,1.1,2.9,1.7,4.4,1.7c1.5,0,2.7-0.4,3.5-1.1s1.3-2,1.3-3.7v-1.9c-0.5,0.9-1.1,1.6-2,2.1s-1.8,0.8-2.9,0.8
				c-2,0-3.6-0.7-4.9-2.1c-1.3-1.4-1.9-3.1-1.9-5.2c0-2.1,0.6-3.8,1.9-5.2c1.3-1.4,2.9-2.1,4.9-2.1c2,0,3.6,0.8,4.8,2.4v-2.2H882.1z
				 M870.4,611.4c0,1.2,0.4,2.3,1.1,3.2c0.8,0.9,1.8,1.3,3.1,1.3c1.3,0,2.3-0.4,3.1-1.3c0.8-0.9,1.2-1.9,1.2-3.2
				c0-1.3-0.4-2.4-1.2-3.2s-1.8-1.3-3.1-1.3s-2.3,0.5-3,1.4C870.8,609.1,870.4,610.2,870.4,611.4z"/>
			<path class="st3" d="M900.4,613.4h-11.7c0.1,1.1,0.6,2,1.5,2.6c0.9,0.7,2,1,3.1,1c1.9,0,3.3-0.6,4.3-1.8l1.8,2
				c-1.6,1.7-3.7,2.5-6.3,2.5c-2.1,0-3.9-0.7-5.3-2.1c-1.5-1.4-2.2-3.3-2.2-5.6s0.7-4.2,2.2-5.6c1.5-1.4,3.3-2.1,5.3-2.1
				s3.7,0.6,5.2,1.8c1.4,1.2,2.1,2.9,2.1,5.1V613.4z M888.8,610.9h8.5c0-1.3-0.4-2.2-1.2-2.9c-0.8-0.7-1.8-1-2.9-1s-2.2,0.3-3.1,1
				C889.2,608.8,888.8,609.7,888.8,610.9z"/>
		</g>
	</g>
	<path class="st4" d="M1328.6,632.5c0,6.5-5.3,11.7-11.7,11.7H995.8c-6.5,0-11.7-5.2-11.7-11.7v-46.7c0-6.5,5.3-11.7,11.7-11.7
		h321.1c6.5,0,11.7,5.3,11.7,11.7V632.5z"/>
	<g>
		<g>
			<path class="st3" d="M1021.4,604.9v-3h9.5v12.9c0,2.3-0.6,4-1.7,5.1s-2.6,1.7-4.5,1.7c-2.3,0-4.2-0.8-5.8-2.4l1.9-2.6
				c1.3,1.2,2.5,1.8,3.7,1.8c0.9,0,1.6-0.3,2.2-0.9c0.6-0.6,0.9-1.4,0.9-2.6v-10.1H1021.4z"/>
			<path class="st3" d="M1047.8,621.5h-2.9v-2c-1.2,1.5-2.9,2.2-5,2.2c-1.5,0-2.8-0.4-3.9-1.3s-1.5-2-1.5-3.5c0-1.5,0.5-2.6,1.6-3.3
				c1.1-0.7,2.5-1.1,4.4-1.1h4.1v-0.6c0-2-1.1-3-3.3-3c-1.4,0-2.8,0.5-4.3,1.5l-1.4-2c1.8-1.4,3.9-2.2,6.2-2.2
				c1.8,0,3.2,0.4,4.3,1.3s1.7,2.3,1.7,4.2V621.5z M1044.6,615.9v-1.3h-3.5c-2.3,0-3.4,0.7-3.4,2.1c0,0.7,0.3,1.3,0.8,1.7
				s1.3,0.6,2.3,0.6c1,0,1.9-0.3,2.6-0.8C1044.3,617.6,1044.6,616.9,1044.6,615.9z"/>
			<path class="st3" d="M1056.1,621.5l-6-14.9h3.2l4.5,11.3l4.5-11.3h3.2l-6,14.9H1056.1z"/>
			<path class="st3" d="M1080.2,621.5h-2.9v-2c-1.2,1.5-2.9,2.2-5,2.2c-1.5,0-2.8-0.4-3.9-1.3s-1.5-2-1.5-3.5c0-1.5,0.5-2.6,1.6-3.3
				c1.1-0.7,2.5-1.1,4.4-1.1h4.1v-0.6c0-2-1.1-3-3.3-3c-1.4,0-2.8,0.5-4.3,1.5l-1.4-2c1.8-1.4,3.9-2.2,6.2-2.2
				c1.8,0,3.2,0.4,4.3,1.3s1.7,2.3,1.7,4.2V621.5z M1077.1,615.9v-1.3h-3.5c-2.3,0-3.4,0.7-3.4,2.1c0,0.7,0.3,1.3,0.8,1.7
				s1.3,0.6,2.3,0.6c1,0,1.9-0.3,2.6-0.8C1076.7,617.6,1077.1,616.9,1077.1,615.9z"/>
			<path class="st3" d="M1091,604.5c-1,0-1.8,0.2-2.4,0.6c-0.6,0.4-0.9,1-0.9,1.8c0,0.8,0.3,1.4,0.9,1.8c0.6,0.4,1.9,0.9,3.9,1.4
				c2,0.5,3.5,1.2,4.5,2c1,0.9,1.5,2.2,1.5,3.9s-0.6,3.1-1.9,4.2c-1.3,1.1-3,1.6-5.1,1.6c-3.1,0-5.8-1.1-8.1-3.2l2.1-2.5
				c2,1.7,4,2.6,6.2,2.6c1.1,0,1.9-0.2,2.5-0.7c0.6-0.5,0.9-1.1,0.9-1.8s-0.3-1.3-0.9-1.8c-0.6-0.4-1.6-0.8-3-1.1
				c-1.4-0.3-2.5-0.7-3.3-1c-0.7-0.3-1.4-0.7-2-1.1c-1.2-0.9-1.7-2.2-1.7-4s0.7-3.2,2-4.2c1.3-1,2.9-1.5,4.9-1.5
				c1.3,0,2.5,0.2,3.7,0.6c1.2,0.4,2.3,1,3.2,1.7l-1.8,2.5c-0.6-0.5-1.4-1-2.4-1.3C1092.9,604.6,1091.9,604.5,1091,604.5z"/>
			<path class="st3" d="M1108.8,621.7c-2.1,0-3.9-0.7-5.3-2.1c-1.5-1.4-2.2-3.3-2.2-5.5s0.8-4.1,2.3-5.6c1.6-1.4,3.5-2.1,5.7-2.1
				s4.1,0.8,5.7,2.3l-1.8,2.3c-1.3-1.1-2.6-1.7-3.9-1.7s-2.4,0.4-3.4,1.3c-1,0.9-1.4,2-1.4,3.4s0.5,2.5,1.4,3.5c1,1,2.1,1.4,3.5,1.4
				s2.7-0.6,3.9-1.9l1.8,2C1113.3,620.8,1111.2,621.7,1108.8,621.7z"/>
			<path class="st3" d="M1126.2,609.5c-1.5,0-2.7,0.5-3.5,1.5c-0.8,1-1.2,2.4-1.2,4.1v6.4h-3.1v-14.9h3.1v3c0.5-0.9,1.2-1.7,2.1-2.3
				c0.9-0.6,1.8-0.9,2.8-0.9l0,3.2C1126.3,609.5,1126.2,609.5,1126.2,609.5z"/>
			<path class="st3" d="M1129.7,603.6c-0.4-0.4-0.6-0.9-0.6-1.4c0-0.5,0.2-1,0.6-1.4c0.4-0.4,0.9-0.6,1.4-0.6c0.5,0,1,0.2,1.4,0.6
				c0.4,0.4,0.6,0.9,0.6,1.4c0,0.5-0.2,1-0.6,1.4c-0.4,0.4-0.9,0.6-1.4,0.6C1130.5,604.2,1130.1,604,1129.7,603.6z M1132.6,621.5
				h-3.1v-14.9h3.1V621.5z"/>
			<path class="st3" d="M1145.1,606.3c2,0,3.7,0.7,5.1,2.1c1.4,1.4,2.1,3.2,2.1,5.5s-0.7,4.2-2.1,5.6s-3.1,2.2-4.9,2.2
				s-3.6-0.8-5.1-2.5v7.7h-3.1v-20.3h3.1v2.6C1141.5,607.3,1143.1,606.3,1145.1,606.3z M1140.2,614c0,1.4,0.4,2.6,1.3,3.5
				s1.9,1.4,3.1,1.4c1.2,0,2.3-0.4,3.2-1.3c0.9-0.9,1.4-2.1,1.4-3.5c0-1.4-0.4-2.6-1.3-3.6c-0.9-0.9-2-1.4-3.2-1.4s-2.3,0.5-3.2,1.4
				S1140.2,612.6,1140.2,614z"/>
			<path class="st3" d="M1159.8,609.1v7.6c0,0.7,0.2,1.3,0.6,1.7c0.4,0.4,0.9,0.6,1.6,0.6s1.3-0.3,1.9-1l1.3,2.2
				c-1.1,1-2.3,1.5-3.7,1.5c-1.3,0-2.5-0.5-3.4-1.4c-0.9-0.9-1.4-2.2-1.4-3.7v-7.5h-1.9v-2.5h1.9v-4.7h3.1v4.7h3.9v2.5H1159.8z"/>
			<path class="st3" d="M1184.7,618.5c1.1,0,2.1-0.2,2.9-0.6c0.8-0.4,1.7-1,2.6-1.8l2.1,2.2c-2.1,2.3-4.6,3.4-7.5,3.4
				c-3,0-5.4-1-7.4-2.9s-2.9-4.3-2.9-7.2c0-2.9,1-5.3,3-7.3c2-1.9,4.5-2.9,7.5-2.9s5.6,1.1,7.6,3.4l-2.1,2.3
				c-0.9-0.9-1.8-1.5-2.6-1.9c-0.8-0.4-1.8-0.5-2.9-0.5c-2,0-3.6,0.6-5,1.9s-2,2.9-2,4.9c0,2,0.7,3.7,2,5
				C1181.3,617.8,1182.9,618.5,1184.7,618.5z"/>
			<path class="st3" d="M1208.4,619.5c-1.5,1.5-3.4,2.2-5.6,2.2s-4.1-0.7-5.6-2.2c-1.5-1.5-2.2-3.3-2.2-5.4c0-2.1,0.7-4,2.2-5.4
				c1.5-1.5,3.4-2.2,5.6-2.2s4.1,0.7,5.6,2.2c1.5,1.5,2.2,3.3,2.2,5.4C1210.6,616.2,1209.9,618,1208.4,619.5z M1199.4,617.5
				c0.9,0.9,2,1.4,3.4,1.4s2.5-0.5,3.4-1.4s1.3-2.1,1.3-3.5c0-1.4-0.4-2.6-1.3-3.5s-2-1.4-3.4-1.4s-2.5,0.5-3.4,1.4
				s-1.3,2.1-1.3,3.5C1198.1,615.4,1198.5,616.6,1199.4,617.5z"/>
			<path class="st3" d="M1222,609.5c-1.5,0-2.7,0.5-3.5,1.5c-0.8,1-1.2,2.4-1.2,4.1v6.4h-3.1v-14.9h3.1v3c0.5-0.9,1.2-1.7,2.1-2.3
				c0.9-0.6,1.8-0.9,2.8-0.9l0,3.2C1222.1,609.5,1222.1,609.5,1222,609.5z"/>
			<path class="st3" d="M1239.2,615.4h-11.7c0.1,1.1,0.6,2,1.5,2.6c0.9,0.7,2,1,3.1,1c1.9,0,3.3-0.6,4.3-1.8l1.8,2
				c-1.6,1.7-3.7,2.5-6.3,2.5c-2.1,0-3.9-0.7-5.3-2.1c-1.5-1.4-2.2-3.3-2.2-5.6s0.7-4.2,2.2-5.6c1.5-1.4,3.3-2.1,5.3-2.1
				s3.7,0.6,5.2,1.8c1.4,1.2,2.1,2.9,2.1,5.1V615.4z M1227.5,612.9h8.5c0-1.3-0.4-2.2-1.2-2.9c-0.8-0.7-1.8-1-2.9-1s-2.2,0.3-3.1,1
				C1227.9,610.8,1227.5,611.7,1227.5,612.9z"/>
			<path class="st3" d="M1253.5,617l-2,4.5h-3.5l8.6-19.6h3.5l8.6,19.6h-3.5l-2-4.5H1253.5z M1262,614l-3.6-8.1l-3.6,8.1H1262z"/>
			<path class="st3" d="M1284.7,603.6c1.4,1.1,2,2.9,2,5.3c0,2.4-0.7,4.1-2.1,5.2s-3.5,1.7-6.4,1.7h-3.5v5.7h-3.3v-19.6h6.7
				C1281.2,601.9,1283.4,602.5,1284.7,603.6z M1282.4,611.7c0.7-0.7,1-1.7,1-3.1c0-1.4-0.4-2.3-1.3-2.9c-0.8-0.6-2.2-0.8-3.9-0.8
				h-3.4v7.8h3.8C1280.5,612.7,1281.7,612.4,1282.4,611.7z"/>
			<path class="st3" d="M1290.7,601.9h3.3v19.6h-3.3V601.9z"/>
		</g>
	</g>
	<g>
		<path class="st3" d="M779.4,134.5c-0.7-0.7-1-1.5-1-2.4c0-0.9,0.3-1.7,1-2.4c0.7-0.7,1.5-1,2.4-1c0.9,0,1.7,0.3,2.4,1
			c0.7,0.7,1,1.5,1,2.4c0,0.9-0.3,1.7-1,2.4c-0.7,0.7-1.5,1-2.4,1C780.8,135.5,780,135.2,779.4,134.5z M784.4,165.1H779v-25.5h5.4
			V165.1z"/>
		<path class="st3" d="M821,160.5c-3.4,3.3-7.6,5-12.6,5s-9.2-1.7-12.6-5c-3.4-3.3-5.1-7.4-5.1-12.4c0-4.9,1.7-9.1,5.1-12.4
			c3.4-3.3,7.6-5,12.6-5s9.2,1.7,12.6,5c3.4,3.3,5.1,7.4,5.1,12.4C826.1,153.1,824.4,157.2,821,160.5z M816.9,139.5
			c-2.3-2.4-5.1-3.6-8.4-3.6c-3.3,0-6.1,1.2-8.4,3.6c-2.3,2.4-3.4,5.2-3.4,8.6s1.1,6.2,3.4,8.6c2.3,2.4,5.1,3.6,8.4,3.6
			c3.3,0,6.1-1.2,8.4-3.6c2.3-2.4,3.4-5.2,3.4-8.6S819.2,141.9,816.9,139.5z"/>
		<path class="st3" d="M843.4,136c-1.6,0-3,0.3-4.1,1s-1.6,1.7-1.6,3c0,1.4,0.5,2.4,1.6,3.1s3.3,1.5,6.7,2.3c3.4,0.8,6,2,7.8,3.5
			c1.7,1.5,2.6,3.7,2.6,6.6c0,2.9-1.1,5.3-3.3,7.1c-2.2,1.8-5.1,2.7-8.7,2.7c-5.2,0-9.9-1.8-14-5.4l3.6-4.3
			c3.4,2.9,6.9,4.4,10.6,4.4c1.8,0,3.3-0.4,4.3-1.2c1.1-0.8,1.6-1.8,1.6-3.1s-0.5-2.3-1.5-3c-1-0.7-2.7-1.4-5.2-2s-4.3-1.1-5.6-1.6
			c-1.3-0.5-2.4-1.1-3.4-1.9c-2-1.5-3-3.8-3-6.9c0-3.1,1.1-5.5,3.4-7.2c2.3-1.7,5-2.5,8.4-2.5c2.1,0,4.3,0.4,6.4,1.1
			c2.1,0.7,3.9,1.7,5.5,3l-3,4.3c-1-0.9-2.3-1.6-4-2.2C846.7,136.3,845.1,136,843.4,136z"/>
	</g>
	<rect x="1079.5" y="826.8" class="st1" width="5.5" height="21.9"/>
	<g class="st7">
		<g>
			<path class="st3" d="M432.8,776.5c1.3,0,2.4-0.2,3.4-0.7c0.9-0.4,1.9-1.1,2.9-2.1l2.4,2.5c-2.4,2.6-5.2,3.9-8.6,3.9
				s-6.2-1.1-8.4-3.3s-3.3-4.9-3.3-8.3s1.1-6.1,3.4-8.3c2.3-2.2,5.1-3.3,8.6-3.3s6.4,1.3,8.7,3.8l-2.4,2.6c-1.1-1-2.1-1.7-3-2.1
				c-1-0.4-2.1-0.6-3.3-0.6c-2.3,0-4.2,0.7-5.7,2.2s-2.3,3.3-2.3,5.6c0,2.3,0.8,4.2,2.3,5.7S430.7,776.5,432.8,776.5z"/>
			<path class="st3" d="M459.4,779.9h-3.3v-2.3c-1.4,1.7-3.3,2.5-5.7,2.5c-1.8,0-3.2-0.5-4.4-1.5s-1.7-2.3-1.7-4s0.6-2.9,1.9-3.8
				s2.9-1.2,5-1.2h4.6V769c0-2.3-1.3-3.4-3.8-3.4c-1.6,0-3.2,0.6-4.9,1.7l-1.6-2.2c2.1-1.6,4.4-2.5,7-2.5c2,0,3.6,0.5,4.9,1.5
				c1.3,1,1.9,2.6,1.9,4.8V779.9z M455.8,773.6v-1.4h-4c-2.6,0-3.9,0.8-3.9,2.4c0,0.8,0.3,1.5,1,1.9c0.6,0.4,1.5,0.7,2.7,0.7
				c1.1,0,2.1-0.3,3-1C455.4,775.5,455.8,774.7,455.8,773.6z"/>
			<path class="st3" d="M468,779.9h-3.6v-23.7h3.6V779.9z"/>
			<path class="st3" d="M476.7,779.9h-3.6v-23.7h3.6V779.9z"/>
			<path class="st3" d="M491.9,760.9v-3.4h10.9v14.8c0,2.6-0.7,4.6-2,5.9c-1.3,1.3-3,2-5.1,2c-2.6,0-4.8-0.9-6.7-2.8l2.1-3
				c1.5,1.4,2.9,2.1,4.3,2.1c1,0,1.8-0.3,2.5-1c0.7-0.7,1-1.7,1-3v-11.6H491.9z"/>
			<path class="st3" d="M515.6,760.5c-1.1,0-2,0.2-2.7,0.7s-1.1,1.1-1.1,2c0,0.9,0.4,1.6,1.1,2.1c0.7,0.5,2.2,1,4.5,1.6
				c2.3,0.6,4,1.3,5.2,2.3s1.7,2.5,1.7,4.4s-0.7,3.5-2.2,4.8c-1.5,1.2-3.4,1.8-5.8,1.8c-3.5,0-6.6-1.2-9.3-3.6l2.4-2.8
				c2.3,2,4.6,2.9,7,2.9c1.2,0,2.2-0.3,2.9-0.8s1.1-1.2,1.1-2.1s-0.3-1.5-1-2c-0.7-0.5-1.8-0.9-3.5-1.3c-1.6-0.4-2.9-0.8-3.7-1.1
				c-0.9-0.3-1.6-0.8-2.3-1.3c-1.3-1-2-2.5-2-4.6c0-2.1,0.8-3.7,2.3-4.8c1.5-1.1,3.4-1.7,5.6-1.7c1.4,0,2.8,0.2,4.3,0.7
				c1.4,0.5,2.6,1.1,3.6,2l-2,2.8c-0.7-0.6-1.6-1.1-2.7-1.5C517.8,760.7,516.7,760.5,515.6,760.5z"/>
			<path class="st3" d="M540.8,770.7v9.2h-3.6v-17h3.6v3.1c0.5-1,1.3-1.9,2.3-2.5c1-0.6,2.1-0.9,3.3-0.9c2.7,0,4.5,1.1,5.5,3.3
				c1.7-2.2,3.8-3.3,6.3-3.3c1.9,0,3.5,0.6,4.7,1.8c1.2,1.2,1.8,2.9,1.8,5.1v10.4h-3.6v-9.3c0-3.1-1.3-4.7-3.9-4.7
				c-1.2,0-2.3,0.4-3.2,1.2c-0.9,0.8-1.4,1.9-1.4,3.4v9.5H549v-9.3c0-1.6-0.3-2.8-0.9-3.6c-0.6-0.8-1.5-1.1-2.7-1.1
				s-2.3,0.4-3.2,1.2C541.3,767.9,540.8,769.1,540.8,770.7z"/>
			<path class="st3" d="M585.5,773h-13.3c0.1,1.2,0.7,2.2,1.7,3c1,0.8,2.2,1.1,3.6,1.1c2.1,0,3.8-0.7,4.9-2l2,2.2
				c-1.8,1.9-4.2,2.8-7.2,2.8c-2.4,0-4.4-0.8-6.1-2.4c-1.7-1.6-2.5-3.7-2.5-6.4c0-2.7,0.9-4.8,2.6-6.4c1.7-1.6,3.7-2.4,6-2.4
				s4.3,0.7,5.9,2.1s2.4,3.3,2.4,5.8V773z M572.2,770.2h9.8c0-1.4-0.4-2.5-1.3-3.3c-0.9-0.8-2-1.2-3.3-1.2c-1.3,0-2.5,0.4-3.5,1.2
				C572.7,767.7,572.2,768.8,572.2,770.2z"/>
			<path class="st3" d="M593.9,765.8v8.6c0,0.8,0.2,1.5,0.6,1.9c0.4,0.5,1,0.7,1.8,0.7c0.8,0,1.5-0.4,2.2-1.1l1.5,2.5
				c-1.3,1.1-2.7,1.7-4.2,1.7c-1.5,0-2.8-0.5-3.9-1.6s-1.6-2.5-1.6-4.3v-8.5h-2.1v-2.9h2.1v-5.3h3.6v5.3h4.5v2.9H593.9z"/>
			<path class="st3" d="M606.4,770.7v9.2h-3.6v-23.7h3.6v9.8c0.5-1,1.3-1.9,2.3-2.5c1-0.6,2.1-0.9,3.3-0.9c1.9,0,3.5,0.6,4.7,1.8
				c1.2,1.2,1.8,2.9,1.8,5.1v10.4h-3.6v-9.3c0-3.1-1.3-4.7-3.9-4.7c-1.2,0-2.3,0.4-3.2,1.2C606.9,767.9,606.4,769.1,606.4,770.7z"/>
			<path class="st3" d="M637.8,777.6c-1.7,1.7-3.8,2.5-6.4,2.5c-2.6,0-4.7-0.8-6.4-2.5c-1.7-1.7-2.6-3.8-2.6-6.2s0.9-4.5,2.6-6.2
				c1.7-1.7,3.8-2.5,6.4-2.5c2.6,0,4.7,0.8,6.4,2.5c1.7,1.7,2.6,3.8,2.6,6.2S639.5,775.9,637.8,777.6z M627.5,775.4
				c1,1,2.3,1.6,3.9,1.6s2.8-0.5,3.9-1.6c1-1,1.5-2.4,1.5-4s-0.5-3-1.5-4c-1-1-2.3-1.6-3.9-1.6s-2.8,0.5-3.9,1.6c-1,1-1.5,2.4-1.5,4
				S626.5,774.4,627.5,775.4z"/>
			<path class="st3" d="M645.7,777.7c-1.6-1.6-2.4-3.8-2.4-6.4c0-2.6,0.8-4.8,2.5-6.3c1.6-1.6,3.6-2.4,5.9-2.4c2.3,0,4.1,1,5.5,2.9
				v-9.3h3.6v23.7h-3.6v-2.6c-1.3,1.9-3.3,2.8-5.8,2.8C649.2,780.2,647.3,779.4,645.7,777.7z M646.9,771.5c0,1.6,0.5,3,1.6,4
				c1,1,2.3,1.5,3.7,1.5s2.6-0.5,3.6-1.6c1-1,1.5-2.4,1.5-4c0-1.6-0.5-3-1.5-4.1s-2.2-1.6-3.6-1.6s-2.7,0.5-3.7,1.6
				S646.9,769.9,646.9,771.5z"/>
			<path class="st3" d="M678,774.8c0,1.6-0.6,2.9-1.8,3.9c-1.2,1-2.7,1.5-4.5,1.5c-1.2,0-2.5-0.2-3.9-0.7s-2.5-1.1-3.5-1.9l1.7-2.8
				c2,1.5,3.9,2.2,5.8,2.2c0.8,0,1.5-0.2,1.9-0.6c0.5-0.4,0.7-0.8,0.7-1.4c0-0.9-1.1-1.6-3.4-2.3c-0.2-0.1-0.3-0.1-0.4-0.1
				c-3.5-1-5.3-2.6-5.3-4.8c0-1.6,0.6-2.8,1.8-3.8c1.2-0.9,2.8-1.4,4.8-1.4c2,0,3.8,0.6,5.6,1.7l-1.3,2.7c-1.4-0.9-2.9-1.4-4.5-1.4
				c-0.9,0-1.5,0.2-2.1,0.5s-0.8,0.8-0.8,1.4c0,0.6,0.3,1,0.8,1.2c0.4,0.2,0.9,0.4,1.6,0.5c0.7,0.2,1.3,0.3,1.8,0.5
				c0.5,0.2,1,0.4,1.6,0.6c0.5,0.2,1,0.5,1.6,0.9C677.4,772,678,773.2,678,774.8z"/>
		</g>
	</g>
	<polygon class="st1" points="1151.3,672.8 1145.5,682.9 1157.1,682.9 	"/>
	<path class="st8" d="M1244.4,508.8c0,6.1-4.9,11-11,11H906.8c-6.1,0-11-4.9-11-11V295c0-6.1,4.9-11,11-11h326.6c6.1,0,11,4.9,11,11
		V508.8z"/>
	<g class="st7">
		<path class="st3" d="M923,757.3c1.3,0,2.4-0.2,3.4-0.7c0.9-0.4,1.9-1.1,2.9-2.1l2.4,2.5c-2.4,2.6-5.2,3.9-8.6,3.9
			s-6.2-1.1-8.4-3.3s-3.3-4.9-3.3-8.3s1.1-6.1,3.4-8.3c2.3-2.2,5.1-3.3,8.6-3.3s6.4,1.3,8.7,3.8l-2.4,2.6c-1.1-1-2.1-1.7-3-2.1
			c-1-0.4-2.1-0.6-3.3-0.6c-2.3,0-4.2,0.7-5.7,2.2s-2.3,3.3-2.3,5.6c0,2.3,0.8,4.2,2.3,5.7S920.9,757.3,923,757.3z"/>
		<path class="st3" d="M949.6,760.7h-3.3v-2.3c-1.4,1.7-3.3,2.5-5.7,2.5c-1.8,0-3.2-0.5-4.4-1.5s-1.7-2.3-1.7-4s0.6-2.9,1.9-3.8
			s2.9-1.2,5-1.2h4.6v-0.6c0-2.3-1.3-3.4-3.8-3.4c-1.6,0-3.2,0.6-4.9,1.7l-1.6-2.2c2.1-1.6,4.4-2.5,7-2.5c2,0,3.6,0.5,4.9,1.5
			c1.3,1,1.9,2.6,1.9,4.8V760.7z M946.1,754.4v-1.4h-4c-2.6,0-3.9,0.8-3.9,2.4c0,0.8,0.3,1.5,1,1.9c0.6,0.4,1.5,0.7,2.7,0.7
			c1.1,0,2.1-0.3,3-1C945.6,756.3,946.1,755.5,946.1,754.4z"/>
		<path class="st3" d="M958.2,760.7h-3.6V737h3.6V760.7z"/>
		<path class="st3" d="M967,760.7h-3.6V737h3.6V760.7z"/>
		<path class="st3" d="M996.5,740.3c1.6,1.3,2.3,3.3,2.3,6c0,2.7-0.8,4.7-2.4,6c-1.6,1.3-4,1.9-7.3,1.9h-4v6.6h-3.8v-22.4h7.7
			C992.5,738.3,995,739,996.5,740.3z M993.9,749.5c0.8-0.8,1.1-2,1.1-3.5s-0.5-2.6-1.4-3.3c-1-0.6-2.5-1-4.5-1h-3.8v9h4.4
			C991.7,750.7,993.1,750.3,993.9,749.5z"/>
		<path class="st3" d="M1006.4,760.7h-3.6V737h3.6V760.7z"/>
		<path class="st3" d="M1025.4,760.7h-3.3v-2.3c-1.4,1.7-3.3,2.5-5.7,2.5c-1.8,0-3.2-0.5-4.4-1.5s-1.7-2.3-1.7-4s0.6-2.9,1.9-3.8
			s2.9-1.2,5-1.2h4.6v-0.6c0-2.3-1.3-3.4-3.8-3.4c-1.6,0-3.2,0.6-4.9,1.7l-1.6-2.2c2.1-1.6,4.4-2.5,7-2.5c2,0,3.6,0.5,4.9,1.5
			c1.3,1,1.9,2.6,1.9,4.8V760.7z M1021.8,754.4v-1.4h-4c-2.6,0-3.9,0.8-3.9,2.4c0,0.8,0.3,1.5,1,1.9c0.6,0.4,1.5,0.7,2.7,0.7
			c1.1,0,2.1-0.3,3-1C1021.4,756.3,1021.8,755.5,1021.8,754.4z"/>
		<path class="st3" d="M1030.6,740.3c-0.4-0.4-0.7-1-0.7-1.6c0-0.6,0.2-1.2,0.7-1.6c0.4-0.4,1-0.7,1.6-0.7c0.6,0,1.2,0.2,1.6,0.7
			c0.4,0.4,0.7,1,0.7,1.6c0,0.6-0.2,1.2-0.7,1.6c-0.4,0.4-1,0.7-1.6,0.7C1031.6,741,1031,740.7,1030.6,740.3z M1034,760.7h-3.6v-17
			h3.6V760.7z"/>
		<path class="st3" d="M1042.7,751.5v9.2h-3.6v-17h3.6v3.1c0.6-1,1.4-1.9,2.4-2.5c1-0.6,2.1-0.9,3.3-0.9c1.9,0,3.5,0.6,4.7,1.8
			c1.2,1.2,1.8,2.9,1.8,5.1v10.4h-3.6v-9.3c0-3.1-1.3-4.7-3.9-4.7c-1.2,0-2.3,0.4-3.2,1.2C1043.2,748.7,1042.7,749.9,1042.7,751.5z"
			/>
		<path class="st3" d="M1079.3,757.3c1.3,0,2.4-0.2,3.4-0.7c0.9-0.4,1.9-1.1,2.9-2.1l2.4,2.5c-2.4,2.6-5.2,3.9-8.6,3.9
			s-6.2-1.1-8.4-3.3s-3.3-4.9-3.3-8.3s1.1-6.1,3.4-8.3c2.3-2.2,5.1-3.3,8.6-3.3s6.4,1.3,8.7,3.8l-2.4,2.6c-1.1-1-2.1-1.7-3-2.1
			c-1-0.4-2.1-0.6-3.3-0.6c-2.3,0-4.2,0.7-5.7,2.2s-2.3,3.3-2.3,5.6c0,2.3,0.8,4.2,2.3,5.7S1077.2,757.3,1079.3,757.3z"/>
		<path class="st3" d="M1105.2,741.9v6.1h9.9v3.5h-9.9v9.2h-3.8v-22.4h14.9l0,3.5H1105.2z"/>
		<path class="st3" d="M1132.1,752.9v-9.2h3.6v17h-3.6v-3.1c-0.6,1-1.4,1.9-2.4,2.5c-1,0.6-2.1,0.9-3.3,0.9c-1.9,0-3.5-0.6-4.7-1.8
			c-1.2-1.2-1.8-2.9-1.8-5.1v-10.4h3.6v9.3c0,3.1,1.3,4.7,3.9,4.7c1.2,0,2.3-0.4,3.2-1.2C1131.7,755.7,1132.1,754.5,1132.1,752.9z"
			/>
		<path class="st3" d="M1144.5,751.5v9.2h-3.6v-17h3.6v3.1c0.6-1,1.4-1.9,2.4-2.5c1-0.6,2.1-0.9,3.3-0.9c1.9,0,3.5,0.6,4.7,1.8
			c1.2,1.2,1.8,2.9,1.8,5.1v10.4h-3.6v-9.3c0-3.1-1.3-4.7-3.9-4.7c-1.2,0-2.3,0.4-3.2,1.2C1144.9,748.7,1144.5,749.9,1144.5,751.5z"
			/>
		<path class="st3" d="M1169.1,761c-2.4,0-4.4-0.8-6.1-2.4c-1.7-1.6-2.6-3.7-2.6-6.3c0-2.6,0.9-4.7,2.7-6.4s4-2.4,6.5-2.4
			c2.6,0,4.7,0.9,6.5,2.7l-2.1,2.6c-1.5-1.3-3-1.9-4.4-1.9s-2.8,0.5-3.9,1.5s-1.6,2.3-1.6,3.8s0.5,2.9,1.6,4c1.1,1.1,2.4,1.6,4,1.6
			c1.6,0,3.1-0.7,4.5-2.2l2.1,2.3C1174.2,759.9,1171.8,761,1169.1,761z"/>
		<path class="st3" d="M1184.4,746.6v8.6c0,0.8,0.2,1.5,0.6,1.9c0.4,0.5,1,0.7,1.8,0.7c0.8,0,1.5-0.4,2.2-1.1l1.5,2.5
			c-1.3,1.1-2.7,1.7-4.2,1.7c-1.5,0-2.8-0.5-3.9-1.6s-1.6-2.5-1.6-4.3v-8.5h-2.1v-2.9h2.1v-5.3h3.6v5.3h4.5v2.9H1184.4z"/>
		<path class="st3" d="M1193.6,740.3c-0.4-0.4-0.7-1-0.7-1.6c0-0.6,0.2-1.2,0.7-1.6c0.4-0.4,1-0.7,1.6-0.7c0.6,0,1.2,0.2,1.6,0.7
			c0.4,0.4,0.7,1,0.7,1.6c0,0.6-0.2,1.2-0.7,1.6c-0.4,0.4-1,0.7-1.6,0.7C1194.6,741,1194,740.7,1193.6,740.3z M1197,760.7h-3.6v-17
			h3.6V760.7z"/>
		<path class="st3" d="M1216.4,758.4c-1.7,1.7-3.8,2.5-6.4,2.5c-2.6,0-4.7-0.8-6.4-2.5c-1.7-1.7-2.6-3.8-2.6-6.2s0.9-4.5,2.6-6.2
			c1.7-1.7,3.8-2.5,6.4-2.5c2.6,0,4.7,0.8,6.4,2.5c1.7,1.7,2.6,3.8,2.6,6.2S1218.1,756.7,1216.4,758.4z M1206.1,756.2
			c1,1,2.3,1.6,3.9,1.6s2.8-0.5,3.9-1.6c1-1,1.5-2.4,1.5-4s-0.5-3-1.5-4c-1-1-2.3-1.6-3.9-1.6s-2.8,0.5-3.9,1.6c-1,1-1.5,2.4-1.5,4
			S1205.1,755.2,1206.1,756.2z"/>
		<path class="st3" d="M1226.6,751.5v9.2h-3.6v-17h3.6v3.1c0.6-1,1.4-1.9,2.4-2.5c1-0.6,2.1-0.9,3.3-0.9c1.9,0,3.5,0.6,4.7,1.8
			c1.2,1.2,1.8,2.9,1.8,5.1v10.4h-3.6v-9.3c0-3.1-1.3-4.7-3.9-4.7c-1.2,0-2.3,0.4-3.2,1.2C1227,748.7,1226.6,749.9,1226.6,751.5z"/>
		<path class="st3" d="M1255.8,755.6c0,1.6-0.6,2.9-1.8,3.9c-1.2,1-2.7,1.5-4.5,1.5c-1.2,0-2.5-0.2-3.9-0.7s-2.5-1.1-3.5-1.9
			l1.7-2.8c2,1.5,3.9,2.2,5.8,2.2c0.8,0,1.5-0.2,1.9-0.6c0.5-0.4,0.7-0.8,0.7-1.4c0-0.9-1.1-1.6-3.4-2.3c-0.2-0.1-0.3-0.1-0.4-0.1
			c-3.5-1-5.3-2.6-5.3-4.8c0-1.6,0.6-2.8,1.8-3.8c1.2-0.9,2.8-1.4,4.8-1.4c2,0,3.8,0.6,5.6,1.7l-1.3,2.7c-1.4-0.9-2.9-1.4-4.5-1.4
			c-0.9,0-1.5,0.2-2.1,0.5s-0.8,0.8-0.8,1.4c0,0.6,0.3,1,0.8,1.2c0.4,0.2,0.9,0.4,1.6,0.5c0.7,0.2,1.3,0.3,1.8,0.5
			c0.5,0.2,1,0.4,1.6,0.6c0.5,0.2,1,0.5,1.6,0.9C1255.2,752.8,1255.8,754,1255.8,755.6z"/>
		<path class="st3" d="M871.2,794l-2.2,5.1h-4l9.9-22.4h4l9.9,22.4h-4l-2.2-5.1H871.2z M880.9,790.5l-4.1-9.2l-4.1,9.2H880.9z"/>
		<path class="st3" d="M898.8,799.4c-2.4,0-4.4-0.8-6.1-2.4c-1.7-1.6-2.6-3.7-2.6-6.3c0-2.6,0.9-4.7,2.7-6.4s4-2.4,6.5-2.4
			c2.6,0,4.7,0.9,6.5,2.7l-2.1,2.6c-1.5-1.3-3-1.9-4.4-1.9s-2.8,0.5-3.9,1.5s-1.6,2.3-1.6,3.8s0.5,2.9,1.6,4c1.1,1.1,2.4,1.6,4,1.6
			c1.6,0,3.1-0.7,4.5-2.2l2.1,2.3C903.9,798.3,901.5,799.4,898.8,799.4z"/>
		<path class="st3" d="M917.3,799.4c-2.4,0-4.4-0.8-6.1-2.4c-1.7-1.6-2.6-3.7-2.6-6.3c0-2.6,0.9-4.7,2.7-6.4s4-2.4,6.5-2.4
			c2.6,0,4.7,0.9,6.5,2.7l-2.1,2.6c-1.5-1.3-3-1.9-4.4-1.9s-2.8,0.5-3.9,1.5s-1.6,2.3-1.6,3.8s0.5,2.9,1.6,4c1.1,1.1,2.4,1.6,4,1.6
			c1.6,0,3.1-0.7,4.5-2.2l2.1,2.3C922.4,798.3,920,799.4,917.3,799.4z"/>
		<path class="st3" d="M944,792.2h-13.3c0.1,1.2,0.7,2.2,1.7,3c1,0.8,2.2,1.1,3.6,1.1c2.1,0,3.8-0.7,4.9-2l2,2.2
			c-1.8,1.9-4.2,2.8-7.2,2.8c-2.4,0-4.4-0.8-6.1-2.4c-1.7-1.6-2.5-3.7-2.5-6.4c0-2.7,0.9-4.8,2.6-6.4c1.7-1.6,3.7-2.4,6-2.4
			s4.3,0.7,5.9,2.1s2.4,3.3,2.4,5.8V792.2z M930.6,789.4h9.8c0-1.4-0.4-2.5-1.3-3.3c-0.9-0.8-2-1.2-3.3-1.2c-1.3,0-2.5,0.4-3.5,1.2
			C931.2,786.9,930.6,788,930.6,789.4z"/>
		<path class="st3" d="M960,794c0,1.6-0.6,2.9-1.8,3.9c-1.2,1-2.7,1.5-4.5,1.5c-1.2,0-2.5-0.2-3.9-0.7s-2.5-1.1-3.5-1.9l1.7-2.8
			c2,1.5,3.9,2.2,5.8,2.2c0.8,0,1.5-0.2,1.9-0.6c0.5-0.4,0.7-0.8,0.7-1.4c0-0.9-1.1-1.6-3.4-2.3c-0.2-0.1-0.3-0.1-0.4-0.1
			c-3.5-1-5.3-2.6-5.3-4.8c0-1.6,0.6-2.8,1.8-3.8c1.2-0.9,2.8-1.4,4.8-1.4c2,0,3.8,0.6,5.6,1.7l-1.3,2.7c-1.4-0.9-2.9-1.4-4.5-1.4
			c-0.9,0-1.5,0.2-2.1,0.5s-0.8,0.8-0.8,1.4c0,0.6,0.3,1,0.8,1.2c0.4,0.2,0.9,0.4,1.6,0.5c0.7,0.2,1.3,0.3,1.8,0.5
			c0.5,0.2,1,0.4,1.6,0.6c0.5,0.2,1,0.5,1.6,0.9C959.5,791.2,960,792.4,960,794z"/>
		<path class="st3" d="M976.2,794c0,1.6-0.6,2.9-1.8,3.9c-1.2,1-2.7,1.5-4.5,1.5c-1.2,0-2.5-0.2-3.9-0.7s-2.5-1.1-3.5-1.9l1.7-2.8
			c2,1.5,3.9,2.2,5.8,2.2c0.8,0,1.5-0.2,1.9-0.6c0.5-0.4,0.7-0.8,0.7-1.4c0-0.9-1.1-1.6-3.4-2.3c-0.2-0.1-0.3-0.1-0.4-0.1
			c-3.5-1-5.3-2.6-5.3-4.8c0-1.6,0.6-2.8,1.8-3.8c1.2-0.9,2.8-1.4,4.8-1.4c2,0,3.8,0.6,5.6,1.7l-1.3,2.7c-1.4-0.9-2.9-1.4-4.5-1.4
			c-0.9,0-1.5,0.2-2.1,0.5s-0.8,0.8-0.8,1.4c0,0.6,0.3,1,0.8,1.2c0.4,0.2,0.9,0.4,1.6,0.5c0.7,0.2,1.3,0.3,1.8,0.5
			c0.5,0.2,1,0.4,1.6,0.6c0.5,0.2,1,0.5,1.6,0.9C975.7,791.2,976.2,792.4,976.2,794z"/>
		<path class="st3" d="M1008.3,796c-2.3,2.2-5.1,3.3-8.4,3.3c-3.3,0-6.1-1.1-8.4-3.3c-2.3-2.2-3.4-5-3.4-8.3s1.1-6,3.4-8.3
			c2.3-2.2,5.1-3.3,8.4-3.3c3.3,0,6.1,1.1,8.4,3.3c2.3,2.2,3.4,5,3.4,8.3S1010.6,793.8,1008.3,796z M1005.5,782
			c-1.5-1.6-3.4-2.4-5.6-2.4c-2.2,0-4.1,0.8-5.6,2.4c-1.5,1.6-2.3,3.5-2.3,5.7s0.8,4.2,2.3,5.7c1.5,1.6,3.4,2.4,5.6,2.4
			c2.2,0,4.1-0.8,5.6-2.4c1.5-1.6,2.3-3.5,2.3-5.7S1007,783.6,1005.5,782z"/>
		<path class="st3" d="M1025.1,781.8c2.3,0,4.2,0.8,5.9,2.4c1.6,1.6,2.4,3.7,2.4,6.3s-0.8,4.8-2.4,6.4c-1.6,1.6-3.5,2.5-5.6,2.5
			c-2.1,0-4.1-0.9-5.8-2.8v2.6h-3.6v-23.7h3.6v9.7C1020.9,782.9,1022.8,781.8,1025.1,781.8z M1019.5,790.6c0,1.6,0.5,3,1.5,4
			c1,1,2.2,1.6,3.6,1.6c1.4,0,2.6-0.5,3.7-1.5c1-1,1.6-2.4,1.6-4s-0.5-3-1.5-4.1c-1-1.1-2.3-1.6-3.7-1.6c-1.4,0-2.6,0.5-3.6,1.6
			C1019.9,787.7,1019.5,789,1019.5,790.6z"/>
		<path class="st3" d="M1037.4,799.9v-17.8h3.6v18c0,1.8-0.5,3.2-1.6,4.3c-1.1,1.1-2.4,1.6-3.9,1.6c-1.5,0-2.9-0.6-4.2-1.7l1.7-2.7
			c0.7,0.7,1.5,1.1,2.2,1.1s1.3-0.2,1.7-0.7C1037.3,801.4,1037.4,800.7,1037.4,799.9z M1037.6,778.7c-0.4-0.4-0.7-1-0.7-1.6
			c0-0.6,0.2-1.2,0.7-1.6s1-0.7,1.6-0.7c0.6,0,1.2,0.2,1.6,0.7s0.7,1,0.7,1.6c0,0.6-0.2,1.2-0.7,1.6s-1,0.7-1.6,0.7
			C1038.6,779.4,1038.1,779.1,1037.6,778.7z"/>
		<path class="st3" d="M1062,792.2h-13.3c0.1,1.2,0.7,2.2,1.7,3c1,0.8,2.2,1.1,3.6,1.1c2.1,0,3.8-0.7,4.9-2l2,2.2
			c-1.8,1.9-4.2,2.8-7.2,2.8c-2.4,0-4.4-0.8-6.1-2.4c-1.7-1.6-2.5-3.7-2.5-6.4c0-2.7,0.9-4.8,2.6-6.4c1.7-1.6,3.7-2.4,6-2.4
			s4.3,0.7,5.9,2.1s2.4,3.3,2.4,5.8V792.2z M1048.7,789.4h9.8c0-1.4-0.4-2.5-1.3-3.3c-0.9-0.8-2-1.2-3.3-1.2c-1.3,0-2.5,0.4-3.5,1.2
			C1049.2,786.9,1048.7,788,1048.7,789.4z"/>
		<path class="st3" d="M1073.5,799.4c-2.4,0-4.4-0.8-6.1-2.4c-1.7-1.6-2.6-3.7-2.6-6.3c0-2.6,0.9-4.7,2.7-6.4s4-2.4,6.5-2.4
			c2.6,0,4.7,0.9,6.5,2.7l-2.1,2.6c-1.5-1.3-3-1.9-4.4-1.9s-2.8,0.5-3.9,1.5s-1.6,2.3-1.6,3.8s0.5,2.9,1.6,4c1.1,1.1,2.4,1.6,4,1.6
			c1.6,0,3.1-0.7,4.5-2.2l2.1,2.3C1078.6,798.3,1076.2,799.4,1073.5,799.4z"/>
		<path class="st3" d="M1088.8,785v8.6c0,0.8,0.2,1.5,0.6,1.9c0.4,0.5,1,0.7,1.8,0.7c0.8,0,1.5-0.4,2.2-1.1l1.5,2.5
			c-1.3,1.1-2.7,1.7-4.2,1.7c-1.5,0-2.8-0.5-3.9-1.6s-1.6-2.5-1.6-4.3V785h-2.1v-2.9h2.1v-5.3h3.6v5.3h4.5v2.9H1088.8z"/>
		<path class="st3" d="M1098,778.7c-0.4-0.4-0.7-1-0.7-1.6c0-0.6,0.2-1.2,0.7-1.6c0.4-0.4,1-0.7,1.6-0.7c0.6,0,1.2,0.2,1.6,0.7
			c0.4,0.4,0.7,1,0.7,1.6c0,0.6-0.2,1.2-0.7,1.6c-0.4,0.4-1,0.7-1.6,0.7C1099,779.4,1098.5,779.1,1098,778.7z M1101.4,799.1h-3.6
			v-17h3.6V799.1z"/>
		<path class="st3" d="M1111.1,799.1l-6.8-17h3.7l5.2,12.9l5.2-12.9h3.7l-6.8,17H1111.1z"/>
		<path class="st3" d="M1140.7,792.2h-13.3c0.1,1.2,0.7,2.2,1.7,3c1,0.8,2.2,1.1,3.6,1.1c2.1,0,3.8-0.7,4.9-2l2,2.2
			c-1.8,1.9-4.2,2.8-7.2,2.8c-2.4,0-4.4-0.8-6.1-2.4c-1.7-1.6-2.5-3.7-2.5-6.4c0-2.7,0.9-4.8,2.6-6.4c1.7-1.6,3.7-2.4,6-2.4
			s4.3,0.7,5.9,2.1s2.4,3.3,2.4,5.8V792.2z M1127.4,789.4h9.8c0-1.4-0.4-2.5-1.3-3.3c-0.9-0.8-2-1.2-3.3-1.2c-1.3,0-2.5,0.4-3.5,1.2
			C1127.9,786.9,1127.4,788,1127.4,789.4z"/>
		<path class="st3" d="M1164.1,795.7c1.3,0,2.4-0.2,3.4-0.7c0.9-0.4,1.9-1.1,2.9-2.1l2.4,2.5c-2.4,2.6-5.2,3.9-8.6,3.9
			s-6.2-1.1-8.4-3.3s-3.3-4.9-3.3-8.3s1.1-6.1,3.4-8.3c2.3-2.2,5.1-3.3,8.6-3.3s6.4,1.3,8.7,3.8l-2.4,2.6c-1.1-1-2.1-1.7-3-2.1
			c-1-0.4-2.1-0.6-3.3-0.6c-2.3,0-4.2,0.7-5.7,2.2s-2.3,3.3-2.3,5.6c0,2.3,0.8,4.2,2.3,5.7S1162,795.7,1164.1,795.7z"/>
		<path class="st3" d="M1200,796.8c-1.7,1.7-3.8,2.5-6.4,2.5c-2.6,0-4.7-0.8-6.4-2.5c-1.7-1.7-2.6-3.8-2.6-6.2s0.9-4.5,2.6-6.2
			c1.7-1.7,3.8-2.5,6.4-2.5c2.6,0,4.7,0.8,6.4,2.5c1.7,1.7,2.6,3.8,2.6,6.2S1201.7,795.1,1200,796.8z M1189.7,794.6
			c1,1,2.3,1.6,3.9,1.6s2.8-0.5,3.9-1.6c1-1,1.5-2.4,1.5-4s-0.5-3-1.5-4c-1-1-2.3-1.6-3.9-1.6s-2.8,0.5-3.9,1.6c-1,1-1.5,2.4-1.5,4
			S1188.7,793.6,1189.7,794.6z"/>
		<path class="st3" d="M1215.7,781.8c2.3,0,4.2,0.8,5.9,2.4c1.6,1.6,2.4,3.7,2.4,6.3s-0.8,4.8-2.4,6.4c-1.6,1.6-3.5,2.5-5.6,2.5
			c-2.1,0-4.1-0.9-5.8-2.8v2.6h-3.6v-23.7h3.6v9.7C1211.6,782.9,1213.4,781.8,1215.7,781.8z M1210.1,790.6c0,1.6,0.5,3,1.5,4
			c1,1,2.2,1.6,3.6,1.6s2.6-0.5,3.7-1.5c1-1,1.6-2.4,1.6-4s-0.5-3-1.5-4.1c-1-1.1-2.3-1.6-3.7-1.6c-1.4,0-2.6,0.5-3.6,1.6
			C1210.6,787.7,1210.1,789,1210.1,790.6z"/>
		<path class="st3" d="M1228.1,799.9v-17.8h3.6v18c0,1.8-0.5,3.2-1.6,4.3c-1.1,1.1-2.4,1.6-3.9,1.6c-1.5,0-2.9-0.6-4.2-1.7l1.7-2.7
			c0.7,0.7,1.5,1.1,2.2,1.1s1.3-0.2,1.7-0.7C1227.9,801.4,1228.1,800.7,1228.1,799.9z M1228.3,778.7c-0.4-0.4-0.7-1-0.7-1.6
			c0-0.6,0.2-1.2,0.7-1.6s1-0.7,1.6-0.7c0.6,0,1.2,0.2,1.6,0.7s0.7,1,0.7,1.6c0,0.6-0.2,1.2-0.7,1.6s-1,0.7-1.6,0.7
			C1229.2,779.4,1228.7,779.1,1228.3,778.7z"/>
		<path class="st3" d="M1252.7,792.2h-13.3c0.1,1.2,0.7,2.2,1.7,3c1,0.8,2.2,1.1,3.6,1.1c2.1,0,3.8-0.7,4.9-2l2,2.2
			c-1.8,1.9-4.2,2.8-7.2,2.8c-2.4,0-4.4-0.8-6.1-2.4c-1.7-1.6-2.5-3.7-2.5-6.4c0-2.7,0.9-4.8,2.6-6.4c1.7-1.6,3.7-2.4,6-2.4
			s4.3,0.7,5.9,2.1s2.4,3.3,2.4,5.8V792.2z M1239.4,789.4h9.8c0-1.4-0.4-2.5-1.3-3.3c-0.9-0.8-2-1.2-3.3-1.2c-1.3,0-2.5,0.4-3.5,1.2
			C1239.9,786.9,1239.4,788,1239.4,789.4z"/>
		<path class="st3" d="M1264.2,799.4c-2.4,0-4.4-0.8-6.1-2.4c-1.7-1.6-2.6-3.7-2.6-6.3c0-2.6,0.9-4.7,2.7-6.4s4-2.4,6.5-2.4
			c2.6,0,4.7,0.9,6.5,2.7l-2.1,2.6c-1.5-1.3-3-1.9-4.4-1.9s-2.8,0.5-3.9,1.5s-1.6,2.3-1.6,3.8s0.5,2.9,1.6,4c1.1,1.1,2.4,1.6,4,1.6
			c1.6,0,3.1-0.7,4.5-2.2l2.1,2.3C1269.3,798.3,1266.9,799.4,1264.2,799.4z"/>
		<path class="st3" d="M1279.5,785v8.6c0,0.8,0.2,1.5,0.6,1.9c0.4,0.5,1,0.7,1.8,0.7c0.8,0,1.5-0.4,2.2-1.1l1.5,2.5
			c-1.3,1.1-2.7,1.7-4.2,1.7c-1.5,0-2.8-0.5-3.9-1.6s-1.6-2.5-1.6-4.3V785h-2.1v-2.9h2.1v-5.3h3.6v5.3h4.5v2.9H1279.5z"/>
		<path class="st3" d="M1300.6,794c0,1.6-0.6,2.9-1.8,3.9c-1.2,1-2.7,1.5-4.5,1.5c-1.2,0-2.5-0.2-3.9-0.7s-2.5-1.1-3.5-1.9l1.7-2.8
			c2,1.5,3.9,2.2,5.8,2.2c0.8,0,1.5-0.2,1.9-0.6c0.5-0.4,0.7-0.8,0.7-1.4c0-0.9-1.1-1.6-3.4-2.3c-0.2-0.1-0.3-0.1-0.4-0.1
			c-3.5-1-5.3-2.6-5.3-4.8c0-1.6,0.6-2.8,1.8-3.8c1.2-0.9,2.8-1.4,4.8-1.4c2,0,3.8,0.6,5.6,1.7l-1.3,2.7c-1.4-0.9-2.9-1.4-4.5-1.4
			c-0.9,0-1.5,0.2-2.1,0.5s-0.8,0.8-0.8,1.4c0,0.6,0.3,1,0.8,1.2c0.4,0.2,0.9,0.4,1.6,0.5c0.7,0.2,1.3,0.3,1.8,0.5
			c0.5,0.2,1,0.4,1.6,0.6c0.5,0.2,1,0.5,1.6,0.9C1300,791.2,1300.6,792.4,1300.6,794z"/>
	</g>
	<g>
		<g>
			<path class="st4" d="M884.1,479.4c-0.2,0-0.3,0-0.5-0.1c-0.3-0.2-0.5-0.5-0.5-0.9v-6.7H757.6c-0.6,0-1-0.4-1-1v-5.5
				c0-0.6,0.4-1,1-1h125.5v-6.7c0-0.4,0.2-0.7,0.5-0.9c0.2-0.1,0.3-0.1,0.5-0.1s0.3,0,0.5,0.1l18.1,10.5c0.3,0.2,0.5,0.5,0.5,0.9
				s-0.2,0.7-0.5,0.9l-18.1,10.5C884.4,479.4,884.3,479.4,884.1,479.4z"/>
			<path class="st1" d="M884.1,457.5l18.1,10.5l-18.1,10.5v-7.7H757.6v-5.5h126.5V457.5 M884.1,455.5c-0.3,0-0.7,0.1-1,0.3
				c-0.6,0.4-1,1-1,1.7v5.7H757.6c-1.1,0-2,0.9-2,2v5.5c0,1.1,0.9,2,2,2h124.5v5.7c0,0.7,0.4,1.4,1,1.7c0.3,0.2,0.7,0.3,1,0.3
				c0.3,0,0.7-0.1,1-0.3l18.1-10.5c0.6-0.4,1-1,1-1.7c0-0.7-0.4-1.4-1-1.7l-18.1-10.5C884.8,455.6,884.4,455.5,884.1,455.5
				L884.1,455.5z"/>
		</g>
		<g>
			<path class="st4" d="M884.1,479.4c-0.2,0-0.3,0-0.5-0.1c-0.3-0.2-0.5-0.5-0.5-0.9v-6.7H757.6c-0.6,0-1-0.4-1-1v-5.5
				c0-0.6,0.4-1,1-1h125.5v-6.7c0-0.4,0.2-0.7,0.5-0.9c0.2-0.1,0.3-0.1,0.5-0.1s0.3,0,0.5,0.1l18.1,10.5c0.3,0.2,0.5,0.5,0.5,0.9
				s-0.2,0.7-0.5,0.9l-18.1,10.5C884.4,479.4,884.3,479.4,884.1,479.4z"/>
			<path class="st1" d="M884.1,457.5l18.1,10.5l-18.1,10.5v-7.7H757.6v-5.5h126.5V457.5 M884.1,455.5c-0.3,0-0.7,0.1-1,0.3
				c-0.6,0.4-1,1-1,1.7v5.7H757.6c-1.1,0-2,0.9-2,2v5.5c0,1.1,0.9,2,2,2h124.5v5.7c0,0.7,0.4,1.4,1,1.7c0.3,0.2,0.7,0.3,1,0.3
				c0.3,0,0.7-0.1,1-0.3l18.1-10.5c0.6-0.4,1-1,1-1.7c0-0.7-0.4-1.4-1-1.7l-18.1-10.5C884.8,455.6,884.4,455.5,884.1,455.5
				L884.1,455.5z"/>
		</g>
	</g>
	<g>
		<g>
			<path class="st4" d="M884.8,349.8c-0.2,0-0.3,0-0.5-0.1c-0.3-0.2-0.5-0.5-0.5-0.9v-6.7H758.3c-0.6,0-1-0.4-1-1v-5.5
				c0-0.6,0.4-1,1-1h125.5v-6.7c0-0.4,0.2-0.7,0.5-0.9c0.2-0.1,0.3-0.1,0.5-0.1s0.3,0,0.5,0.1l18.1,10.5c0.3,0.2,0.5,0.5,0.5,0.9
				s-0.2,0.7-0.5,0.9l-18.1,10.5C885.1,349.7,885,349.8,884.8,349.8z"/>
			<path class="st1" d="M884.8,327.9l18.1,10.5l-18.1,10.5v-7.7H758.3v-5.5h126.5V327.9 M884.8,325.9c-0.3,0-0.7,0.1-1,0.3
				c-0.6,0.4-1,1-1,1.7v5.7H758.3c-1.1,0-2,0.9-2,2v5.5c0,1.1,0.9,2,2,2h124.5v5.7c0,0.7,0.4,1.4,1,1.7c0.3,0.2,0.7,0.3,1,0.3
				c0.3,0,0.7-0.1,1-0.3l18.1-10.5c0.6-0.4,1-1,1-1.7c0-0.7-0.4-1.4-1-1.7l-18.1-10.5C885.5,325.9,885.1,325.9,884.8,325.9
				L884.8,325.9z"/>
		</g>
		<g>
			<path class="st4" d="M884.8,349.8c-0.2,0-0.3,0-0.5-0.1c-0.3-0.2-0.5-0.5-0.5-0.9v-6.7H758.3c-0.6,0-1-0.4-1-1v-5.5
				c0-0.6,0.4-1,1-1h125.5v-6.7c0-0.4,0.2-0.7,0.5-0.9c0.2-0.1,0.3-0.1,0.5-0.1s0.3,0,0.5,0.1l18.1,10.5c0.3,0.2,0.5,0.5,0.5,0.9
				s-0.2,0.7-0.5,0.9l-18.1,10.5C885.1,349.7,885,349.8,884.8,349.8z"/>
			<path class="st1" d="M884.8,327.9l18.1,10.5l-18.1,10.5v-7.7H758.3v-5.5h126.5V327.9 M884.8,325.9c-0.3,0-0.7,0.1-1,0.3
				c-0.6,0.4-1,1-1,1.7v5.7H758.3c-1.1,0-2,0.9-2,2v5.5c0,1.1,0.9,2,2,2h124.5v5.7c0,0.7,0.4,1.4,1,1.7c0.3,0.2,0.7,0.3,1,0.3
				c0.3,0,0.7-0.1,1-0.3l18.1-10.5c0.6-0.4,1-1,1-1.7c0-0.7-0.4-1.4-1-1.7l-18.1-10.5C885.5,325.9,885.1,325.9,884.8,325.9
				L884.8,325.9z"/>
		</g>
	</g>
	<path class="st4" d="M842.1,377c0,5.9-4.8,10.8-10.8,10.8H312.6c-6,0-10.8-4.8-10.8-10.8v-82.1c0-5.9,4.8-10.8,10.8-10.8h518.7
		c6,0,10.8,4.8,10.8,10.8V377z"/>
	<g>
		<g>
			<path class="st3" d="M350.2,329.4h-3.3v-19.6h5.2l5.9,12.3l5.9-12.3h5.1v19.6h-3.3v-15.3l-6.8,13.6H357l-6.8-13.6V329.4z"/>
			<path class="st3" d="M387.6,323.3h-11.7c0.1,1.1,0.6,2,1.5,2.6c0.9,0.7,2,1,3.1,1c1.9,0,3.3-0.6,4.3-1.8l1.8,2
				c-1.6,1.7-3.7,2.5-6.3,2.5c-2.1,0-3.9-0.7-5.3-2.1c-1.5-1.4-2.2-3.3-2.2-5.6s0.7-4.2,2.2-5.6c1.5-1.4,3.3-2.1,5.3-2.1
				s3.7,0.6,5.2,1.8c1.4,1.2,2.1,2.9,2.1,5.1V323.3z M375.9,320.8h8.5c0-1.3-0.4-2.2-1.2-2.9c-0.8-0.7-1.8-1-2.9-1s-2.2,0.3-3.1,1
				C376.4,318.7,375.9,319.6,375.9,320.8z"/>
			<path class="st3" d="M394.6,317v7.6c0,0.7,0.2,1.3,0.6,1.7c0.4,0.4,0.9,0.6,1.6,0.6s1.3-0.3,1.9-1l1.3,2.2
				c-1.1,1-2.3,1.5-3.7,1.5c-1.3,0-2.5-0.5-3.4-1.4c-0.9-0.9-1.4-2.2-1.4-3.7V317h-1.9v-2.5h1.9v-4.7h3.1v4.7h3.9v2.5H394.6z"/>
			<path class="st3" d="M414.2,329.4h-2.9v-2c-1.2,1.5-2.9,2.2-5,2.2c-1.5,0-2.8-0.4-3.9-1.3s-1.5-2-1.5-3.5c0-1.5,0.5-2.6,1.6-3.3
				c1.1-0.7,2.5-1.1,4.4-1.1h4.1v-0.6c0-2-1.1-3-3.3-3c-1.4,0-2.8,0.5-4.3,1.5l-1.4-2c1.8-1.4,3.9-2.2,6.2-2.2
				c1.8,0,3.2,0.4,4.3,1.3s1.7,2.3,1.7,4.2V329.4z M411.1,323.8v-1.3h-3.5c-2.3,0-3.4,0.7-3.4,2.1c0,0.7,0.3,1.3,0.8,1.7
				s1.3,0.6,2.3,0.6c1,0,1.9-0.3,2.6-0.8C410.7,325.5,411.1,324.8,411.1,323.8z"/>
			<path class="st3" d="M419.5,327.5c-1.4-1.4-2.1-3.3-2.1-5.6s0.7-4.2,2.2-5.5c1.4-1.4,3.2-2.1,5.1-2.1c2,0,3.6,0.8,4.8,2.5v-8.2
				h3.1v20.8h-3.1v-2.2c-1.2,1.6-2.8,2.5-5.1,2.5C422.5,329.6,420.9,328.9,419.5,327.5z M420.5,322c0,1.4,0.5,2.6,1.4,3.5
				c0.9,0.9,2,1.3,3.2,1.3s2.3-0.5,3.1-1.4c0.9-0.9,1.3-2.1,1.3-3.5c0-1.4-0.4-2.6-1.3-3.6s-1.9-1.4-3.2-1.4c-1.3,0-2.3,0.5-3.2,1.4
				C421,319.4,420.5,320.6,420.5,322z"/>
			<path class="st3" d="M448.9,329.4h-2.9v-2c-1.2,1.5-2.9,2.2-5,2.2c-1.5,0-2.8-0.4-3.9-1.3s-1.5-2-1.5-3.5c0-1.5,0.5-2.6,1.6-3.3
				c1.1-0.7,2.5-1.1,4.4-1.1h4.1v-0.6c0-2-1.1-3-3.3-3c-1.4,0-2.8,0.5-4.3,1.5l-1.4-2c1.8-1.4,3.9-2.2,6.2-2.2
				c1.8,0,3.2,0.4,4.3,1.3s1.7,2.3,1.7,4.2V329.4z M445.8,323.8v-1.3h-3.5c-2.3,0-3.4,0.7-3.4,2.1c0,0.7,0.3,1.3,0.8,1.7
				s1.3,0.6,2.3,0.6c1,0,1.9-0.3,2.6-0.8C445.4,325.5,445.8,324.8,445.8,323.8z"/>
			<path class="st3" d="M456.9,317v7.6c0,0.7,0.2,1.3,0.6,1.7c0.4,0.4,0.9,0.6,1.6,0.6s1.3-0.3,1.9-1l1.3,2.2
				c-1.1,1-2.3,1.5-3.7,1.5c-1.3,0-2.5-0.5-3.4-1.4c-0.9-0.9-1.4-2.2-1.4-3.7V317h-1.9v-2.5h1.9v-4.7h3.1v4.7h3.9v2.5H456.9z"/>
			<path class="st3" d="M476.5,329.4h-2.9v-2c-1.2,1.5-2.9,2.2-5,2.2c-1.5,0-2.8-0.4-3.9-1.3s-1.5-2-1.5-3.5c0-1.5,0.5-2.6,1.6-3.3
				c1.1-0.7,2.5-1.1,4.4-1.1h4.1v-0.6c0-2-1.1-3-3.3-3c-1.4,0-2.8,0.5-4.3,1.5l-1.4-2c1.8-1.4,3.9-2.2,6.2-2.2
				c1.8,0,3.2,0.4,4.3,1.3s1.7,2.3,1.7,4.2V329.4z M473.4,323.8v-1.3h-3.5c-2.3,0-3.4,0.7-3.4,2.1c0,0.7,0.3,1.3,0.8,1.7
				s1.3,0.6,2.3,0.6c1,0,1.9-0.3,2.6-0.8C473,325.5,473.4,324.8,473.4,323.8z"/>
			<path class="st3" d="M500.4,327.4c-1.5,1.5-3.4,2.2-5.6,2.2s-4.1-0.7-5.6-2.2c-1.5-1.5-2.2-3.3-2.2-5.4c0-2.1,0.7-4,2.2-5.4
				c1.5-1.5,3.4-2.2,5.6-2.2s4.1,0.7,5.6,2.2c1.5,1.5,2.2,3.3,2.2,5.4C502.7,324.1,501.9,325.9,500.4,327.4z M491.5,325.4
				c0.9,0.9,2,1.4,3.4,1.4s2.5-0.5,3.4-1.4s1.3-2.1,1.3-3.5c0-1.4-0.4-2.6-1.3-3.5s-2-1.4-3.4-1.4s-2.5,0.5-3.4,1.4
				s-1.3,2.1-1.3,3.5C490.1,323.3,490.6,324.5,491.5,325.4z"/>
			<path class="st3" d="M509.1,321.3v8.1H506v-14.9h3.1v2.7c0.5-0.9,1.2-1.6,2.1-2.2c0.9-0.5,1.8-0.8,2.9-0.8c1.7,0,3,0.5,4.1,1.5
				c1,1,1.6,2.5,1.6,4.5v9.1h-3.1v-8.2c0-2.7-1.1-4.1-3.4-4.1c-1.1,0-2,0.4-2.8,1.1C509.5,318.9,509.1,319.9,509.1,321.3z"/>
			<path class="st3" d="M548,326.7c-2,1.9-4.4,2.9-7.3,2.9s-5.4-1-7.3-2.9c-2-1.9-3-4.3-3-7.2s1-5.3,3-7.2c2-1.9,4.4-2.9,7.3-2.9
				s5.4,1,7.3,2.9c2,1.9,3,4.3,3,7.2S550,324.7,548,326.7z M545.6,314.4c-1.3-1.4-3-2.1-4.9-2.1s-3.6,0.7-4.9,2.1
				c-1.3,1.4-2,3.1-2,5s0.7,3.6,2,5c1.3,1.4,3,2.1,4.9,2.1s3.6-0.7,4.9-2.1c1.3-1.4,2-3.1,2-5S546.9,315.8,545.6,314.4z"/>
			<path class="st3" d="M562.4,314.2c2,0,3.7,0.7,5.1,2.1c1.4,1.4,2.1,3.2,2.1,5.5s-0.7,4.2-2.1,5.6s-3.1,2.2-4.9,2.2
				s-3.6-0.8-5.1-2.5v2.2h-3.1v-20.8h3.1v8.5C558.8,315.2,560.4,314.2,562.4,314.2z M557.5,321.9c0,1.4,0.4,2.6,1.3,3.5
				s1.9,1.4,3.1,1.4c1.2,0,2.3-0.4,3.2-1.3c0.9-0.9,1.4-2.1,1.4-3.5c0-1.4-0.4-2.6-1.3-3.6c-0.9-0.9-2-1.4-3.2-1.4s-2.3,0.5-3.2,1.4
				S557.5,320.5,557.5,321.9z"/>
			<path class="st3" d="M572.9,330.1v-15.6h3.1v15.7c0,1.6-0.5,2.8-1.4,3.7c-0.9,0.9-2.1,1.4-3.4,1.4c-1.3,0-2.6-0.5-3.7-1.5
				l1.5-2.4c0.6,0.6,1.3,0.9,1.9,0.9c0.6,0,1.1-0.2,1.5-0.6C572.8,331.4,572.9,330.8,572.9,330.1z M573.1,311.5
				c-0.4-0.4-0.6-0.9-0.6-1.4c0-0.5,0.2-1,0.6-1.4c0.4-0.4,0.9-0.6,1.4-0.6c0.5,0,1,0.2,1.4,0.6s0.6,0.9,0.6,1.4
				c0,0.5-0.2,1-0.6,1.4c-0.4,0.4-0.9,0.6-1.4,0.6C573.9,312.1,573.5,311.9,573.1,311.5z"/>
			<path class="st3" d="M594.2,323.3h-11.7c0.1,1.1,0.6,2,1.5,2.6c0.9,0.7,2,1,3.1,1c1.9,0,3.3-0.6,4.3-1.8l1.8,2
				c-1.6,1.7-3.7,2.5-6.3,2.5c-2.1,0-3.9-0.7-5.3-2.1c-1.5-1.4-2.2-3.3-2.2-5.6s0.7-4.2,2.2-5.6c1.5-1.4,3.3-2.1,5.3-2.1
				s3.7,0.6,5.2,1.8c1.4,1.2,2.1,2.9,2.1,5.1V323.3z M582.5,320.8h8.5c0-1.3-0.4-2.2-1.2-2.9c-0.8-0.7-1.8-1-2.9-1s-2.2,0.3-3.1,1
				C583,318.7,582.5,319.6,582.5,320.8z"/>
			<path class="st3" d="M604,329.6c-2.1,0-3.9-0.7-5.3-2.1c-1.5-1.4-2.2-3.3-2.2-5.5s0.8-4.1,2.3-5.6c1.6-1.4,3.5-2.1,5.7-2.1
				s4.1,0.8,5.7,2.3l-1.8,2.3c-1.3-1.1-2.6-1.7-3.9-1.7s-2.4,0.4-3.4,1.3c-1,0.9-1.4,2-1.4,3.4s0.5,2.5,1.4,3.5c1,1,2.1,1.4,3.5,1.4
				s2.7-0.6,3.9-1.9l1.8,2C608.4,328.7,606.3,329.6,604,329.6z"/>
			<path class="st3" d="M617.1,317v7.6c0,0.7,0.2,1.3,0.6,1.7c0.4,0.4,0.9,0.6,1.6,0.6s1.3-0.3,1.9-1l1.3,2.2
				c-1.1,1-2.3,1.5-3.7,1.5c-1.3,0-2.5-0.5-3.4-1.4c-0.9-0.9-1.4-2.2-1.4-3.7V317H612v-2.5h1.9v-4.7h3.1v4.7h3.9v2.5H617.1z"/>
			<path class="st3" d="M624.8,311.5c-0.4-0.4-0.6-0.9-0.6-1.4c0-0.5,0.2-1,0.6-1.4c0.4-0.4,0.9-0.6,1.4-0.6c0.5,0,1,0.2,1.4,0.6
				c0.4,0.4,0.6,0.9,0.6,1.4c0,0.5-0.2,1-0.6,1.4c-0.4,0.4-0.9,0.6-1.4,0.6C625.7,312.1,625.2,311.9,624.8,311.5z M627.8,329.4h-3.1
				v-14.9h3.1V329.4z"/>
			<path class="st3" d="M636,329.4l-6-14.9h3.2l4.5,11.3l4.5-11.3h3.2l-6,14.9H636z"/>
			<path class="st3" d="M661.6,323.3h-11.7c0.1,1.1,0.6,2,1.5,2.6c0.9,0.7,2,1,3.1,1c1.9,0,3.3-0.6,4.3-1.8l1.8,2
				c-1.6,1.7-3.7,2.5-6.3,2.5c-2.1,0-3.9-0.7-5.3-2.1c-1.5-1.4-2.2-3.3-2.2-5.6s0.7-4.2,2.2-5.6c1.5-1.4,3.3-2.1,5.3-2.1
				s3.7,0.6,5.2,1.8c1.4,1.2,2.1,2.9,2.1,5.1V323.3z M649.9,320.8h8.5c0-1.3-0.4-2.2-1.2-2.9c-0.8-0.7-1.8-1-2.9-1s-2.2,0.3-3.1,1
				C650.4,318.7,649.9,319.6,649.9,320.8z"/>
			<path class="st3" d="M681.5,326.4c1.1,0,2.1-0.2,2.9-0.6c0.8-0.4,1.7-1,2.6-1.8l2.1,2.2c-2.1,2.3-4.6,3.4-7.5,3.4
				c-3,0-5.4-1-7.4-2.9s-2.9-4.3-2.9-7.2c0-2.9,1-5.3,3-7.3c2-1.9,4.5-2.9,7.5-2.9s5.6,1.1,7.6,3.4l-2.1,2.3
				c-0.9-0.9-1.8-1.5-2.6-1.9c-0.8-0.4-1.8-0.5-2.9-0.5c-2,0-3.6,0.6-5,1.9s-2,2.9-2,4.9c0,2,0.7,3.7,2,5
				C678.1,325.7,679.7,326.4,681.5,326.4z"/>
			<path class="st3" d="M709.3,326.4c1.1,0,2.1-0.2,2.9-0.6c0.8-0.4,1.7-1,2.6-1.8l2.1,2.2c-2.1,2.3-4.6,3.4-7.5,3.4
				c-3,0-5.4-1-7.4-2.9s-2.9-4.3-2.9-7.2c0-2.9,1-5.3,3-7.3c2-1.9,4.5-2.9,7.5-2.9s5.6,1.1,7.6,3.4l-2.1,2.3
				c-0.9-0.9-1.8-1.5-2.6-1.9c-0.8-0.4-1.8-0.5-2.9-0.5c-2,0-3.6,0.6-5,1.9s-2,2.9-2,4.9c0,2,0.7,3.7,2,5
				C705.8,325.7,707.4,326.4,709.3,326.4z"/>
			<path class="st3" d="M723.3,329.4h-3.1v-20.8h3.1V329.4z"/>
			<path class="st3" d="M739.7,329.4h-2.9v-2c-1.2,1.5-2.9,2.2-5,2.2c-1.5,0-2.8-0.4-3.9-1.3s-1.5-2-1.5-3.5c0-1.5,0.5-2.6,1.6-3.3
				c1.1-0.7,2.5-1.1,4.4-1.1h4.1v-0.6c0-2-1.1-3-3.3-3c-1.4,0-2.8,0.5-4.3,1.5l-1.4-2c1.8-1.4,3.9-2.2,6.2-2.2
				c1.8,0,3.2,0.4,4.3,1.3s1.7,2.3,1.7,4.2V329.4z M736.5,323.8v-1.3H733c-2.3,0-3.4,0.7-3.4,2.1c0,0.7,0.3,1.3,0.8,1.7
				s1.3,0.6,2.3,0.6c1,0,1.9-0.3,2.6-0.8C736.2,325.5,736.5,324.8,736.5,323.8z"/>
			<path class="st3" d="M754.4,324.9c0,1.4-0.5,2.6-1.5,3.4s-2.3,1.3-3.9,1.3c-1.1,0-2.2-0.2-3.4-0.6c-1.2-0.4-2.2-0.9-3.1-1.7
				l1.5-2.4c1.7,1.3,3.4,2,5,2c0.7,0,1.3-0.2,1.7-0.5c0.4-0.3,0.6-0.7,0.6-1.2c0-0.7-1-1.4-3-2c-0.1-0.1-0.3-0.1-0.3-0.1
				c-3.1-0.8-4.6-2.2-4.6-4.2c0-1.4,0.5-2.5,1.6-3.3c1.1-0.8,2.5-1.2,4.2-1.2c1.7,0,3.3,0.5,4.9,1.5l-1.2,2.3
				c-1.2-0.8-2.5-1.2-3.9-1.2c-0.7,0-1.4,0.1-1.8,0.4s-0.7,0.7-0.7,1.2c0,0.5,0.2,0.8,0.7,1.1c0.3,0.2,0.8,0.3,1.4,0.5
				c0.6,0.1,1.1,0.3,1.6,0.4s0.9,0.3,1.4,0.5s0.9,0.4,1.4,0.8C753.9,322.4,754.4,323.5,754.4,324.9z"/>
			<path class="st3" d="M768.3,324.9c0,1.4-0.5,2.6-1.5,3.4s-2.3,1.3-3.9,1.3c-1.1,0-2.2-0.2-3.4-0.6c-1.2-0.4-2.2-0.9-3.1-1.7
				l1.5-2.4c1.7,1.3,3.4,2,5,2c0.7,0,1.3-0.2,1.7-0.5c0.4-0.3,0.6-0.7,0.6-1.2c0-0.7-1-1.4-3-2c-0.1-0.1-0.3-0.1-0.3-0.1
				c-3.1-0.8-4.6-2.2-4.6-4.2c0-1.4,0.5-2.5,1.6-3.3c1.1-0.8,2.5-1.2,4.2-1.2c1.7,0,3.3,0.5,4.9,1.5l-1.2,2.3
				c-1.2-0.8-2.5-1.2-3.9-1.2c-0.7,0-1.4,0.1-1.8,0.4s-0.7,0.7-0.7,1.2c0,0.5,0.2,0.8,0.7,1.1c0.3,0.2,0.8,0.3,1.4,0.5
				c0.6,0.1,1.1,0.3,1.6,0.4s0.9,0.3,1.4,0.5s0.9,0.4,1.4,0.8C767.8,322.4,768.3,323.5,768.3,324.9z"/>
			<path class="st3" d="M785.4,323.3h-11.7c0.1,1.1,0.6,2,1.5,2.6c0.9,0.7,2,1,3.1,1c1.9,0,3.3-0.6,4.3-1.8l1.8,2
				c-1.6,1.7-3.7,2.5-6.3,2.5c-2.1,0-3.9-0.7-5.3-2.1c-1.5-1.4-2.2-3.3-2.2-5.6s0.7-4.2,2.2-5.6c1.5-1.4,3.3-2.1,5.3-2.1
				s3.7,0.6,5.2,1.8c1.4,1.2,2.1,2.9,2.1,5.1V323.3z M773.7,320.8h8.5c0-1.3-0.4-2.2-1.2-2.9c-0.8-0.7-1.8-1-2.9-1s-2.2,0.3-3.1,1
				C774.2,318.7,773.7,319.6,773.7,320.8z"/>
			<path class="st3" d="M799.2,324.9c0,1.4-0.5,2.6-1.5,3.4s-2.3,1.3-3.9,1.3c-1.1,0-2.2-0.2-3.4-0.6c-1.2-0.4-2.2-0.9-3.1-1.7
				l1.5-2.4c1.7,1.3,3.4,2,5,2c0.7,0,1.3-0.2,1.7-0.5c0.4-0.3,0.6-0.7,0.6-1.2c0-0.7-1-1.4-3-2c-0.1-0.1-0.3-0.1-0.3-0.1
				c-3.1-0.8-4.6-2.2-4.6-4.2c0-1.4,0.5-2.5,1.6-3.3c1.1-0.8,2.5-1.2,4.2-1.2c1.7,0,3.3,0.5,4.9,1.5l-1.2,2.3
				c-1.2-0.8-2.5-1.2-3.9-1.2c-0.7,0-1.4,0.1-1.8,0.4s-0.7,0.7-0.7,1.2c0,0.5,0.2,0.8,0.7,1.1c0.3,0.2,0.8,0.3,1.4,0.5
				c0.6,0.1,1.1,0.3,1.6,0.4s0.9,0.3,1.4,0.5s0.9,0.4,1.4,0.8C798.7,322.4,799.2,323.5,799.2,324.9z"/>
			<path class="st3" d="M358.5,363h-2.9v-2c-1.2,1.5-2.9,2.2-5,2.2c-1.5,0-2.8-0.4-3.9-1.3s-1.5-2-1.5-3.5c0-1.5,0.5-2.6,1.6-3.3
				c1.1-0.7,2.5-1.1,4.4-1.1h4.1v-0.6c0-2-1.1-3-3.3-3c-1.4,0-2.8,0.5-4.3,1.5l-1.4-2c1.8-1.4,3.9-2.2,6.2-2.2
				c1.8,0,3.2,0.4,4.3,1.3s1.7,2.3,1.7,4.2V363z M355.4,357.4v-1.3h-3.5c-2.3,0-3.4,0.7-3.4,2.1c0,0.7,0.3,1.3,0.8,1.7
				s1.3,0.6,2.3,0.6c1,0,1.9-0.3,2.6-0.8C355,359.1,355.4,358.4,355.4,357.4z"/>
			<path class="st3" d="M365.8,354.9v8.1h-3.1v-14.9h3.1v2.7c0.5-0.9,1.2-1.6,2.1-2.2c0.9-0.5,1.8-0.8,2.9-0.8c1.7,0,3,0.5,4.1,1.5
				c1,1,1.6,2.5,1.6,4.5v9.1h-3.1v-8.2c0-2.7-1.1-4.1-3.4-4.1c-1.1,0-2,0.4-2.8,1.1C366.2,352.5,365.8,353.5,365.8,354.9z"/>
			<path class="st3" d="M381.6,361.1c-1.4-1.4-2.1-3.3-2.1-5.6s0.7-4.2,2.2-5.5c1.4-1.4,3.2-2.1,5.1-2.1c2,0,3.6,0.8,4.8,2.5v-8.2
				h3.1V363h-3.1v-2.2c-1.2,1.6-2.8,2.5-5.1,2.5C384.6,363.2,383,362.5,381.6,361.1z M382.6,355.6c0,1.4,0.5,2.6,1.4,3.5
				c0.9,0.9,2,1.3,3.2,1.3s2.3-0.5,3.1-1.4c0.9-0.9,1.3-2.1,1.3-3.5c0-1.4-0.4-2.6-1.3-3.6s-1.9-1.4-3.2-1.4c-1.3,0-2.3,0.5-3.2,1.4
				C383.1,353,382.6,354.2,382.6,355.6z"/>
			<path class="st3" d="M414.3,347.8c2,0,3.7,0.7,5.1,2.1c1.4,1.4,2.1,3.2,2.1,5.5s-0.7,4.2-2.1,5.6s-3.1,2.2-4.9,2.2
				s-3.6-0.8-5.1-2.5v7.7h-3.1v-20.3h3.1v2.6C410.7,348.8,412.3,347.8,414.3,347.8z M409.4,355.5c0,1.4,0.4,2.6,1.3,3.5
				s1.9,1.4,3.1,1.4c1.2,0,2.3-0.4,3.2-1.3c0.9-0.9,1.4-2.1,1.4-3.5c0-1.4-0.4-2.6-1.3-3.6c-0.9-0.9-2-1.4-3.2-1.4s-2.3,0.5-3.2,1.4
				S409.4,354.1,409.4,355.5z"/>
			<path class="st3" d="M428,363h-3.1v-20.8h3.1V363z"/>
			<path class="st3" d="M444.4,363h-2.9v-2c-1.2,1.5-2.9,2.2-5,2.2c-1.5,0-2.8-0.4-3.9-1.3s-1.5-2-1.5-3.5c0-1.5,0.5-2.6,1.6-3.3
				c1.1-0.7,2.5-1.1,4.4-1.1h4.1v-0.6c0-2-1.1-3-3.3-3c-1.4,0-2.8,0.5-4.3,1.5l-1.4-2c1.8-1.4,3.9-2.2,6.2-2.2
				c1.8,0,3.2,0.4,4.3,1.3s1.7,2.3,1.7,4.2V363z M441.2,357.4v-1.3h-3.5c-2.3,0-3.4,0.7-3.4,2.1c0,0.7,0.3,1.3,0.8,1.7
				s1.3,0.6,2.3,0.6c1,0,1.9-0.3,2.6-0.8C440.8,359.1,441.2,358.4,441.2,357.4z"/>
			<path class="st3" d="M451.6,354.9v8.1h-3.1v-14.9h3.1v2.7c0.5-0.9,1.2-1.6,2.1-2.2c0.9-0.5,1.8-0.8,2.9-0.8c1.7,0,3,0.5,4.1,1.5
				c1,1,1.6,2.5,1.6,4.5v9.1H459v-8.2c0-2.7-1.1-4.1-3.4-4.1c-1.1,0-2,0.4-2.8,1.1C452,352.5,451.6,353.5,451.6,354.9z"/>
			<path class="st3" d="M483,360c1.1,0,2.1-0.2,2.9-0.6c0.8-0.4,1.7-1,2.6-1.8l2.1,2.2c-2.1,2.3-4.6,3.4-7.5,3.4c-3,0-5.4-1-7.4-2.9
				s-2.9-4.3-2.9-7.2c0-2.9,1-5.3,3-7.3c2-1.9,4.5-2.9,7.5-2.9s5.6,1.1,7.6,3.4l-2.1,2.3c-0.9-0.9-1.8-1.5-2.6-1.9
				c-0.8-0.4-1.8-0.5-2.9-0.5c-2,0-3.6,0.6-5,1.9s-2,2.9-2,4.9c0,2,0.7,3.7,2,5C479.6,359.3,481.2,360,483,360z"/>
			<path class="st3" d="M505.2,346.8v1.2h3.9v2.5h-3.9V363h-3.1v-12.4h-1.9v-2.5h1.9v-1.1c0-1.6,0.5-2.8,1.4-3.7
				c0.9-0.9,2.1-1.4,3.4-1.4c1.3,0,2.6,0.5,3.7,1.5l-1.3,2.2c-0.6-0.7-1.3-1-1.9-1s-1.2,0.2-1.6,0.6
				C505.4,345.6,505.2,346.1,505.2,346.8z"/>
			<path class="st3" d="M522.3,356.1v-8.1h3.1V363h-3.1v-2.7c-0.5,0.9-1.2,1.6-2.1,2.2s-1.8,0.8-2.9,0.8c-1.7,0-3-0.5-4.1-1.5
				c-1-1-1.6-2.5-1.6-4.5v-9.1h3.1v8.2c0,2.7,1.1,4.1,3.4,4.1c1.1,0,2-0.4,2.8-1.1C521.9,358.6,522.3,357.5,522.3,356.1z"/>
			<path class="st3" d="M532.8,354.9v8.1h-3.1v-14.9h3.1v2.7c0.5-0.9,1.2-1.6,2.1-2.2c0.9-0.5,1.8-0.8,2.9-0.8c1.7,0,3,0.5,4.1,1.5
				c1,1,1.6,2.5,1.6,4.5v9.1h-3.1v-8.2c0-2.7-1.1-4.1-3.4-4.1c-1.1,0-2,0.4-2.8,1.1C533.2,352.5,532.8,353.5,532.8,354.9z"/>
			<path class="st3" d="M554.1,363.2c-2.1,0-3.9-0.7-5.3-2.1c-1.5-1.4-2.2-3.3-2.2-5.5s0.8-4.1,2.3-5.6c1.6-1.4,3.5-2.1,5.7-2.1
				s4.1,0.8,5.7,2.3l-1.8,2.3c-1.3-1.1-2.6-1.7-3.9-1.7s-2.4,0.4-3.4,1.3c-1,0.9-1.4,2-1.4,3.4s0.5,2.5,1.4,3.5c1,1,2.1,1.4,3.5,1.4
				s2.7-0.6,3.9-1.9l1.8,2C558.6,362.3,556.5,363.2,554.1,363.2z"/>
			<path class="st3" d="M567.2,350.6v7.6c0,0.7,0.2,1.3,0.6,1.7c0.4,0.4,0.9,0.6,1.6,0.6s1.3-0.3,1.9-1l1.3,2.2
				c-1.1,1-2.3,1.5-3.7,1.5c-1.3,0-2.5-0.5-3.4-1.4c-0.9-0.9-1.4-2.2-1.4-3.7v-7.5h-1.9v-2.5h1.9v-4.7h3.1v4.7h3.9v2.5H567.2z"/>
			<path class="st3" d="M575,345.1c-0.4-0.4-0.6-0.9-0.6-1.4c0-0.5,0.2-1,0.6-1.4c0.4-0.4,0.9-0.6,1.4-0.6c0.5,0,1,0.2,1.4,0.6
				c0.4,0.4,0.6,0.9,0.6,1.4c0,0.5-0.2,1-0.6,1.4c-0.4,0.4-0.9,0.6-1.4,0.6C575.8,345.7,575.4,345.5,575,345.1z M577.9,363h-3.1
				v-14.9h3.1V363z"/>
			<path class="st3" d="M594.6,361c-1.5,1.5-3.4,2.2-5.6,2.2s-4.1-0.7-5.6-2.2c-1.5-1.5-2.2-3.3-2.2-5.4c0-2.1,0.7-4,2.2-5.4
				c1.5-1.5,3.4-2.2,5.6-2.2s4.1,0.7,5.6,2.2c1.5,1.5,2.2,3.3,2.2,5.4C596.9,357.7,596.1,359.5,594.6,361z M585.7,359
				c0.9,0.9,2,1.4,3.4,1.4s2.5-0.5,3.4-1.4s1.3-2.1,1.3-3.5c0-1.4-0.4-2.6-1.3-3.5s-2-1.4-3.4-1.4s-2.5,0.5-3.4,1.4
				s-1.3,2.1-1.3,3.5C584.3,356.9,584.8,358.1,585.7,359z"/>
			<path class="st3" d="M603.3,354.9v8.1h-3.1v-14.9h3.1v2.7c0.5-0.9,1.2-1.6,2.1-2.2c0.9-0.5,1.8-0.8,2.9-0.8c1.7,0,3,0.5,4.1,1.5
				c1,1,1.6,2.5,1.6,4.5v9.1h-3.1v-8.2c0-2.7-1.1-4.1-3.4-4.1c-1.1,0-2,0.4-2.8,1.1C603.7,352.5,603.3,353.5,603.3,354.9z"/>
			<path class="st3" d="M628.6,358.5c0,1.4-0.5,2.6-1.5,3.4s-2.3,1.3-3.9,1.3c-1.1,0-2.2-0.2-3.4-0.6c-1.2-0.4-2.2-0.9-3.1-1.7
				l1.5-2.4c1.7,1.3,3.4,2,5,2c0.7,0,1.3-0.2,1.7-0.5c0.4-0.3,0.6-0.7,0.6-1.2c0-0.7-1-1.4-3-2c-0.1-0.1-0.3-0.1-0.3-0.1
				c-3.1-0.8-4.6-2.2-4.6-4.2c0-1.4,0.5-2.5,1.6-3.3c1.1-0.8,2.5-1.2,4.2-1.2c1.7,0,3.3,0.5,4.9,1.5l-1.2,2.3
				c-1.2-0.8-2.5-1.2-3.9-1.2c-0.7,0-1.4,0.1-1.8,0.4s-0.7,0.7-0.7,1.2c0,0.5,0.2,0.8,0.7,1.1c0.3,0.2,0.8,0.3,1.4,0.5
				c0.6,0.1,1.1,0.3,1.6,0.4s0.9,0.3,1.4,0.5s0.9,0.4,1.4,0.8C628.1,356,628.6,357.1,628.6,358.5z"/>
			<path class="st3" d="M651.3,363h-2.9v-2c-1.2,1.5-2.9,2.2-5,2.2c-1.5,0-2.8-0.4-3.9-1.3s-1.5-2-1.5-3.5c0-1.5,0.5-2.6,1.6-3.3
				c1.1-0.7,2.5-1.1,4.4-1.1h4.1v-0.6c0-2-1.1-3-3.3-3c-1.4,0-2.8,0.5-4.3,1.5l-1.4-2c1.8-1.4,3.9-2.2,6.2-2.2
				c1.8,0,3.2,0.4,4.3,1.3s1.7,2.3,1.7,4.2V363z M648.2,357.4v-1.3h-3.5c-2.3,0-3.4,0.7-3.4,2.1c0,0.7,0.3,1.3,0.8,1.7
				s1.3,0.6,2.3,0.6c1,0,1.9-0.3,2.6-0.8C647.8,359.1,648.2,358.4,648.2,357.4z"/>
			<path class="st3" d="M658.5,354.9v8.1h-3.1v-14.9h3.1v2.7c0.5-0.9,1.2-1.6,2.1-2.2c0.9-0.5,1.8-0.8,2.9-0.8c1.7,0,3,0.5,4.1,1.5
				c1,1,1.6,2.5,1.6,4.5v9.1H666v-8.2c0-2.7-1.1-4.1-3.4-4.1c-1.1,0-2,0.4-2.8,1.1C658.9,352.5,658.5,353.5,658.5,354.9z"/>
			<path class="st3" d="M674.3,361.1c-1.4-1.4-2.1-3.3-2.1-5.6s0.7-4.2,2.2-5.5c1.4-1.4,3.2-2.1,5.1-2.1c2,0,3.6,0.8,4.8,2.5v-8.2
				h3.1V363h-3.1v-2.2c-1.2,1.6-2.8,2.5-5.1,2.5C677.4,363.2,675.7,362.5,674.3,361.1z M675.4,355.6c0,1.4,0.5,2.6,1.4,3.5
				c0.9,0.9,2,1.3,3.2,1.3s2.3-0.5,3.1-1.4c0.9-0.9,1.3-2.1,1.3-3.5c0-1.4-0.4-2.6-1.3-3.6s-1.9-1.4-3.2-1.4c-1.3,0-2.3,0.5-3.2,1.4
				C675.8,353,675.4,354.2,675.4,355.6z"/>
			<path class="st3" d="M711.6,361c-1.5,1.5-3.4,2.2-5.6,2.2s-4.1-0.7-5.6-2.2c-1.5-1.5-2.2-3.3-2.2-5.4c0-2.1,0.7-4,2.2-5.4
				c1.5-1.5,3.4-2.2,5.6-2.2s4.1,0.7,5.6,2.2c1.5,1.5,2.2,3.3,2.2,5.4C713.8,357.7,713.1,359.5,711.6,361z M702.6,359
				c0.9,0.9,2,1.4,3.4,1.4s2.5-0.5,3.4-1.4s1.3-2.1,1.3-3.5c0-1.4-0.4-2.6-1.3-3.5s-2-1.4-3.4-1.4s-2.5,0.5-3.4,1.4
				s-1.3,2.1-1.3,3.5C701.3,356.9,701.7,358.1,702.6,359z"/>
			<path class="st3" d="M725.1,347.8c2,0,3.7,0.7,5.1,2.1c1.4,1.4,2.1,3.2,2.1,5.5s-0.7,4.2-2.1,5.6s-3.1,2.2-4.9,2.2
				s-3.6-0.8-5.1-2.5v2.2h-3.1v-20.8h3.1v8.5C721.5,348.8,723.1,347.8,725.1,347.8z M720.2,355.5c0,1.4,0.4,2.6,1.3,3.5
				s1.9,1.4,3.1,1.4c1.2,0,2.3-0.4,3.2-1.3c0.9-0.9,1.4-2.1,1.4-3.5c0-1.4-0.4-2.6-1.3-3.6c-0.9-0.9-2-1.4-3.2-1.4s-2.3,0.5-3.2,1.4
				S720.2,354.1,720.2,355.5z"/>
			<path class="st3" d="M735.6,363.7v-15.6h3.1v15.7c0,1.6-0.5,2.8-1.4,3.7c-0.9,0.9-2.1,1.4-3.4,1.4c-1.3,0-2.6-0.5-3.7-1.5
				l1.5-2.4c0.6,0.6,1.3,0.9,1.9,0.9c0.6,0,1.1-0.2,1.5-0.6C735.5,365,735.6,364.4,735.6,363.7z M735.8,345.1
				c-0.4-0.4-0.6-0.9-0.6-1.4c0-0.5,0.2-1,0.6-1.4c0.4-0.4,0.9-0.6,1.4-0.6c0.5,0,1,0.2,1.4,0.6s0.6,0.9,0.6,1.4
				c0,0.5-0.2,1-0.6,1.4c-0.4,0.4-0.9,0.6-1.4,0.6C736.6,345.7,736.2,345.5,735.8,345.1z"/>
			<path class="st3" d="M756.9,356.9h-11.7c0.1,1.1,0.6,2,1.5,2.6c0.9,0.7,2,1,3.1,1c1.9,0,3.3-0.6,4.3-1.8l1.8,2
				c-1.6,1.7-3.7,2.5-6.3,2.5c-2.1,0-3.9-0.7-5.3-2.1c-1.5-1.4-2.2-3.3-2.2-5.6s0.7-4.2,2.2-5.6c1.5-1.4,3.3-2.1,5.3-2.1
				s3.7,0.6,5.2,1.8c1.4,1.2,2.1,2.9,2.1,5.1V356.9z M745.2,354.4h8.5c0-1.3-0.4-2.2-1.2-2.9c-0.8-0.7-1.8-1-2.9-1s-2.2,0.3-3.1,1
				C745.7,352.3,745.2,353.2,745.2,354.4z"/>
			<path class="st3" d="M766.7,363.2c-2.1,0-3.9-0.7-5.3-2.1c-1.5-1.4-2.2-3.3-2.2-5.5s0.8-4.1,2.3-5.6c1.6-1.4,3.5-2.1,5.7-2.1
				s4.1,0.8,5.7,2.3l-1.8,2.3c-1.3-1.1-2.6-1.7-3.9-1.7s-2.4,0.4-3.4,1.3c-1,0.9-1.4,2-1.4,3.4s0.5,2.5,1.4,3.5c1,1,2.1,1.4,3.5,1.4
				s2.7-0.6,3.9-1.9l1.8,2C771.1,362.3,769,363.2,766.7,363.2z"/>
			<path class="st3" d="M779.8,350.6v7.6c0,0.7,0.2,1.3,0.6,1.7c0.4,0.4,0.9,0.6,1.6,0.6s1.3-0.3,1.9-1l1.3,2.2
				c-1.1,1-2.3,1.5-3.7,1.5c-1.3,0-2.5-0.5-3.4-1.4c-0.9-0.9-1.4-2.2-1.4-3.7v-7.5h-1.9v-2.5h1.9v-4.7h3.1v4.7h3.9v2.5H779.8z"/>
			<path class="st3" d="M797.9,358.5c0,1.4-0.5,2.6-1.5,3.4s-2.3,1.3-3.9,1.3c-1.1,0-2.2-0.2-3.4-0.6c-1.2-0.4-2.2-0.9-3.1-1.7
				l1.5-2.4c1.7,1.3,3.4,2,5,2c0.7,0,1.3-0.2,1.7-0.5c0.4-0.3,0.6-0.7,0.6-1.2c0-0.7-1-1.4-3-2c-0.1-0.1-0.3-0.1-0.3-0.1
				c-3.1-0.8-4.6-2.2-4.6-4.2c0-1.4,0.5-2.5,1.6-3.3c1.1-0.8,2.5-1.2,4.2-1.2c1.7,0,3.3,0.5,4.9,1.5l-1.2,2.3
				c-1.2-0.8-2.5-1.2-3.9-1.2c-0.7,0-1.4,0.1-1.8,0.4s-0.7,0.7-0.7,1.2c0,0.5,0.2,0.8,0.7,1.1c0.3,0.2,0.8,0.3,1.4,0.5
				c0.6,0.1,1.1,0.3,1.6,0.4s0.9,0.3,1.4,0.5s0.9,0.4,1.4,0.8C797.4,356,797.9,357.1,797.9,358.5z"/>
		</g>
	</g>
	<path class="st4" d="M842.1,509.4c0,5.9-4.8,10.8-10.8,10.8H312.6c-6,0-10.8-4.8-10.8-10.8v-77.8c0-5.9,4.8-10.8,10.8-10.8h518.7
		c6,0,10.8,4.8,10.8,10.8V509.4z"/>
	<g>
		<path class="st3" d="M421.8,463.8c1.9,1.7,2.8,4.1,2.8,7.1s-0.9,5.5-2.7,7.2c-1.8,1.8-4.6,2.7-8.4,2.7H407v-19.6h6.7
			C417.2,461.3,419.9,462.1,421.8,463.8z M421.3,471.1c0-4.5-2.6-6.7-7.7-6.7h-3.3v13.4h3.7c2.4,0,4.2-0.6,5.4-1.7
			C420.6,474.9,421.3,473.3,421.3,471.1z"/>
		<path class="st3" d="M440.5,480.9h-2.9v-2c-1.2,1.5-2.9,2.2-5,2.2c-1.5,0-2.8-0.4-3.9-1.3s-1.5-2-1.5-3.5c0-1.5,0.5-2.6,1.6-3.3
			c1.1-0.7,2.5-1.1,4.4-1.1h4.1v-0.6c0-2-1.1-3-3.3-3c-1.4,0-2.8,0.5-4.3,1.5l-1.4-2c1.8-1.4,3.9-2.2,6.2-2.2c1.8,0,3.2,0.4,4.3,1.3
			s1.7,2.3,1.7,4.2V480.9z M437.3,475.3v-1.3h-3.5c-2.3,0-3.4,0.7-3.4,2.1c0,0.7,0.3,1.3,0.8,1.7s1.3,0.6,2.3,0.6
			c1,0,1.9-0.3,2.6-0.8C437,477,437.3,476.3,437.3,475.3z"/>
		<path class="st3" d="M448.7,468.5v7.6c0,0.7,0.2,1.3,0.6,1.7c0.4,0.4,0.9,0.6,1.6,0.6s1.3-0.3,1.9-1l1.3,2.2
			c-1.1,1-2.3,1.5-3.7,1.5c-1.3,0-2.5-0.5-3.4-1.4c-0.9-0.9-1.4-2.2-1.4-3.7v-7.5h-1.9V466h1.9v-4.7h3.1v4.7h3.9v2.5H448.7z"/>
		<path class="st3" d="M468.6,480.9h-2.9v-2c-1.2,1.5-2.9,2.2-5,2.2c-1.5,0-2.8-0.4-3.9-1.3s-1.5-2-1.5-3.5c0-1.5,0.5-2.6,1.6-3.3
			c1.1-0.7,2.5-1.1,4.4-1.1h4.1v-0.6c0-2-1.1-3-3.3-3c-1.4,0-2.8,0.5-4.3,1.5l-1.4-2c1.8-1.4,3.9-2.2,6.2-2.2c1.8,0,3.2,0.4,4.3,1.3
			s1.7,2.3,1.7,4.2V480.9z M465.5,475.3v-1.3h-3.5c-2.3,0-3.4,0.7-3.4,2.1c0,0.7,0.3,1.3,0.8,1.7s1.3,0.6,2.3,0.6
			c1,0,1.9-0.3,2.6-0.8C465.1,477,465.5,476.3,465.5,475.3z"/>
		<path class="st3" d="M488.5,464.3v16.5h-3.3v-16.5h-5.9v-3h15.2v3H488.5z"/>
		<path class="st3" d="M499.4,486.8c-1.4,0-2.6-0.5-3.7-1.5l1.4-2.5c0.7,0.6,1.3,0.9,2,0.9s1.3-0.3,1.7-0.8c0.4-0.5,0.7-1.1,0.7-1.7
			c0-0.3-2-5.4-6-15.3h3.4l4.5,11l4.5-11h3.4l-7.2,17.7c-0.4,1-1,1.7-1.8,2.3C501.3,486.5,500.4,486.8,499.4,486.8z"/>
		<path class="st3" d="M521.6,465.7c2,0,3.7,0.7,5.1,2.1c1.4,1.4,2.1,3.2,2.1,5.5s-0.7,4.2-2.1,5.6s-3.1,2.2-4.9,2.2
			s-3.6-0.8-5.1-2.5v7.7h-3.1V466h3.1v2.6C518,466.7,519.6,465.7,521.6,465.7z M516.7,473.4c0,1.4,0.4,2.6,1.3,3.5s1.9,1.4,3.1,1.4
			c1.2,0,2.3-0.4,3.2-1.3c0.9-0.9,1.4-2.1,1.4-3.5c0-1.4-0.4-2.6-1.3-3.6c-0.9-0.9-2-1.4-3.2-1.4s-2.3,0.5-3.2,1.4
			S516.7,472,516.7,473.4z"/>
		<path class="st3" d="M546.3,474.8h-11.7c0.1,1.1,0.6,2,1.5,2.6c0.9,0.7,2,1,3.1,1c1.9,0,3.3-0.6,4.3-1.8l1.8,2
			c-1.6,1.7-3.7,2.5-6.3,2.5c-2.1,0-3.9-0.7-5.3-2.1c-1.5-1.4-2.2-3.3-2.2-5.6s0.7-4.2,2.2-5.6c1.5-1.4,3.3-2.1,5.3-2.1
			s3.7,0.6,5.2,1.8c1.4,1.2,2.1,2.9,2.1,5.1V474.8z M534.6,472.3h8.5c0-1.3-0.4-2.2-1.2-2.9c-0.8-0.7-1.8-1-2.9-1s-2.2,0.3-3.1,1
			C535.1,470.2,534.6,471.1,534.6,472.3z"/>
		<path class="st3" d="M560.4,476.4c0,1.4-0.5,2.6-1.5,3.4s-2.3,1.3-3.9,1.3c-1.1,0-2.2-0.2-3.4-0.6c-1.2-0.4-2.2-0.9-3.1-1.7
			l1.5-2.4c1.7,1.3,3.4,2,5,2c0.7,0,1.3-0.2,1.7-0.5c0.4-0.3,0.6-0.7,0.6-1.2c0-0.7-1-1.4-3-2c-0.1-0.1-0.3-0.1-0.3-0.1
			c-3.1-0.8-4.6-2.2-4.6-4.2c0-1.4,0.5-2.5,1.6-3.3c1.1-0.8,2.5-1.2,4.2-1.2c1.7,0,3.3,0.5,4.9,1.5l-1.2,2.3
			c-1.2-0.8-2.5-1.2-3.9-1.2c-0.7,0-1.4,0.1-1.8,0.4s-0.7,0.7-0.7,1.2c0,0.5,0.2,0.8,0.7,1.1c0.3,0.2,0.8,0.3,1.4,0.5
			c0.6,0.1,1.1,0.3,1.6,0.4s0.9,0.3,1.4,0.5s0.9,0.4,1.4,0.8C559.9,473.9,560.4,475,560.4,476.4z"/>
		<path class="st3" d="M575.3,480.9H572v-19.6h5.2l5.9,12.3l5.9-12.3h5.1v19.6h-3.3v-15.3l-6.8,13.6h-1.8l-6.8-13.6V480.9z"/>
		<path class="st3" d="M611.2,480.9h-2.9v-2c-1.2,1.5-2.9,2.2-5,2.2c-1.5,0-2.8-0.4-3.9-1.3s-1.5-2-1.5-3.5c0-1.5,0.5-2.6,1.6-3.3
			c1.1-0.7,2.5-1.1,4.4-1.1h4.1v-0.6c0-2-1.1-3-3.3-3c-1.4,0-2.8,0.5-4.3,1.5l-1.4-2c1.8-1.4,3.9-2.2,6.2-2.2c1.8,0,3.2,0.4,4.3,1.3
			s1.7,2.3,1.7,4.2V480.9z M608,475.3v-1.3h-3.5c-2.3,0-3.4,0.7-3.4,2.1c0,0.7,0.3,1.3,0.8,1.7s1.3,0.6,2.3,0.6c1,0,1.9-0.3,2.6-0.8
			C607.7,477,608,476.3,608,475.3z"/>
		<path class="st3" d="M623.4,468.9c-1.5,0-2.7,0.5-3.5,1.5c-0.8,1-1.2,2.4-1.2,4.1v6.4h-3.1V466h3.1v3c0.5-0.9,1.2-1.7,2.1-2.3
			c0.9-0.6,1.8-0.9,2.8-0.9l0,3.2C623.5,468.9,623.4,468.9,623.4,468.9z"/>
		<path class="st3" d="M637.3,476.4c0,1.4-0.5,2.6-1.5,3.4s-2.3,1.3-3.9,1.3c-1.1,0-2.2-0.2-3.4-0.6c-1.2-0.4-2.2-0.9-3.1-1.7
			l1.5-2.4c1.7,1.3,3.4,2,5,2c0.7,0,1.3-0.2,1.7-0.5c0.4-0.3,0.6-0.7,0.6-1.2c0-0.7-1-1.4-3-2c-0.1-0.1-0.3-0.1-0.3-0.1
			c-3.1-0.8-4.6-2.2-4.6-4.2c0-1.4,0.5-2.5,1.6-3.3c1.1-0.8,2.5-1.2,4.2-1.2c1.7,0,3.3,0.5,4.9,1.5l-1.2,2.3
			c-1.2-0.8-2.5-1.2-3.9-1.2c-0.7,0-1.4,0.1-1.8,0.4s-0.7,0.7-0.7,1.2c0,0.5,0.2,0.8,0.7,1.1c0.3,0.2,0.8,0.3,1.4,0.5
			c0.6,0.1,1.1,0.3,1.6,0.4s0.9,0.3,1.4,0.5s0.9,0.4,1.4,0.8C636.8,473.9,637.3,475,637.3,476.4z"/>
		<path class="st3" d="M644,472.8v8.1h-3.1v-20.7h3.1v8.6c0.4-0.9,1.1-1.6,2-2.2s1.9-0.8,2.9-0.8c1.7,0,3,0.5,4.1,1.5
			c1,1,1.6,2.5,1.6,4.5v9.1h-3.1v-8.2c0-2.7-1.1-4.1-3.4-4.1c-1.1,0-2,0.4-2.8,1.1C644.4,470.4,644,471.4,644,472.8z"/>
		<path class="st3" d="M671,480.9h-2.9v-2c-1.2,1.5-2.9,2.2-5,2.2c-1.5,0-2.8-0.4-3.9-1.3s-1.5-2-1.5-3.5c0-1.5,0.5-2.6,1.6-3.3
			c1.1-0.7,2.5-1.1,4.4-1.1h4.1v-0.6c0-2-1.1-3-3.3-3c-1.4,0-2.8,0.5-4.3,1.5l-1.4-2c1.8-1.4,3.9-2.2,6.2-2.2c1.8,0,3.2,0.4,4.3,1.3
			s1.7,2.3,1.7,4.2V480.9z M667.9,475.3v-1.3h-3.5c-2.3,0-3.4,0.7-3.4,2.1c0,0.7,0.3,1.3,0.8,1.7s1.3,0.6,2.3,0.6
			c1,0,1.9-0.3,2.6-0.8C667.5,477,667.9,476.3,667.9,475.3z"/>
		<path class="st3" d="M678.5,480.9h-3.1v-20.8h3.1V480.9z"/>
		<path class="st3" d="M686.2,480.9H683v-20.8h3.1V480.9z"/>
		<path class="st3" d="M704.6,474.8h-11.7c0.1,1.1,0.6,2,1.5,2.6c0.9,0.7,2,1,3.1,1c1.9,0,3.3-0.6,4.3-1.8l1.8,2
			c-1.6,1.7-3.7,2.5-6.3,2.5c-2.1,0-3.9-0.7-5.3-2.1c-1.5-1.4-2.2-3.3-2.2-5.6s0.7-4.2,2.2-5.6c1.5-1.4,3.3-2.1,5.3-2.1
			s3.7,0.6,5.2,1.8c1.4,1.2,2.1,2.9,2.1,5.1V474.8z M692.9,472.3h8.5c0-1.3-0.4-2.2-1.2-2.9c-0.8-0.7-1.8-1-2.9-1s-2.2,0.3-3.1,1
			C693.3,470.2,692.9,471.1,692.9,472.3z"/>
		<path class="st3" d="M715.8,468.9c-1.5,0-2.7,0.5-3.5,1.5c-0.8,1-1.2,2.4-1.2,4.1v6.4H708V466h3.1v3c0.5-0.9,1.2-1.7,2.1-2.3
			c0.9-0.6,1.8-0.9,2.8-0.9l0,3.2C715.9,468.9,715.9,468.9,715.8,468.9z"/>
	</g>
	<polygon class="st5" points="831.3,375.5 831.3,311.9 921.7,311.9 921.7,371 	"/>
	<g>
		<path class="st4" d="M1137.9,584.2c-0.4,0-0.7-0.2-0.9-0.5l-10.5-18.1c-0.2-0.3-0.2-0.7,0-1s0.5-0.5,0.9-0.5h6.7l0-36h-6.7
			c-0.4,0-0.7-0.2-0.9-0.5c-0.2-0.3-0.2-0.7,0-1l10.5-18.1c0.2-0.3,0.5-0.5,0.9-0.5s0.7,0.2,0.9,0.5l10.5,18.1c0.2,0.3,0.2,0.7,0,1
			c-0.2,0.3-0.5,0.5-0.9,0.5h-6.7v36h6.7c0.4,0,0.7,0.2,0.9,0.5c0.2,0.3,0.2,0.7,0,1l-10.5,18.1
			C1138.6,584,1138.2,584.2,1137.9,584.2z"/>
		<g>
			<path class="st1" d="M1137.9,509l10.5,18.1h-7.7v38h7.7l-10.5,18.1l-10.5-18.1h7.7l0-38h-7.7L1137.9,509 M1137.9,507
				c-0.7,0-1.4,0.4-1.7,1l-10.5,18.1c-0.4,0.6-0.4,1.4,0,2s1,1,1.7,1h5.7l0,34h-5.7c-0.7,0-1.4,0.4-1.7,1c-0.4,0.6-0.4,1.4,0,2
				l10.5,18.1c0.4,0.6,1,1,1.7,1c0,0,0,0,0,0c0.7,0,1.4-0.4,1.7-1l10.5-18.1c0.4-0.6,0.4-1.4,0-2c-0.4-0.6-1-1-1.7-1h-5.7v-34h5.7
				c0.7,0,1.4-0.4,1.7-1c0.4-0.6,0.4-1.4,0-2l-10.5-18.1C1139.2,507.4,1138.6,507,1137.9,507L1137.9,507z"/>
		</g>
	</g>
	<g>
		<path class="st4" d="M926.1,584.2c-0.4,0-0.7-0.2-0.9-0.5l-10.5-18.1c-0.2-0.3-0.2-0.7,0-1s0.5-0.5,0.9-0.5h6.7l0-36h-6.7
			c-0.4,0-0.7-0.2-0.9-0.5c-0.2-0.3-0.2-0.7,0-1l10.5-18.1c0.2-0.3,0.5-0.5,0.9-0.5c0.4,0,0.7,0.2,0.9,0.5l10.5,18.1
			c0.2,0.3,0.2,0.7,0,1s-0.5,0.5-0.9,0.5h-6.7v36h6.7c0.4,0,0.7,0.2,0.9,0.5c0.2,0.3,0.2,0.7,0,1L927,583.7
			C926.8,584,926.5,584.2,926.1,584.2z"/>
		<g>
			<path class="st1" d="M926.1,509l10.5,18.1h-7.7v38h7.7l-10.5,18.1l-10.5-18.1h7.7l0-38h-7.7L926.1,509 M926.1,507
				C926.1,507,926.1,507,926.1,507c-0.7,0-1.4,0.4-1.7,1l-10.5,18.1c-0.4,0.6-0.4,1.4,0,2c0.4,0.6,1,1,1.7,1h5.7l0,34h-5.7
				c-0.7,0-1.4,0.4-1.7,1c-0.4,0.6-0.4,1.4,0,2l10.5,18.1c0.4,0.6,1,1,1.7,1c0,0,0,0,0,0c0.7,0,1.4-0.4,1.7-1l10.5-18.1
				c0.4-0.6,0.4-1.4,0-2c-0.4-0.6-1-1-1.7-1h-5.7v-34h5.7c0.7,0,1.4-0.4,1.7-1c0.4-0.6,0.4-1.4,0-2L927.9,508
				C927.5,507.4,926.8,507,926.1,507L926.1,507z"/>
		</g>
	</g>
	<g>
		<g>
			<path class="st3" d="M1045.6,384.6c2.8,0,5.1-1.2,6.8-3.5l3.6,3.9c-2.9,3.4-6.3,5.1-10.2,5.1c-3.9,0-7.1-1.3-9.7-3.9
				s-3.8-5.8-3.8-9.8c0-3.9,1.3-7.2,3.9-9.9s5.7-4,9.5-4c4.2,0,7.7,1.7,10.5,5l-3.5,4.2c-1.8-2.3-4-3.5-6.7-3.5
				c-2.1,0-4,0.7-5.5,2.2c-1.5,1.5-2.3,3.4-2.3,5.9c0,2.5,0.7,4.5,2.1,5.9C1041.9,383.9,1043.6,384.6,1045.6,384.6z"/>
			<path class="st3" d="M1076.7,389.9h-5.1v-2.5c-1.4,1.8-3.1,2.8-5.2,2.8s-3.8-0.6-5.2-1.9c-1.4-1.3-2.1-2.9-2.1-5s0.7-3.7,2.2-4.7
				c1.5-1,3.4-1.6,6-1.6h4.1v-0.1c0-2.2-1.1-3.3-3.3-3.3c-0.9,0-1.9,0.2-3,0.6s-1.9,0.9-2.7,1.5l-2.4-3.7c2.6-2,5.5-2.9,8.8-2.9
				c2.4,0,4.3,0.6,5.8,1.9s2.3,3.2,2.3,5.9V389.9z M1071.2,382.1v-1h-3.4c-2.2,0-3.3,0.7-3.3,2.1c0,0.7,0.3,1.3,0.8,1.7
				c0.5,0.4,1.3,0.6,2.2,0.6c1,0,1.8-0.3,2.6-0.9C1070.8,383.9,1071.2,383.1,1071.2,382.1z"/>
			<path class="st3" d="M1087.1,389.9h-5.5v-28.2h5.5V389.9z"/>
			<path class="st3" d="M1097.8,389.9h-5.5v-28.2h5.5V389.9z"/>
			<path class="st3" d="M992.3,412.4c2.4,2.3,3.6,5.5,3.6,9.7c0,4.1-1.2,7.4-3.5,9.8c-2.4,2.4-6,3.6-10.8,3.6h-8.7v-26.6h9
				C986.4,408.9,989.9,410.1,992.3,412.4z M988.1,428.2c1.4-1.4,2.1-3.4,2.1-6s-0.7-4.6-2.1-6s-3.5-2.1-6.4-2.1h-3.2v16.1h3.6
				C984.7,430.2,986.7,429.5,988.1,428.2z"/>
			<path class="st3" d="M1000.7,412.4c-0.6-0.6-0.9-1.4-0.9-2.4s0.3-1.7,0.9-2.4c0.6-0.6,1.4-1,2.3-1c0.9,0,1.7,0.3,2.3,1
				c0.6,0.6,0.9,1.4,0.9,2.4s-0.3,1.7-0.9,2.4c-0.6,0.6-1.4,1-2.3,1C1002.1,413.4,1001.4,413.1,1000.7,412.4z M1005.8,435.5h-5.5
				V415h5.5V435.5z"/>
			<path class="st3" d="M1025.7,429.1c0,2-0.7,3.6-2.1,4.8c-1.4,1.2-3.2,1.8-5.4,1.8c-1.5,0-3-0.3-4.6-0.8c-1.6-0.5-3-1.3-4.3-2.4
				l2.4-3.6c2,1.6,4.2,2.5,6.5,2.5c0.7,0,1.3-0.1,1.7-0.4s0.6-0.7,0.6-1.2c0-0.5-0.3-0.9-0.9-1.3s-1.4-0.8-2.5-1.1
				c-1.1-0.4-1.9-0.7-2.5-0.9c-0.6-0.3-1.2-0.6-1.9-1.1c-1.5-1-2.2-2.4-2.2-4.3c0-1.9,0.7-3.4,2.2-4.6c1.5-1.2,3.3-1.8,5.6-1.8
				c2.3,0,4.6,0.8,6.9,2.4l-2,3.8c-1.7-1.2-3.4-1.8-5.1-1.8c-1.7,0-2.5,0.5-2.5,1.4c0,0.5,0.3,0.9,0.8,1.3c0.5,0.3,1.4,0.7,2.7,1.1
				c1.2,0.4,2.1,0.7,2.6,0.9c0.5,0.2,1.1,0.6,1.9,1C1025,425.7,1025.7,427.1,1025.7,429.1z"/>
			<path class="st3" d="M1041.2,414.7c2.3,0,4.3,1,6.1,3c1.8,2,2.7,4.5,2.7,7.5s-0.9,5.5-2.7,7.6c-1.8,2-3.9,3-6.3,3s-4.3-1-5.8-3
				v10.1h-5.5V415h5.5v2.3C1037,415.6,1039,414.7,1041.2,414.7z M1035.2,425.3c0,1.7,0.4,3,1.3,4.1s2,1.6,3.2,1.6
				c1.3,0,2.4-0.5,3.3-1.6s1.4-2.4,1.4-4s-0.5-3-1.4-4.1c-0.9-1.1-2-1.7-3.3-1.7c-1.3,0-2.4,0.6-3.3,1.7
				C1035.7,422.2,1035.2,423.6,1035.2,425.3z"/>
			<path class="st3" d="M1070.7,435.5h-5.1V433c-1.4,1.8-3.1,2.8-5.2,2.8s-3.8-0.6-5.2-1.9c-1.4-1.3-2.1-2.9-2.1-5s0.7-3.7,2.2-4.7
				c1.5-1,3.4-1.6,6-1.6h4.1v-0.1c0-2.2-1.1-3.3-3.3-3.3c-0.9,0-1.9,0.2-3,0.6s-1.9,0.9-2.7,1.5l-2.4-3.7c2.6-2,5.5-2.9,8.8-2.9
				c2.4,0,4.3,0.6,5.8,1.9s2.3,3.2,2.3,5.9V435.5z M1065.2,427.7v-1h-3.4c-2.2,0-3.3,0.7-3.3,2.1c0,0.7,0.3,1.3,0.8,1.7
				c0.5,0.4,1.3,0.6,2.2,0.6c1,0,1.8-0.3,2.6-0.9C1064.9,429.5,1065.2,428.7,1065.2,427.7z"/>
			<path class="st3" d="M1082.2,419.1v9.2c0,0.8,0.2,1.4,0.6,1.8c0.4,0.4,0.8,0.7,1.4,0.7c1,0,1.9-0.5,2.6-1.4l2,4
				c-1.7,1.6-3.5,2.4-5.4,2.4s-3.5-0.6-4.8-1.9s-1.9-3.1-1.9-5.3v-9.4h-2.3V415h2.3v-6.1h5.5v6.1h4.7v4.1H1082.2z"/>
			<path class="st3" d="M1101.1,430.7c1.8,0,3.5-1,4.9-2.8l3.2,3.8c-2.5,2.7-5.3,4.1-8.2,4.1s-5.4-1-7.4-2.9c-2-1.9-3-4.5-3-7.6
				c0-3.1,1-5.7,3.1-7.6s4.5-2.9,7.3-2.9c1.4,0,2.8,0.3,4.3,0.9c1.4,0.6,2.7,1.5,3.8,2.7l-2.8,3.9c-0.6-0.8-1.4-1.4-2.3-1.8
				s-1.8-0.6-2.7-0.6c-1.4,0-2.7,0.5-3.7,1.5c-1,1-1.5,2.3-1.5,4.1c0,1.7,0.5,3.1,1.5,4C1098.5,430.2,1099.8,430.7,1101.1,430.7z"/>
			<path class="st3" d="M1118.4,424.4v11h-5.5v-28.2h5.5v10c1.7-1.7,3.5-2.6,5.6-2.6s3.8,0.8,5.2,2.3c1.4,1.5,2.1,3.5,2.1,6.1v12.4
				h-5.5v-11.2c0-3.1-1.1-4.7-3.3-4.7c-1.1,0-2,0.4-2.9,1.2C1118.8,421.6,1118.4,422.9,1118.4,424.4z"/>
			<path class="st3" d="M1153.2,432.5c-2.2,2.2-4.8,3.3-7.8,3.3c-3,0-5.4-1-7.4-2.9c-1.9-1.9-2.9-4.5-2.9-7.7c0-3.2,1-5.8,3-7.7
				c2-1.9,4.3-2.9,7-2.9c2.7,0,5,0.8,6.9,2.5c1.9,1.7,2.8,4,2.8,7v3h-14.3c0.2,1.1,0.7,2,1.7,2.7s2,1.1,3.2,1.1c1.9,0,3.5-0.7,4.7-2
				L1153.2,432.5z M1147.9,420.4c-0.8-0.7-1.7-1-2.7-1c-1.1,0-2.1,0.3-3,1c-0.9,0.7-1.4,1.6-1.6,2.8h8.6
				C1149.1,422,1148.7,421,1147.9,420.4z"/>
			<path class="st3" d="M1169,420c-1.6,0-2.8,0.6-3.6,1.8c-0.8,1.2-1.2,2.8-1.2,4.8v8.9h-5.5V415h5.5v2.7c0.7-0.8,1.6-1.5,2.6-2.1
				c1.1-0.6,2.1-0.9,3.2-0.9l0,5.4H1169z"/>
		</g>
	</g>
	<path class="st2" d="M1529.8,465.1c0,9.8-7.9,17.7-17.7,17.7h-190.2c-9.8,0-17.7-7.9-17.7-17.7v-98.3c0-9.8,7.9-17.7,17.7-17.7
		h190.2c9.8,0,17.7,7.9,17.7,17.7V465.1z"/>
	<g>
		<path class="st3" d="M1379.3,380.5h5.6v25.2h-5.6l-12-15.8v15.8h-5.6v-25.2h5.3l12.3,16.2V380.5z"/>
		<path class="st3" d="M1407.1,405.6h-5.1v-2.3c-1.4,1.8-3.1,2.6-5.2,2.6c-2.1,0-3.8-0.6-5.2-1.8c-1.4-1.2-2.1-2.8-2.1-4.8
			c0-2,0.7-3.5,2.2-4.4c1.4-1,3.4-1.5,5.9-1.5h4v-0.1c0-2.1-1.1-3.1-3.3-3.1c-0.9,0-1.9,0.2-3,0.6c-1,0.4-1.9,0.8-2.6,1.4l-2.4-3.5
			c2.5-1.8,5.4-2.8,8.7-2.8c2.4,0,4.3,0.6,5.8,1.8c1.5,1.2,2.2,3,2.2,5.6V405.6z M1401.6,398.3v-0.9h-3.4c-2.2,0-3.2,0.7-3.2,2
			c0,0.7,0.3,1.2,0.8,1.6c0.5,0.4,1.3,0.6,2.2,0.6s1.8-0.3,2.5-0.9C1401.3,400,1401.6,399.2,1401.6,398.3z"/>
		<path class="st3" d="M1418.4,390.2v8.7c0,0.7,0.2,1.3,0.6,1.7c0.4,0.4,0.8,0.6,1.4,0.6c1,0,1.9-0.5,2.6-1.4l2,3.8
			c-1.7,1.5-3.5,2.3-5.3,2.3c-1.9,0-3.4-0.6-4.7-1.8c-1.3-1.2-1.9-2.9-1.9-5v-8.9h-2.3v-3.9h2.3v-5.8h5.4v5.8h4.7v3.9H1418.4z"/>
		<path class="st3" d="M1428.3,383.8c-0.6-0.6-0.9-1.4-0.9-2.3s0.3-1.6,0.9-2.3s1.4-0.9,2.3-0.9s1.6,0.3,2.3,0.9s0.9,1.4,0.9,2.3
			s-0.3,1.6-0.9,2.3s-1.4,0.9-2.3,0.9S1428.9,384.4,1428.3,383.8z M1433.2,405.6h-5.4v-19.4h5.4V405.6z"/>
		<path class="st3" d="M1443.6,405.6l-7.7-19.4h5.6l4.8,12.2l4.8-12.2h5.6l-7.7,19.4H1443.6z"/>
		<path class="st3" d="M1476.2,402.8c-2.2,2.1-4.7,3.1-7.7,3.1c-2.9,0-5.4-0.9-7.3-2.7c-1.9-1.8-2.9-4.2-2.9-7.3s1-5.5,2.9-7.3
			s4.3-2.7,6.9-2.7s4.9,0.8,6.8,2.4c1.9,1.6,2.8,3.8,2.8,6.6v2.9h-14.1c0.2,1.1,0.7,1.9,1.7,2.6c0.9,0.7,2,1,3.2,1
			c1.9,0,3.5-0.6,4.7-1.9L1476.2,402.8z M1471,391.3c-0.7-0.6-1.7-0.9-2.7-0.9s-2,0.3-2.9,1c-0.9,0.6-1.4,1.5-1.5,2.6h8.5
			C1472.2,392.9,1471.8,392,1471,391.3z"/>
		<path class="st3" d="M1373.3,428.7c-0.5,0.4-0.8,1-0.8,1.8c0,0.7,0.3,1.3,1,1.7c0.7,0.4,2.2,0.9,4.6,1.5c2.4,0.6,4.2,1.5,5.6,2.6
			c1.3,1.2,2,2.9,2,5.1s-0.8,4.1-2.5,5.5c-1.7,1.4-3.9,2.1-6.7,2.1c-4,0-7.6-1.5-10.8-4.4l3.3-4.1c2.7,2.4,5.2,3.6,7.5,3.6
			c1,0,1.8-0.2,2.4-0.7s0.9-1,0.9-1.8c0-0.8-0.3-1.4-0.9-1.8c-0.6-0.4-1.9-0.9-3.7-1.3c-2.9-0.7-5.1-1.6-6.4-2.7
			c-1.4-1.1-2-2.9-2-5.3c0-2.4,0.9-4.2,2.6-5.5c1.7-1.3,3.9-1.9,6.4-1.9c1.7,0,3.4,0.3,5,0.9c1.7,0.6,3.1,1.4,4.4,2.4l-2.8,4.1
			c-2.2-1.7-4.4-2.5-6.8-2.5C1374.6,428,1373.9,428.3,1373.3,428.7z"/>
		<path class="st3" d="M1399.2,444.3c1.8,0,3.4-0.9,4.9-2.7l3.2,3.6c-2.5,2.6-5.2,3.9-8.1,3.9c-2.9,0-5.4-0.9-7.4-2.8
			c-2-1.8-3-4.2-3-7.2c0-3,1-5.4,3-7.2c2-1.9,4.4-2.8,7.2-2.8c1.4,0,2.8,0.3,4.2,0.9s2.7,1.4,3.8,2.6l-2.8,3.7
			c-0.6-0.7-1.4-1.3-2.3-1.7c-0.9-0.4-1.8-0.6-2.7-0.6c-1.4,0-2.6,0.5-3.7,1.4s-1.5,2.2-1.5,3.9c0,1.6,0.5,2.9,1.5,3.8
			S1397.8,444.3,1399.2,444.3z"/>
		<path class="st3" d="M1421,434.2c-1.6,0-2.8,0.6-3.6,1.7c-0.8,1.1-1.2,2.6-1.2,4.5v8.4h-5.4v-19.4h5.4v2.6c0.7-0.8,1.6-1.5,2.6-2
			c1-0.6,2.1-0.8,3.2-0.9l0,5.1H1421z"/>
		<path class="st3" d="M1426.1,427c-0.6-0.6-0.9-1.4-0.9-2.3s0.3-1.6,0.9-2.3s1.4-0.9,2.3-0.9s1.6,0.3,2.3,0.9s0.9,1.4,0.9,2.3
			s-0.3,1.6-0.9,2.3s-1.4,0.9-2.3,0.9S1426.7,427.6,1426.1,427z M1431,448.8h-5.4v-19.4h5.4V448.8z"/>
		<path class="st3" d="M1447.4,429.1c2.3,0,4.3,0.9,6,2.8c1.8,1.9,2.6,4.3,2.6,7.1c0,2.9-0.9,5.2-2.6,7.2c-1.8,1.9-3.8,2.9-6.2,2.9
			c-2.4,0-4.3-0.9-5.7-2.8v9.5h-5.4v-26.4h5.4v2.2C1443.2,430,1445.2,429.1,1447.4,429.1z M1441.5,439.2c0,1.6,0.4,2.9,1.3,3.9
			c0.9,1,1.9,1.5,3.2,1.5s2.3-0.5,3.3-1.5c0.9-1,1.4-2.3,1.4-3.8c0-1.6-0.5-2.9-1.4-3.9c-0.9-1.1-2-1.6-3.3-1.6
			c-1.3,0-2.3,0.5-3.2,1.6C1441.9,436.3,1441.5,437.6,1441.5,439.2z"/>
		<path class="st3" d="M1466.6,433.4v8.7c0,0.7,0.2,1.3,0.6,1.7c0.4,0.4,0.8,0.6,1.4,0.6c1,0,1.9-0.5,2.6-1.4l2,3.8
			c-1.7,1.5-3.5,2.3-5.3,2.3c-1.9,0-3.4-0.6-4.7-1.8c-1.3-1.2-1.9-2.9-1.9-5v-8.9h-2.3v-3.9h2.3v-5.8h5.4v5.8h4.7v3.9H1466.6z"/>
	</g>
	<rect x="547.5" y="682.9" class="st1" width="5.5" height="49.8"/>
	<polygon class="st1" points="547.5,840 539.8,840 550.3,858.2 560.7,840 553,840 553,812.4 547.5,812.4 	"/>
	<polygon class="st5" points="553,840 553,812.4 547.5,812.4 547.5,840 539.8,840 544.8,848.7 555.7,848.7 560.7,840 	"/>
	<polygon class="st1" points="1085,690.9 1092.7,690.9 1082.3,672.8 1071.8,690.9 1079.5,690.9 1079.5,718.6 1085,718.6 	"/>
	<polygon class="st6" points="820.6,221.3 820.6,190.7 813.7,190.7 813.7,221.3 804.1,221.3 817.2,243.9 830.2,221.3 	"/>
</g>
</svg>
